B612-Regular.ufo
<glyph name="quotedbl" format="1">
  <advance width="800"/>
  <unicode hex="0022"/>
  <outline>
    <contour>
      <point x="325" y="1500" type="line" name="at01"/>
      <point x="325" y="1400" type="line" name="sh02"/>
      <point x="325" y="1362"/>
      <point x="311" y="1250"/>
      <point x="303" y="1196" type="qcurve"/>
      <point x="293" y="1134"/>
      <point x="281" y="1067" type="qcurve" name="sv01"/>
      <point x="194" y="1067" type="line"/>
      <point x="182" y="1134"/>
      <point x="172" y="1196" type="qcurve"/>
      <point x="164" y="1250"/>
      <point x="150" y="1362"/>
      <point x="150" y="1400" type="qcurve" name="sh01"/>
      <point x="150" y="1500" type="line"/>
    </contour>
    <contour>
      <point x="626" y="1500" type="line" name="at02"/>
      <point x="626" y="1400" type="line" name="sh03"/>
      <point x="626" y="1362"/>
      <point x="612" y="1250"/>
      <point x="604" y="1196" type="qcurve"/>
      <point x="594" y="1134"/>
      <point x="582" y="1067" type="qcurve" name="sv02"/>
      <point x="495" y="1067" type="line" name="sv03"/>
      <point x="483" y="1134"/>
      <point x="473" y="1196" type="qcurve"/>
      <point x="465" y="1250"/>
      <point x="451" y="1362"/>
      <point x="451" y="1400" type="qcurve" name="ah01"/>
      <point x="451" y="1500" type="line"/>
    </contour>
  </outline>
</glyph>
<glyph name="dollar" format="1">
  <advance width="1100"/>
  <unicode hex="0024"/>
  <outline>
    <contour>
      <point x="892" y="1300" type="line" name="hr00"/>
      <point x="875" y="1314"/>
      <point x="823" y="1343"/>
      <point x="759" y="1367"/>
      <point x="685" y="1385"/>
      <point x="646" y="1388" type="qcurve"/>
      <point x="646" y="863" type="line"/>
      <point x="715" y="831"/>
      <point x="850" y="757"/>
      <point x="957" y="657"/>
      <point x="1023" y="523"/>
      <point x="1023" y="432" type="qcurve"/>
      <point x="1023" y="338"/>
      <point x="967" y="190"/>
      <point x="867" y="80"/>
      <point x="729" y="10"/>
      <point x="646" y="-5" type="qcurve"/>
      <point x="646" y="-200" type="line"/>
      <point x="500" y="-200" type="line"/>
      <point x="500" y="-17" type="line"/>
      <point x="442" y="-16"/>
      <point x="328" y="5"/>
      <point x="225" y="37"/>
      <point x="137" y="78"/>
      <point x="105" y="100" type="qcurve"/>
      <point x="223" y="241" type="line"/>
      <point x="243" y="228"/>
      <point x="295" y="196"/>
      <point x="363" y="167"/>
      <point x="447" y="148"/>
      <point x="500" y="148" type="qcurve"/>
      <point x="500" y="721" type="line"/>
      <point x="431" y="755"/>
      <point x="295" y="829"/>
      <point x="189" y="921"/>
      <point x="123" y="1038"/>
      <point x="123" y="1116" type="qcurve"/>
      <point x="123" y="1221"/>
      <point x="186" y="1366"/>
      <point x="290" y="1459"/>
      <point x="426" y="1507"/>
      <point x="500" y="1515" type="qcurve"/>
      <point x="500" y="1700" type="line"/>
      <point x="646" y="1720" type="line"/>
      <point x="646" y="1518" type="line"/>
      <point x="752" y="1512"/>
      <point x="917" y="1451"/>
      <point x="986" y="1400" type="qcurve"/>
    </contour>
    <contour>
      <point x="833" y="400" type="qcurve"/>
      <point x="833" y="445"/>
      <point x="799" y="520"/>
      <point x="741" y="583"/>
      <point x="661" y="637"/>
      <point x="616" y="662" type="qcurve"/>
      <point x="616" y="158" type="line"/>
      <point x="665" y="167"/>
      <point x="745" y="205"/>
      <point x="802" y="264"/>
      <point x="833" y="346"/>
    </contour>
    <contour>
      <point x="313" y="1147" type="qcurve"/>
      <point x="313" y="1106"/>
      <point x="347" y="1040"/>
      <point x="405" y="984"/>
      <point x="485" y="938"/>
      <point x="530" y="916" type="qcurve"/>
      <point x="530" y="1383" type="line"/>
      <point x="489" y="1376"/>
      <point x="412" y="1344"/>
      <point x="350" y="1289"/>
      <point x="313" y="1205"/>
    </contour>
  </outline>
</glyph>
<glyph name="parenleft" format="1">
  <advance width="900"/>
  <unicode hex="0028"/>
  <outline>
    <contour>
      <point x="200" y="1180" type="line" name="hr00"/>
      <point x="200" y="1269"/>
      <point x="218" y="1423"/>
      <point x="279" y="1536"/>
      <point x="398" y="1600"/>
      <point x="500" y="1600" type="qcurve"/>
      <point x="519" y="1600"/>
      <point x="561" y="1597"/>
      <point x="599" y="1591"/>
      <point x="630" y="1581"/>
      <point x="639" y="1575" type="qcurve"/>
      <point x="570" y="1449" type="line"/>
      <point x="564" y="1450"/>
      <point x="556" y="1451" type="qcurve"/>
      <point x="549" y="1452"/>
      <point x="531" y="1454"/>
      <point x="520" y="1454" type="qcurve"/>
      <point x="476" y="1454"/>
      <point x="427" y="1412"/>
      <point x="404" y="1340"/>
      <point x="400" y="1246"/>
      <point x="400" y="1194" type="qcurve"/>
      <point x="400" y="-14" type="line"/>
      <point x="400" y="-66"/>
      <point x="404" y="-160"/>
      <point x="427" y="-232"/>
      <point x="476" y="-274"/>
      <point x="520" y="-274" type="qcurve"/>
      <point x="531" y="-274"/>
      <point x="549" y="-273"/>
      <point x="556" y="-272" type="qcurve"/>
      <point x="564" y="-271"/>
      <point x="570" y="-269" type="qcurve"/>
      <point x="639" y="-395" type="line"/>
      <point x="630" y="-401"/>
      <point x="599" y="-411"/>
      <point x="561" y="-417"/>
      <point x="519" y="-420"/>
      <point x="500" y="-420" type="qcurve"/>
      <point x="398" y="-420"/>
      <point x="279" y="-356"/>
      <point x="218" y="-243"/>
      <point x="200" y="-89"/>
      <point x="200" y="0" type="qcurve"/>
    </contour>
  </outline>
</glyph>
<glyph name="one" format="1">
  <advance width="1300"/>
  <unicode hex="0031"/>
  <outline>
    <contour>
      <point x="350" y="0" type="line" name="ab01"/>
      <point x="350" y="160" type="line" name="sh01"/>
      <point x="595" y="160" type="line" name="dh01"/>
      <point x="595" y="1126" type="line"/>
      <point x="653" y="1353" type="line" name="ih01"/>
      <point x="517" y="1167" type="line" name="fh01"/>
      <point x="305" y="979" type="line" name="fh02"/>
      <point x="197" y="1100" type="line" name="fh03"/>
      <point x="655" y="1520" type="line" name="at01"/>
      <point x="805" y="1500" type="line"/>
      <point x="805" y="160" type="line" name="dh02"/>
      <point x="1050" y="160" type="line" name="sh02"/>
      <point x="1050" y="0" type="line" name="ab02"/>
    </contour>
  </outline>
</glyph>
<glyph name="two" format="1">
  <advance width="1300"/>
  <unicode hex="0032"/>
  <outline>
    <contour>
      <point x="152" y="0" type="line" name="sh01"/>
      <point x="152" y="168" type="line"/>
      <point x="200" y="244"/>
      <point x="311" y="391"/>
      <point x="424" y="528"/>
      <point x="534" y="651"/>
      <point x="580" y="702" type="qcurve" name="mh01"/>
      <point x="631" y="758"/>
      <point x="723" y="857"/>
      <point x="793" y="955"/>
      <point x="835" y="1056"/>
      <point x="835" y="1115" type="qcurve" name="dh01"/>
      <point x="835" y="1163"/>
      <point x="799" y="1248"/>
      <point x="734" y="1311"/>
      <point x="644" y="1348"/>
      <point x="590" y="1348" type="qcurve" name="sv01"/>
      <point x="529" y="1348"/>
      <point x="440" y="1315"/>
      <point x="373" y="1261"/>
      <point x="324" y="1194"/>
      <point x="303" y="1160" type="qcurve"/>
      <point x="162" y="1220" type="line"/>
      <point x="188" y="1285"/>
      <point x="269" y="1394"/>
      <point x="379" y="1473"/>
      <point x="519" y="1517"/>
      <point x="605" y="1517" type="qcurve" name="at01"/>
      <point x="706" y="1517"/>
      <point x="864" y="1445"/>
      <point x="973" y="1328"/>
      <point x="1030" y="1180"/>
      <point x="1030" y="1104" type="qcurve" name="dh02"/>
      <point x="1030" y="1027"/>
      <point x="973" y="888"/>
      <point x="888" y="763"/>
      <point x="790" y="653"/>
      <point x="749" y="605" type="qcurve"/>
      <point x="697" y="544"/>
      <point x="593" y="426"/>
      <point x="498" y="313"/>
      <point x="416" y="208"/>
      <point x="386" y="160" type="qcurve" name="mh02"/>
      <point x="1056" y="160" type="line"/>
      <point x="1056" y="0" type="line"/>
    </contour>
  </outline>
</glyph>
<glyph name="three" format="1">
  <advance width="1300"/>
  <unicode hex="0033"/>
  <outline>
    <contour>
      <point x="215" y="1340" type="line" name="sv01"/>
      <point x="230" y="1500" type="line" name="at01"/>
      <point x="960" y="1500" type="line"/>
      <point x="960" y="1360" type="line"/>
      <point x="948" y="1320"/>
      <point x="891" y="1233" name="fh01"/>
      <point x="814" y="1145" name="fh02"/>
      <point x="723" y="1058" name="fh03"/>
      <point x="677" y="1019" type="qcurve" name="fh04"/>
      <point x="545" y="945" type="line"/>
      <point x="555" y="947"/>
      <point x="586" y="948"/>
      <point x="600" y="948" type="qcurve" name="dv01"/>
      <point x="697" y="948"/>
      <point x="864" y="900"/>
      <point x="987" y="803"/>
      <point x="1058" y="654"/>
      <point x="1058" y="553" type="qcurve" name="dh02"/>
      <point x="1058" y="456"/>
      <point x="986" y="298"/>
      <point x="861" y="175"/>
      <point x="693" y="86"/>
      <point x="502" y="28"/>
      <point x="298" y="0"/>
      <point x="200" y="0" type="qcurve" name="ab01"/>
      <point x="200" y="160" type="line" name="dh04"/>
      <point x="283" y="163"/>
      <point x="443" y="187"/>
      <point x="587" y="230"/>
      <point x="709" y="292"/>
      <point x="798" y="375"/>
      <point x="848" y="479"/>
      <point x="848" y="543" type="qcurve" name="dh01"/>
      <point x="848" y="615"/>
      <point x="787" y="711"/>
      <point x="681" y="767"/>
      <point x="538" y="790"/>
      <point x="456" y="790" type="qcurve" name="dv02"/>
      <point x="424" y="790"/>
      <point x="349" y="787"/>
      <point x="319" y="785" type="qcurve" name="dh03"/>
      <point x="319" y="940" type="line"/>
      <point x="360" y="970" name="fh05"/>
      <point x="456" y="1046" name="fh06"/>
      <point x="554" y="1129" name="fh07"/>
      <point x="647" y="1214" name="fh08"/>
      <point x="723" y="1291" name="fh09"/>
      <point x="775" y="1357" name="fh10"/>
      <point x="783" y="1380" type="qcurve" name="iv01"/>
      <point x="631" y="1340" type="line"/>
    </contour>
  </outline>
</glyph>
<glyph name="four" format="1">
  <advance width="1300"/>
  <unicode hex="0034"/>
  <outline>
    <contour>
      <point x="1085" y="300" type="line" name="dv01"/>
      <point x="905" y="300" type="line"/>
      <point x="905" y="0" type="line" name="dh02"/>
      <point x="695" y="0" type="line" name="dh01"/>
      <point x="695" y="300" type="line" name="sv01"/>
      <point x="100" y="300" type="line"/>
      <point x="100" y="471" type="line" name="sh01"/>
      <point x="584" y="1520" type="line" name="at01"/>
      <point x="773" y="1500" type="line" name="ih01"/>
      <point x="358" y="600" type="line"/>
      <point x="265" y="460" type="line"/>
      <point x="695" y="460" type="line" name="sh02"/>
      <point x="695" y="867" type="line"/>
      <point x="905" y="850" type="line" name="sh03"/>
      <point x="905" y="460" type="line"/>
      <point x="1100" y="460" type="line" name="dv02"/>
    </contour>
  </outline>
</glyph>
<glyph name="six" format="1">
  <advance width="1300"/>
  <unicode hex="0036"/>
  <outline>
    <contour>
      <point x="929" y="1344" type="line" name="sh01"/>
      <point x="922" y="1346"/>
      <point x="895" y="1347"/>
      <point x="884" y="1347" type="qcurve" name="sv01"/>
      <point x="812" y="1347"/>
      <point x="676" y="1302"/>
      <point x="556" y="1220"/>
      <point x="455" y="1106"/>
      <point x="378" y="969"/>
      <point x="328" y="813"/>
      <point x="320" y="730" type="qcurve" name="sh04"/>
      <point x="403" y="847" type="line"/>
      <point x="428" y="863"/>
      <point x="495" y="892"/>
      <point x="569" y="914"/>
      <point x="645" y="927"/>
      <point x="679" y="927" type="qcurve" name="dv02"/>
      <point x="766" y="927"/>
      <point x="927" y="879"/>
      <point x="1052" y="779"/>
      <point x="1127" y="622"/>
      <point x="1127" y="513" type="qcurve" name="sh05"/>
      <point x="1127" y="405"/>
      <point x="1054" y="212"/>
      <point x="922" y="67"/>
      <point x="738" y="-17"/>
      <point x="626" y="-17" type="qcurve" name="ab01"/>
      <point x="528" y="-17"/>
      <point x="377" y="46"/>
      <point x="265" y="150"/>
      <point x="190" y="284"/>
      <point x="143" y="425"/>
      <point x="123" y="563"/>
      <point x="123" y="620" type="qcurve" name="sh02"/>
      <point x="123" y="739"/>
      <point x="172" y="965"/>
      <point x="265" y="1164"/>
      <point x="399" y="1331"/>
      <point x="570" y="1450"/>
      <point x="775" y="1517"/>
      <point x="893" y="1517" type="qcurve" name="at01"/>
      <point x="908" y="1517"/>
      <point x="944" y="1516"/>
      <point x="954" y="1514" type="qcurve" name="at02"/>
    </contour>
    <contour>
      <point x="329" y="597" type="qcurve" name="sh03"/>
      <point x="329" y="569"/>
      <point x="330" y="523"/>
      <point x="335" y="479"/>
      <point x="343" y="434"/>
      <point x="350" y="407" type="qcurve"/>
      <point x="364" y="350"/>
      <point x="412" y="257"/>
      <point x="481" y="190"/>
      <point x="572" y="153"/>
      <point x="629" y="153" type="qcurve" name="sv02"/>
      <point x="708" y="153"/>
      <point x="819" y="213"/>
      <point x="889" y="312"/>
      <point x="922" y="438"/>
      <point x="922" y="503" type="qcurve" name="ah01"/>
      <point x="922" y="566"/>
      <point x="885" y="662"/>
      <point x="817" y="725"/>
      <point x="722" y="757"/>
      <point x="664" y="757" type="qcurve" name="dv01"/>
      <point x="610" y="757"/>
      <point x="508" y="731"/>
      <point x="419" y="687"/>
      <point x="350" y="629"/>
    </contour>
  </outline>
</glyph>
<glyph name="eight" format="1">
  <advance width="1300"/>
  <unicode hex="0038"/>
  <outline>
    <contour>
      <point x="611" y="1517" type="qcurve" name="at01"/>
      <point x="702" y="1517"/>
      <point x="858" y="1467"/>
      <point x="971" y="1373"/>
      <point x="1035" y="1239"/>
      <point x="1035" y="1155" type="qcurve" name="ih01"/>
      <point x="1035" y="1096"/>
      <point x="1000" y="1004"/>
      <point x="940" y="931"/>
      <point x="861" y="872"/>
      <point x="817" y="846" type="qcurve" name="ih02"/>
      <point x="891" y="813"/>
      <point x="1008" y="728"/>
      <point x="1089" y="621"/>
      <point x="1132" y="489"/>
      <point x="1132" y="410" type="qcurve" name="dh04"/>
      <point x="1132" y="299"/>
      <point x="1044" y="138"/>
      <point x="899" y="33"/>
      <point x="714" y="-17"/>
      <point x="617" y="-17" type="qcurve" name="ab01"/>
      <point x="522" y="-17"/>
      <point x="346" y="40"/>
      <point x="211" y="151"/>
      <point x="129" y="316"/>
      <point x="129" y="424" type="qcurve" name="dh01"/>
      <point x="129" y="504"/>
      <point x="175" y="634"/>
      <point x="255" y="738"/>
      <point x="365" y="819"/>
      <point x="429" y="850" type="qcurve" name="ih03"/>
      <point x="382" y="879"/>
      <point x="301" y="941"/>
      <point x="240" y="1012"/>
      <point x="205" y="1094"/>
      <point x="205" y="1144" type="qcurve" name="ih04"/>
      <point x="205" y="1241"/>
      <point x="282" y="1382"/>
      <point x="402" y="1473"/>
      <point x="545" y="1517"/>
    </contour>
    <contour>
      <point x="600" y="760" type="qcurve" name="mv01"/>
      <point x="537" y="733"/>
      <point x="436" y="668"/>
      <point x="365" y="585"/>
      <point x="326" y="481"/>
      <point x="326" y="414" type="qcurve" name="dh02"/>
      <point x="326" y="354"/>
      <point x="375" y="256"/>
      <point x="456" y="185"/>
      <point x="562" y="147"/>
      <point x="618" y="147" type="qcurve" name="sv01"/>
      <point x="682" y="147"/>
      <point x="797" y="182"/>
      <point x="884" y="250"/>
      <point x="934" y="350"/>
      <point x="934" y="415" type="qcurve" name="dh03"/>
      <point x="934" y="482"/>
      <point x="875" y="587"/>
      <point x="780" y="670"/>
      <point x="661" y="734"/>
    </contour>
    <contour>
      <point x="641" y="923" type="qcurve" name="iv01"/>
      <point x="733" y="964"/>
      <point x="842" y="1080"/>
      <point x="842" y="1163" type="qcurve" name="sh01"/>
      <point x="842" y="1213"/>
      <point x="801" y="1285"/>
      <point x="739" y="1331"/>
      <point x="664" y="1352"/>
      <point x="630" y="1352" type="qcurve" name="sv02"/>
      <point x="585" y="1352"/>
      <point x="501" y="1325"/>
      <point x="437" y="1275"/>
      <point x="398" y="1207"/>
      <point x="398" y="1167" type="qcurve" name="sh02"/>
      <point x="398" y="1121"/>
      <point x="437" y="1050"/>
      <point x="504" y="993"/>
      <point x="592" y="945"/>
    </contour>
  </outline>
</glyph>
<glyph name="question" format="1">
  <advance width="1100"/>
  <unicode hex="003F"/>
  <outline>
    <contour>
      <point x="1000" y="1144" type="curve" smooth="yes" name="hr00"/>
      <point x="1000" y="1400"/>
      <point x="786" y="1517"/>
      <point x="560" y="1517" type="curve" smooth="yes"/>
      <point x="420" y="1517"/>
      <point x="239" y="1477"/>
      <point x="107" y="1300" type="curve"/>
      <point x="240" y="1190" type="line"/>
      <point x="315" y="1290"/>
      <point x="433" y="1351"/>
      <point x="535" y="1351" type="curve" smooth="yes"/>
      <point x="677" y="1351"/>
      <point x="790" y="1292"/>
      <point x="790" y="1152" type="curve" smooth="yes"/>
      <point x="790" y="900"/>
      <point x="395" y="903"/>
      <point x="395" y="429" type="curve"/>
      <point x="605" y="450" type="line"/>
      <point x="605" y="783"/>
      <point x="1000" y="807"/>
    </contour>
    <contour>
      <point x="369" y="120" type="qcurve"/>
      <point x="369" y="147"/>
      <point x="390" y="195"/>
      <point x="426" y="231"/>
      <point x="473" y="252"/>
      <point x="500" y="252" type="qcurve"/>
      <point x="527" y="252"/>
      <point x="575" y="231"/>
      <point x="611" y="195"/>
      <point x="632" y="147"/>
      <point x="632" y="120" type="qcurve"/>
      <point x="632" y="93"/>
      <point x="611" y="44"/>
      <point x="576" y="8"/>
      <point x="529" y="-14"/>
      <point x="502" y="-14" type="qcurve"/>
      <point x="474" y="-14"/>
      <point x="426" y="8"/>
      <point x="390" y="44"/>
      <point x="369" y="93"/>
    </contour>
  </outline>
</glyph>
<glyph name="at" format="1">
  <advance width="2000"/>
  <unicode hex="0040"/>
  <outline>
    <contour>
      <point x="1005" y="1517" type="curve" smooth="yes"/>
      <point x="464" y="1517"/>
      <point x="172" y="1088"/>
      <point x="172" y="552" type="curve" smooth="yes"/>
      <point x="172" y="29"/>
      <point x="472" y="-417"/>
      <point x="1005" y="-417" type="curve" smooth="yes"/>
      <point x="1155" y="-417"/>
      <point x="1282" y="-388"/>
      <point x="1399" y="-326" type="curve"/>
      <point x="1319" y="-176" type="line"/>
      <point x="1267" y="-212"/>
      <point x="1147" y="-257"/>
      <point x="1013" y="-257" type="curve" smooth="yes"/>
      <point x="554" y="-257"/>
      <point x="381" y="175"/>
      <point x="381" y="597" type="curve" smooth="yes"/>
      <point x="381" y="987"/>
      <point x="567" y="1356"/>
      <point x="997" y="1356" type="curve" smooth="yes"/>
      <point x="1449" y="1356"/>
      <point x="1634" y="978"/>
      <point x="1634" y="513" type="curve" smooth="yes"/>
      <point x="1634" y="435"/>
      <point x="1613" y="88"/>
      <point x="1493" y="88" type="curve" smooth="yes"/>
      <point x="1439" y="88"/>
      <point x="1400" y="136"/>
      <point x="1400" y="179" type="curve" smooth="yes"/>
      <point x="1400" y="690" type="line" smooth="yes"/>
      <point x="1400" y="935"/>
      <point x="1323" y="1097"/>
      <point x="1025" y="1097" type="curve" smooth="yes"/>
      <point x="813" y="1097"/>
      <point x="665" y="1024"/>
      <point x="665" y="1024" type="curve"/>
      <point x="737" y="890" type="line"/>
      <point x="737" y="890"/>
      <point x="872" y="937"/>
      <point x="1015" y="937" type="curve" smooth="yes"/>
      <point x="1184" y="937"/>
      <point x="1220" y="853"/>
      <point x="1220" y="705" type="curve" smooth="yes"/>
      <point x="1220" y="670" type="line"/>
      <point x="1220" y="670"/>
      <point x="1135" y="710"/>
      <point x="985" y="710" type="curve" smooth="yes"/>
      <point x="801" y="710"/>
      <point x="580" y="591"/>
      <point x="580" y="344" type="curve" smooth="yes"/>
      <point x="580" y="109"/>
      <point x="755" y="-17"/>
      <point x="956" y="-17" type="curve" smooth="yes"/>
      <point x="1006" y="-17"/>
      <point x="1080" y="16"/>
      <point x="1126" y="50" type="curve"/>
      <point x="1221" y="162" type="line"/>
      <point x="1231" y="12"/>
      <point x="1351" y="-44"/>
      <point x="1498" y="-44" type="curve" smooth="yes"/>
      <point x="1786" y="-44"/>
      <point x="1833" y="264"/>
      <point x="1833" y="591" type="curve" smooth="yes"/>
      <point x="1833" y="1096"/>
      <point x="1517" y="1517"/>
    </contour>
    <contour>
      <point x="1220" y="274" type="line"/>
      <point x="1220" y="274"/>
      <point x="1067" y="143"/>
      <point x="964" y="143" type="curve" smooth="yes"/>
      <point x="854" y="143"/>
      <point x="770" y="225"/>
      <point x="770" y="345" type="curve" smooth="yes"/>
      <point x="770" y="494"/>
      <point x="877" y="550"/>
      <point x="1025" y="550" type="curve" smooth="yes"/>
      <point x="1125" y="550"/>
      <point x="1220" y="533"/>
      <point x="1220" y="533" type="curve"/>
    </contour>
  </outline>
</glyph>
<glyph name="A" format="1">
  <advance width="1300"/>
  <unicode hex="0041"/>
  <outline>
    <contour>
      <point x="62" y="0" type="line" name="sh02"/>
      <point x="485" y="1300" type="line"/>
      <point x="520" y="1500" type="line"/>
      <point x="737" y="1520" type="line" name="at01"/>
      <point x="1235" y="0" type="line" name="sh04"/>
      <point x="1035" y="0" type="line" name="sh03"/>
      <point x="887" y="450" type="line" name="dv01"/>
      <point x="392" y="450" type="line"/>
      <point x="246" y="0" type="line" name="sh01"/>
    </contour>
    <contour>
      <point x="639" y="1360" type="line" name="ah01"/>
      <point x="603" y="1100" type="line"/>
      <point x="441" y="600" type="line"/>
      <point x="838" y="600" type="line" name="ih01"/>
      <point x="675" y="1100" type="line"/>
    </contour>
  </outline>
</glyph>
<glyph name="C" format="1">
  <advance width="1200"/>
  <unicode hex="0043"/>
  <outline>
    <contour>
      <point x="1106" y="104" type="line" name="fh01"/>
      <point x="1024" y="38"/>
      <point x="826" y="-17"/>
      <point x="708" y="-17" type="qcurve" name="ab01"/>
      <point x="564" y="-17"/>
      <point x="334" y="108"/>
      <point x="174" y="322"/>
      <point x="89" y="608"/>
      <point x="89" y="770" type="qcurve" name="dh01"/>
      <point x="89" y="921"/>
      <point x="166" y="1192"/>
      <point x="324" y="1397"/>
      <point x="566" y="1517"/>
      <point x="731" y="1517" type="qcurve" name="at01"/>
      <point x="846" y="1517"/>
      <point x="1051" y="1444"/>
      <point x="1123" y="1375" type="qcurve" name="fh02"/>
      <point x="1033" y="1268" type="line" name="fh03"/>
      <point x="985" y="1300"/>
      <point x="840" y="1348"/>
      <point x="747" y="1348" type="qcurve" name="sv01"/>
      <point x="625" y="1348"/>
      <point x="455" y="1256"/>
      <point x="347" y="1099"/>
      <point x="298" y="890"/>
      <point x="298" y="773" type="qcurve" name="dh02"/>
      <point x="298" y="704"/>
      <point x="320" y="559"/>
      <point x="365" y="421"/>
      <point x="436" y="299"/>
      <point x="533" y="207"/>
      <point x="657" y="153"/>
      <point x="734" y="153" type="qcurve" name="sv02"/>
      <point x="779" y="153"/>
      <point x="853" y="161"/>
      <point x="922" y="179"/>
      <point x="990" y="208"/>
      <point x="1029" y="230" type="qcurve" name="fh04"/>
    </contour>
  </outline>
</glyph>
<glyph name="D" format="1">
  <advance width="1300"/>
  <unicode hex="0044"/>
  <outline>
    <contour>
      <point x="170" y="1500" type="line" name="at01"/>
      <point x="201" y="1503"/>
      <point x="287" y="1507"/>
      <point x="378" y="1510"/>
      <point x="467" y="1511"/>
      <point x="500" y="1511" type="qcurve" name="at02"/>
      <point x="659" y="1511"/>
      <point x="930" y="1433"/>
      <point x="1128" y="1263"/>
      <point x="1240" y="997"/>
      <point x="1240" y="810" type="qcurve" name="sh01"/>
      <point x="1240" y="664"/>
      <point x="1184" y="431"/>
      <point x="1085" y="251"/>
      <point x="946" y="122"/>
      <point x="779" y="39"/>
      <point x="591" y="0"/>
      <point x="491" y="0" type="qcurve" name="ab01"/>
      <point x="200" y="0" type="line" name="sh02"/>
      <point x="200" y="1290" type="line"/>
    </contour>
    <contour>
      <point x="410" y="1150" type="line"/>
      <point x="410" y="160" type="line" name="sh03"/>
      <point x="430" y="160" type="line"/>
      <point x="575" y="160"/>
      <point x="777" y="220"/>
      <point x="910" y="319"/>
      <point x="985" y="448"/>
      <point x="1022" y="586"/>
      <point x="1030" y="722"/>
      <point x="1030" y="780" type="qcurve" name="ah01"/>
      <point x="1030" y="907"/>
      <point x="986" y="1120"/>
      <point x="868" y="1273"/>
      <point x="657" y="1358"/>
      <point x="491" y="1358" type="qcurve" name="sv01"/>
      <point x="475" y="1358"/>
      <point x="439" y="1356"/>
      <point x="423" y="1354" type="qcurve" name="sh04"/>
      <point x="405" y="1352"/>
      <point x="385" y="1350" type="qcurve" name="sv02"/>
    </contour>
  </outline>
</glyph>
<glyph name="P" format="1">
  <advance width="1200"/>
  <unicode hex="0050"/>
  <outline>
    <contour>
      <point x="400" y="0" type="line" name="sh02"/>
      <point x="190" y="0" type="line" name="sh01"/>
      <point x="190" y="1290" type="line"/>
      <point x="155" y="1490" type="line"/>
      <point x="185" y="1495"/>
      <point x="272" y="1503"/>
      <point x="370" y="1509"/>
      <point x="468" y="1512"/>
      <point x="507" y="1512" type="qcurve" name="at01"/>
      <point x="622" y="1512"/>
      <point x="833" y="1471"/>
      <point x="995" y="1375"/>
      <point x="1091" y="1219"/>
      <point x="1091" y="1104" type="qcurve" name="sh03"/>
      <point x="1091" y="964"/>
      <point x="991" y="779"/>
      <point x="809" y="669"/>
      <point x="554" y="624"/>
      <point x="400" y="624" type="qcurve" name="dv01"/>
    </contour>
    <contour>
      <point x="400" y="1147" type="line" name="sh04"/>
      <point x="400" y="765" type="line" name="dv02"/>
      <point x="520" y="765"/>
      <point x="706" y="793"/>
      <point x="834" y="866"/>
      <point x="900" y="994"/>
      <point x="900" y="1095" type="qcurve" name="ah01"/>
      <point x="900" y="1170"/>
      <point x="837" y="1276"/>
      <point x="737" y="1344"/>
      <point x="613" y="1375"/>
      <point x="552" y="1375" type="qcurve" name="sv01"/>
      <point x="535" y="1375"/>
      <point x="488" y="1372"/>
      <point x="440" y="1368"/>
      <point x="395" y="1362"/>
      <point x="380" y="1359" type="qcurve"/>
    </contour>
  </outline>
</glyph>
<glyph name="Q" format="1">
  <advance width="1600"/>
  <unicode hex="0051"/>
  <outline>
    <contour>
      <point x="1404" y="-145" type="line" name="dv01"/>
      <point x="1348" y="-145"/>
      <point x="1237" y="-130"/>
      <point x="1131" y="-78"/>
      <point x="1031" y="19"/>
      <point x="987" y="102" type="qcurve"/>
      <point x="982" y="111"/>
      <point x="972" y="129"/>
      <point x="967" y="137" type="qcurve"/>
      <point x="957" y="-1" type="line" name="fh01"/>
      <point x="920" y="-9"/>
      <point x="842" y="-17"/>
      <point x="800" y="-17" type="qcurve" name="ab01"/>
      <point x="642" y="-17"/>
      <point x="392" y="99"/>
      <point x="217" y="304"/>
      <point x="124" y="585"/>
      <point x="124" y="750" type="qcurve" name="dh01"/>
      <point x="124" y="915"/>
      <point x="214" y="1196"/>
      <point x="387" y="1401"/>
      <point x="639" y="1517"/>
      <point x="800" y="1517" type="qcurve" name="at01"/>
      <point x="957" y="1517"/>
      <point x="1208" y="1401"/>
      <point x="1383" y="1196"/>
      <point x="1476" y="915"/>
      <point x="1476" y="750" type="qcurve" name="dh04"/>
      <point x="1476" y="645"/>
      <point x="1439" y="454"/>
      <point x="1367" y="289"/>
      <point x="1262" y="153"/>
      <point x="1194" y="103" type="qcurve"/>
      <point x="1223" y="66"/>
      <point x="1278" y="25"/>
      <point x="1341" y="4"/>
      <point x="1414" y="-1"/>
      <point x="1461" y="-1" type="qcurve" name="dv02"/>
    </contour>
    <contour>
      <point x="1268" y="719" type="qcurve" name="dh03"/>
      <point x="1268" y="799"/>
      <point x="1246" y="954"/>
      <point x="1198" y="1093"/>
      <point x="1122" y="1212"/>
      <point x="1017" y="1298"/>
      <point x="880" y="1347"/>
      <point x="794" y="1347" type="qcurve" name="sv01"/>
      <point x="671" y="1347"/>
      <point x="496" y="1252"/>
      <point x="384" y="1094"/>
      <point x="332" y="892"/>
      <point x="332" y="785" type="qcurve" name="dh02"/>
      <point x="332" y="704"/>
      <point x="355" y="548"/>
      <point x="403" y="407"/>
      <point x="478" y="288"/>
      <point x="583" y="202"/>
      <point x="720" y="153"/>
      <point x="806" y="153" type="qcurve" name="sv02"/>
      <point x="844" y="153"/>
      <point x="914" y="163"/>
      <point x="945" y="172" type="qcurve" name="iv01"/>
      <point x="916" y="217" name="fh02"/>
      <point x="861" y="269" name="fh03"/>
      <point x="801" y="295"/>
      <point x="729" y="301"/>
      <point x="682" y="301" type="qcurve" name="dv03"/>
      <point x="739" y="445" type="line" name="dv04"/>
      <point x="794" y="445"/>
      <point x="898" y="421"/>
      <point x="999" y="361"/>
      <point x="1097" y="257"/>
      <point x="1145" y="177" type="qcurve" name="iv02"/>
      <point x="1145" y="314" type="line" name="fh04"/>
      <point x="1209" y="395"/>
      <point x="1268" y="607"/>
    </contour>
  </outline>
</glyph>
<glyph name="R" format="1">
  <advance width="1300"/>
  <unicode hex="0052"/>
  <outline>
    <contour>
      <point x="400" y="614" type="line" name="dv01"/>
      <point x="400" y="0" type="line" name="sh02"/>
      <point x="190" y="0" type="line" name="sh01"/>
      <point x="190" y="1290" type="line"/>
      <point x="155" y="1490" type="line"/>
      <point x="188" y="1494"/>
      <point x="281" y="1502"/>
      <point x="382" y="1508"/>
      <point x="484" y="1512"/>
      <point x="527" y="1512" type="qcurve" name="at01"/>
      <point x="653" y="1512"/>
      <point x="861" y="1459" name="fh01"/>
      <point x="1009" y="1355"/>
      <point x="1091" y="1200"/>
      <point x="1091" y="1099" type="qcurve" name="sh03"/>
      <point x="1091" y="994"/>
      <point x="1026" y="834"/>
      <point x="908" y="721"/>
      <point x="745" y="650"/>
      <point x="648" y="633" type="qcurve" name="ih01"/>
      <point x="790" y="593" type="line" name="fh02"/>
      <point x="1233" y="0" type="line" name="ab01"/>
      <point x="1010" y="0" type="line" name="fh03"/>
      <point x="567" y="595" type="line" name="fh04"/>
      <point x="556" y="609"/>
      <point x="528" y="614"/>
      <point x="520" y="614" type="qcurve"/>
    </contour>
    <contour>
      <point x="400" y="1147" type="line" name="sh04"/>
      <point x="400" y="765" type="line" name="dv02"/>
      <point x="548" y="765" type="line"/>
      <point x="639" y="765"/>
      <point x="773" y="816"/>
      <point x="861" y="903"/>
      <point x="905" y="1018"/>
      <point x="905" y="1083" type="qcurve" name="ah01"/>
      <point x="905" y="1168"/>
      <point x="841" y="1281"/>
      <point x="739" y="1348"/>
      <point x="613" y="1375"/>
      <point x="552" y="1375" type="qcurve" name="sv01"/>
      <point x="531" y="1375"/>
      <point x="485" y="1374"/>
      <point x="439" y="1372"/>
      <point x="396" y="1367"/>
      <point x="380" y="1364" type="qcurve" name="sv02"/>
    </contour>
  </outline>
</glyph>
<glyph name="S" format="1">
  <advance width="1100"/>
  <unicode hex="0053"/>
  <outline>
    <contour>
      <point x="870" y="1274" type="line" name="fh01"/>
      <point x="802" y="1314"/>
      <point x="677" y="1352"/>
      <point x="600" y="1352" type="qcurve" name="sv01"/>
      <point x="546" y="1352"/>
      <point x="443" y="1330"/>
      <point x="364" y="1281"/>
      <point x="315" y="1202"/>
      <point x="315" y="1145" type="qcurve" name="sh02"/>
      <point x="315" y="1089"/>
      <point x="375" y="1007"/>
      <point x="472" y="942"/>
      <point x="597" y="887" name="iv01"/>
      <point x="727" y="826"/>
      <point x="852" y="753"/>
      <point x="949" y="654"/>
      <point x="1009" y="522"/>
      <point x="1009" y="432" type="qcurve" name="sh03"/>
      <point x="1009" y="358"/>
      <point x="969" y="233"/>
      <point x="898" y="133"/>
      <point x="800" y="58"/>
      <point x="684" y="8"/>
      <point x="555" y="-17"/>
      <point x="488" y="-17" type="qcurve" name="ab01"/>
      <point x="255" y="-13"/>
      <point x="82" y="94" type="qcurve" name="fh02"/>
      <point x="173" y="244" type="line" name="fh03"/>
      <point x="193" y="231"/>
      <point x="258" y="198" name="fh04"/>
      <point x="338" y="168"/>
      <point x="428" y="148"/>
      <point x="474" y="148" type="qcurve" name="sv02"/>
      <point x="536" y="148"/>
      <point x="655" y="179"/>
      <point x="748" y="244"/>
      <point x="805" y="344"/>
      <point x="805" y="413" type="qcurve" name="ah01"/>
      <point x="805" y="478"/>
      <point x="745" y="575"/>
      <point x="648" y="652"/>
      <point x="523" y="714" name="iv02"/>
      <point x="393" y="776"/>
      <point x="268" y="844"/>
      <point x="171" y="930"/>
      <point x="111" y="1041"/>
      <point x="111" y="1116" type="qcurve" name="sh01"/>
      <point x="111" y="1213"/>
      <point x="191" y="1362"/>
      <point x="322" y="1464"/>
      <point x="488" y="1517"/>
      <point x="574" y="1517" type="qcurve" name="at01"/>
      <point x="787" y="1517"/>
      <point x="967" y="1397" type="qcurve" name="fh05"/>
    </contour>
  </outline>
</glyph>
<glyph name="U" format="1">
  <advance width="1400"/>
  <unicode hex="0055"/>
  <outline>
    <contour>
      <point x="1220" y="1500" type="line" name="at02"/>
      <point x="1220" y="523" type="line" name="sh01"/>
      <point x="1220" y="387"/>
      <point x="1138" y="184"/>
      <point x="995" y="50"/>
      <point x="799" y="-17"/>
      <point x="685" y="-17" type="qcurve" name="ih01"/>
      <point x="563" y="-17"/>
      <point x="375" y="68"/>
      <point x="247" y="223"/>
      <point x="180" y="441"/>
      <point x="180" y="573" type="qcurve" name="sh02"/>
      <point x="180" y="1290" type="line"/>
      <point x="150" y="1500" type="line"/>
      <point x="385" y="1520" type="line" name="at01"/>
      <point x="385" y="554" type="line" name="sh03"/>
      <point x="385" y="459"/>
      <point x="435" y="310"/>
      <point x="520" y="207"/>
      <point x="632" y="153"/>
      <point x="695" y="153" type="qcurve" name="ih02"/>
      <point x="768" y="153"/>
      <point x="887" y="197"/>
      <point x="970" y="285"/>
      <point x="1015" y="416"/>
      <point x="1015" y="504" type="qcurve" name="ah01"/>
      <point x="1015" y="1500" type="line"/>
    </contour>
  </outline>
</glyph>
<glyph name="V" format="1">
  <advance width="1300"/>
  <unicode hex="0056"/>
  <outline>
    <contour>
      <point x="585" y="500" type="line" name="hr00"/>
      <point x="673" y="140" type="line" name="ah01"/>
      <point x="721" y="454" type="line"/>
      <point x="1051" y="1500" type="line" name="sh01"/>
      <point x="1240" y="1500" type="line" name="sh02"/>
      <point x="821" y="180" type="line"/>
      <point x="795" y="-20" type="line" name="ab01"/>
      <point x="549" y="0" type="line" name="fh01"/>
      <point x="67" y="1500" type="line" name="sh04"/>
      <point x="262" y="1520" type="line" name="sh03"/>
    </contour>
  </outline>
</glyph>
<glyph name="asciicircum" format="1">
  <advance width="1500"/>
  <unicode hex="005E"/>
  <outline>
    <contour>
      <point x="1373" y="912" type="line"/>
      <point x="1172" y="912" type="line"/>
      <point x="794" y="1239" type="line"/>
      <point x="749" y="1350" type="line"/>
      <point x="705" y="1241" type="line"/>
      <point x="338" y="914" type="line"/>
      <point x="122" y="914" type="line"/>
      <point x="677" y="1500" type="line"/>
      <point x="806" y="1517" type="line"/>
    </contour>
  </outline>
</glyph>
<glyph name="underscore" format="1">
  <advance width="1100"/>
  <unicode hex="005F"/>
  <outline>
    <contour>
      <point x="0" y="-455" type="line"/>
      <point x="1100" y="-455" type="line"/>
      <point x="1100" y="-300" type="line"/>
      <point x="0" y="-300" type="line"/>
    </contour>
  </outline>
</glyph>
<glyph name="grave" format="1">
  <advance width="1100"/>
  <unicode hex="0060"/>
  <outline>
    <contour>
      <point x="660" y="1200" type="line" name="av01"/>
      <point x="510" y="1200" type="line"/>
      <point x="285" y="1500" type="line" name="iv01"/>
      <point x="489" y="1520" type="line" name="at01"/>
    </contour>
  </outline>
</glyph>
<glyph name="b" format="1">
  <advance width="1200"/>
  <unicode hex="0062"/>
  <outline>
    <contour>
      <point x="390" y="171" type="line" name="sh03"/>
      <point x="409" y="165"/>
      <point x="459" y="154"/>
      <point x="516" y="147"/>
      <point x="576" y="143"/>
      <point x="604" y="143" type="qcurve" name="sv01"/>
      <point x="665" y="143"/>
      <point x="758" y="183"/>
      <point x="826" y="250"/>
      <point x="871" y="341"/>
      <point x="899" y="442"/>
      <point x="910" y="550"/>
      <point x="910" y="601" type="qcurve" name="ah01"/>
      <point x="910" y="701"/>
      <point x="872" y="837"/>
      <point x="807" y="921"/>
      <point x="722" y="957"/>
      <point x="675" y="957" type="qcurve" name="sv02"/>
      <point x="596" y="957"/>
      <point x="452" y="896"/>
      <point x="390" y="845" type="qcurve"/>
    </contour>
    <contour>
      <point x="200" y="1420" type="line" name="sh01"/>
      <point x="180" y="1600" type="line"/>
      <point x="390" y="1620" type="line" name="sh02"/>
      <point x="390" y="974" type="line" name="iv01"/>
      <point x="475" y="1065" type="line"/>
      <point x="526" y="1089"/>
      <point x="638" y="1117"/>
      <point x="694" y="1117" type="qcurve" name="av01"/>
      <point x="777" y="1117"/>
      <point x="924" y="1049"/>
      <point x="1035" y="916"/>
      <point x="1100" y="722"/>
      <point x="1100" y="596" type="qcurve" name="sh04"/>
      <point x="1100" y="458"/>
      <point x="1025" y="232"/>
      <point x="890" y="71"/>
      <point x="705" y="-17"/>
      <point x="595" y="-17" type="qcurve" name="ab01"/>
      <point x="532" y="-17"/>
      <point x="410" y="-8"/>
      <point x="304" y="7"/>
      <point x="222" y="26"/>
      <point x="200" y="35" type="qcurve"/>
    </contour>
  </outline>
</glyph>
<glyph name="c" format="1">
  <advance width="1000"/>
  <unicode hex="0063"/>
  <outline>
    <contour>
      <point x="807" y="878" type="line" name="mh01"/>
      <point x="768" y="913"/>
      <point x="661" y="957"/>
      <point x="604" y="957" type="qcurve" name="sv01"/>
      <point x="520" y="957"/>
      <point x="402" y="894"/>
      <point x="329" y="786"/>
      <point x="295" y="643"/>
      <point x="295" y="564" type="qcurve" name="sh02"/>
      <point x="295" y="482"/>
      <point x="326" y="333"/>
      <point x="400" y="219"/>
      <point x="523" y="152"/>
      <point x="615" y="152" type="qcurve" name="sv02"/>
      <point x="692" y="152"/>
      <point x="799" y="188"/>
      <point x="828" y="208" type="qcurve" name="mh02"/>
      <point x="900" y="67" type="line" name="mh03"/>
      <point x="844" y="29"/>
      <point x="695" y="-17"/>
      <point x="601" y="-17" type="qcurve" name="mh04"/>
      <point x="476" y="-17"/>
      <point x="288" y="82" name="fh01"/>
      <point x="163" y="247"/>
      <point x="100" y="462"/>
      <point x="100" y="577" type="qcurve" name="sh01"/>
      <point x="100" y="681"/>
      <point x="161" y="876"/>
      <point x="286" y="1026" name="fh02"/>
      <point x="477" y="1117"/>
      <point x="606" y="1117" type="qcurve" name="av01"/>
      <point x="698" y="1117"/>
      <point x="843" y="1060"/>
      <point x="906" y="991" type="qcurve" name="mh05"/>
    </contour>
  </outline>
</glyph>
<glyph name="e" format="1">
  <advance width="1100"/>
  <unicode hex="0065"/>
  <outline>
    <contour>
      <point x="966" y="129" type="line" name="mh01"/>
      <point x="935" y="97"/>
      <point x="861" y="43"/>
      <point x="771" y="4"/>
      <point x="662" y="-17"/>
      <point x="595" y="-17" type="qcurve" name="ab01"/>
      <point x="462" y="-17"/>
      <point x="274" y="77"/>
      <point x="155" y="235"/>
      <point x="100" y="439"/>
      <point x="100" y="550" type="qcurve" name="sh01"/>
      <point x="100" y="621"/>
      <point x="126" y="760"/>
      <point x="178" y="886"/>
      <point x="256" y="994"/>
      <point x="360" y="1072"/>
      <point x="491" y="1117"/>
      <point x="570" y="1117" type="qcurve" name="av01"/>
      <point x="678" y="1117"/>
      <point x="836" y="1047"/>
      <point x="940" y="921"/>
      <point x="990" y="745"/>
      <point x="990" y="638" type="qcurve" name="dh02"/>
      <point x="990" y="607"/>
      <point x="986" y="533"/>
      <point x="982" y="500" type="qcurve" name="dv01"/>
      <point x="290" y="500" type="line" name="sh02"/>
      <point x="290" y="425"/>
      <point x="331" y="295"/>
      <point x="405" y="198"/>
      <point x="510" y="143"/>
      <point x="575" y="143" type="qcurve" name="mh02"/>
      <point x="639" y="143"/>
      <point x="734" y="162"/>
      <point x="802" y="189"/>
      <point x="845" y="217" name="mh03"/>
      <point x="857" y="225" type="qcurve" name="mh04"/>
    </contour>
    <contour>
      <point x="800" y="650" type="line" name="dh01"/>
      <point x="801" y="661"/>
      <point x="802" y="683"/>
      <point x="802" y="694" type="qcurve"/>
      <point x="802" y="751"/>
      <point x="776" y="847"/>
      <point x="723" y="918"/>
      <point x="641" y="958"/>
      <point x="585" y="958" type="qcurve" name="sv01"/>
      <point x="518" y="958"/>
      <point x="423" y="915"/>
      <point x="358" y="848"/>
      <point x="319" y="768"/>
      <point x="309" y="732" type="qcurve"/>
      <point x="257" y="623" type="line" name="ih01"/>
      <point x="435" y="650" type="line"/>
    </contour>
  </outline>
</glyph>
<glyph name="f" format="1">
  <advance width="800"/>
  <unicode hex="0066"/>
  <outline>
    <contour>
      <point x="50" y="1100" type="line" name="dv03"/>
      <point x="200" y="1100" type="line" name="sh01"/>
      <point x="200" y="1255" type="line"/>
      <point x="200" y="1340"/>
      <point x="237" y="1474"/>
      <point x="317" y="1567"/>
      <point x="442" y="1617"/>
      <point x="530" y="1617" type="qcurve" name="av01"/>
      <point x="575" y="1617"/>
      <point x="650" y="1602"/>
      <point x="713" y="1578"/>
      <point x="766" y="1546"/>
      <point x="787" y="1529" type="qcurve" name="mh01"/>
      <point x="702" y="1411" type="line"/>
      <point x="681" y="1426"/>
      <point x="607" y="1457"/>
      <point x="562" y="1457" type="qcurve" name="sv01"/>
      <point x="476" y="1457"/>
      <point x="385" y="1360"/>
      <point x="385" y="1245" type="qcurve" name="sh02"/>
      <point x="385" y="1100" type="line"/>
      <point x="675" y="1100" type="line" name="dv02"/>
      <point x="655" y="940" type="line" name="dv01"/>
      <point x="390" y="940" type="line" name="dh02"/>
      <point x="390" y="0" type="line" name="ab01"/>
      <point x="200" y="0" type="line"/>
      <point x="200" y="940" type="line" name="dh01"/>
      <point x="50" y="940" type="line" name="dv04"/>
    </contour>
  </outline>
</glyph>
<glyph name="j" format="1">
  <advance width="600"/>
  <unicode hex="006A"/>
  <outline>
    <contour>
      <point x="194" y="1500" type="line" name="sh01"/>
      <point x="396" y="1500" type="line" name="sh02"/>
      <point x="396" y="1300" type="line" name="sv01"/>
      <point x="194" y="1300" type="line"/>
    </contour>
    <contour>
      <point x="-22" y="-345" type="line"/>
      <point x="-11" y="-349"/>
      <point x="39" y="-357"/>
      <point x="70" y="-357" type="qcurve" name="sv02"/>
      <point x="107" y="-357"/>
      <point x="157" y="-318"/>
      <point x="187" y="-250"/>
      <point x="200" y="-159"/>
      <point x="200" y="-107" type="qcurve" name="dh01"/>
      <point x="200" y="1055" type="line"/>
      <point x="390" y="1075" type="line" name="av01"/>
      <point x="390" y="-97" type="line" name="dh02"/>
      <point x="390" y="-186"/>
      <point x="367" y="-340"/>
      <point x="299" y="-453"/>
      <point x="178" y="-517"/>
      <point x="80" y="-517" type="qcurve" name="ab01"/>
      <point x="19" y="-517"/>
      <point x="-50" y="-495"/>
      <point x="-61" y="-489" type="qcurve"/>
    </contour>
  </outline>
</glyph>
<glyph name="k" format="1">
  <advance width="1100"/>
  <unicode hex="006B"/>
  <outline>
    <contour>
      <point x="200" y="0" type="line" name="dh01"/>
      <point x="200" y="1420" type="line"/>
      <point x="180" y="1600" type="line"/>
      <point x="390" y="1620" type="line" name="sh01"/>
      <point x="390" y="690" type="line"/>
      <point x="760" y="1100" type="line" name="fh01"/>
      <point x="989" y="1100" type="line" name="sv01"/>
      <point x="619" y="690" type="line" name="fh02"/>
      <point x="451" y="627" type="line" name="av01"/>
      <point x="619" y="567" type="line" name="fh03"/>
      <point x="1100" y="0" type="line" name="ab01"/>
      <point x="864" y="0" type="line" name="fh04"/>
      <point x="390" y="557" type="line" name="iv01"/>
      <point x="390" y="0" type="line" name="dh02"/>
    </contour>
  </outline>
</glyph>
<glyph name="l" format="1">
  <advance width="700"/>
  <unicode hex="006C"/>
  <outline>
    <contour>
      <point x="390" y="376" type="line" name="dh02"/>
      <point x="390" y="310"/>
      <point x="405" y="221"/>
      <point x="434" y="166"/>
      <point x="477" y="143"/>
      <point x="505" y="143" type="qcurve" name="sv01"/>
      <point x="527" y="143"/>
      <point x="563" y="148"/>
      <point x="576" y="152" type="qcurve"/>
      <point x="591" y="156"/>
      <point x="603" y="161" type="qcurve"/>
      <point x="672" y="40" type="line" name="fh01"/>
      <point x="664" y="32"/>
      <point x="629" y="13"/>
      <point x="581" y="-5"/>
      <point x="520" y="-17"/>
      <point x="485" y="-17" type="qcurve" name="ab01"/>
      <point x="395" y="-17"/>
      <point x="283" y="49"/>
      <point x="221" y="163"/>
      <point x="200" y="314"/>
      <point x="200" y="400" type="qcurve" name="dh01"/>
      <point x="200" y="1400" type="line"/>
      <point x="180" y="1600" type="line"/>
      <point x="390" y="1620" type="line" name="av01"/>
    </contour>
  </outline>
</glyph>
<glyph name="s" format="1">
  <advance width="900"/>
  <unicode hex="0073"/>
  <outline>
    <contour>
      <point x="661" y="919" type="line" name="sh02"/>
      <point x="643" y="928"/>
      <point x="593" y="946"/>
      <point x="539" y="960"/>
      <point x="484" y="968"/>
      <point x="459" y="968" type="qcurve" name="sv01"/>
      <point x="353" y="968"/>
      <point x="265" y="905"/>
      <point x="265" y="842" type="qcurve" name="sh04"/>
      <point x="265" y="800"/>
      <point x="323" y="745"/>
      <point x="415" y="701"/>
      <point x="528" y="662" name="iv01"/>
      <point x="582" y="635" type="qcurve"/>
      <point x="621" y="616"/>
      <point x="701" y="564"/>
      <point x="765" y="494"/>
      <point x="805" y="406"/>
      <point x="805" y="351" type="qcurve" name="sh01"/>
      <point x="805" y="250"/>
      <point x="737" y="110"/>
      <point x="620" y="23"/>
      <point x="463" y="-17"/>
      <point x="374" y="-17" type="qcurve" name="ab01"/>
      <point x="340" y="-17"/>
      <point x="254" y="-4"/>
      <point x="168" y="19"/>
      <point x="90" y="51"/>
      <point x="64" y="69" type="qcurve"/>
      <point x="130" y="201" type="line" name="sh05"/>
      <point x="154" y="189"/>
      <point x="220" y="168"/>
      <point x="290" y="152"/>
      <point x="359" y="143"/>
      <point x="386" y="143" type="qcurve" name="sv02"/>
      <point x="432" y="143"/>
      <point x="517" y="162"/>
      <point x="582" y="204"/>
      <point x="621" y="271"/>
      <point x="621" y="320" type="qcurve" name="ah01"/>
      <point x="621" y="357"/>
      <point x="590" y="413"/>
      <point x="537" y="456"/>
      <point x="467" y="492"/>
      <point x="389" y="525" name="iv02"/>
      <point x="307" y="560"/>
      <point x="270" y="581" type="qcurve"/>
      <point x="235" y="601"/>
      <point x="170" y="649"/>
      <point x="120" y="709"/>
      <point x="90" y="784"/>
      <point x="90" y="832" type="qcurve" name="sh03"/>
      <point x="90" y="908"/>
      <point x="144" y="1017"/>
      <point x="242" y="1085"/>
      <point x="380" y="1117"/>
      <point x="463" y="1117" type="qcurve" name="av01"/>
      <point x="501" y="1117"/>
      <point x="575" y="1105"/>
      <point x="643" y="1086"/>
      <point x="699" y="1060"/>
      <point x="719" y="1047" type="qcurve"/>
    </contour>
  </outline>
</glyph>
<glyph name="t" format="1">
  <advance width="800"/>
  <unicode hex="0074"/>
  <outline>
    <contour>
      <point x="390" y="376" type="line" name="dh02"/>
      <point x="390" y="310"/>
      <point x="405" y="221"/>
      <point x="434" y="166"/>
      <point x="477" y="143"/>
      <point x="505" y="143" type="qcurve" name="sv01"/>
      <point x="527" y="143"/>
      <point x="563" y="148"/>
      <point x="576" y="152" type="qcurve"/>
      <point x="591" y="156"/>
      <point x="603" y="161" type="qcurve"/>
      <point x="672" y="40" type="line" name="fh01"/>
      <point x="664" y="32"/>
      <point x="629" y="13"/>
      <point x="581" y="-5"/>
      <point x="520" y="-17"/>
      <point x="485" y="-17" type="qcurve" name="ab01"/>
      <point x="395" y="-17"/>
      <point x="283" y="49"/>
      <point x="221" y="163"/>
      <point x="200" y="314"/>
      <point x="200" y="400" type="qcurve" name="dh01"/>
      <point x="200" y="940" type="line" name="sv02"/>
      <point x="50" y="940" type="line"/>
      <point x="50" y="1100" type="line"/>
      <point x="200" y="1100" type="line" name="sh01"/>
      <point x="200" y="1309" type="line" name="mv01"/>
      <point x="385" y="1420" type="line" name="sh02"/>
      <point x="385" y="1100" type="line" name="sv03"/>
      <point x="725" y="1100" type="line" name="av01"/>
      <point x="705" y="940" type="line" name="sv04"/>
      <point x="390" y="940" type="line"/>
    </contour>
  </outline>
</glyph>
<glyph name="u" format="1">
  <advance width="1200"/>
  <unicode hex="0075"/>
  <outline>
    <contour>
      <point x="810" y="1100" type="line" name="ah01"/>
      <point x="1000" y="1120" type="line" name="sh01"/>
      <point x="1000" y="0" type="line" name="ab01"/>
      <point x="810" y="0" type="line" name="sh02"/>
      <point x="810" y="163" type="line" name="ih01"/>
      <point x="749" y="56" type="line"/>
      <point x="731" y="44"/>
      <point x="682" y="18"/>
      <point x="620" y="-3"/>
      <point x="546" y="-17"/>
      <point x="505" y="-17" type="qcurve" name="ab02"/>
      <point x="425" y="-17"/>
      <point x="310" y="41"/>
      <point x="236" y="145"/>
      <point x="200" y="288"/>
      <point x="200" y="372" type="qcurve" name="sh03"/>
      <point x="200" y="1100" type="line"/>
      <point x="390" y="1120" type="line" name="av01"/>
      <point x="390" y="372" type="line" name="sh04"/>
      <point x="390" y="264"/>
      <point x="477" y="143"/>
      <point x="570" y="143" type="qcurve" name="sv01"/>
      <point x="604" y="143"/>
      <point x="670" y="165"/>
      <point x="732" y="199"/>
      <point x="787" y="239"/>
      <point x="810" y="258" type="qcurve"/>
    </contour>
  </outline>
</glyph>
<glyph name="y" format="1">
  <advance width="1100"/>
  <unicode hex="0079"/>
  <outline>
    <contour>
      <point x="602" y="364" type="line" name="hr00"/>
      <point x="871" y="1100" type="line" name="sh01"/>
      <point x="1051" y="1117" type="line" name="sh02"/>
      <point x="637" y="-17" type="line" name="ih01"/>
      <point x="606" y="-101"/>
      <point x="533" y="-267"/>
      <point x="441" y="-398"/>
      <point x="330" y="-480"/>
      <point x="262" y="-480" type="qcurve" name="av01"/>
      <point x="211" y="-480"/>
      <point x="113" y="-439"/>
      <point x="72" y="-403" type="qcurve"/>
      <point x="145" y="-296" type="line" name="ih02"/>
      <point x="162" y="-308"/>
      <point x="206" y="-328"/>
      <point x="230" y="-328" type="qcurve" name="sv01"/>
      <point x="263" y="-328"/>
      <point x="325" y="-277"/>
      <point x="382" y="-197"/>
      <point x="431" y="-97"/>
      <point x="451" y="-47" type="qcurve" name="ab01"/>
      <point x="34" y="1100" type="line" name="sh04"/>
      <point x="224" y="1117" type="line" name="sh03"/>
      <point x="498" y="364" type="line"/>
      <point x="550" y="132" type="line" name="ah01"/>
    </contour>
  </outline>
</glyph>
<glyph name="braceleft" format="1">
  <advance width="1298"/>
  <unicode hex="007B"/>
  <outline>
    <contour>
      <point x="228" y="625" type="line" name="hr00"/>
      <point x="350" y="625" type="line"/>
      <point x="399" y="632"/>
      <point x="458" y="672"/>
      <point x="490" y="736"/>
      <point x="500" y="825"/>
      <point x="500" y="880" type="qcurve"/>
      <point x="500" y="1119" type="line"/>
      <point x="500" y="1204"/>
      <point x="531" y="1350"/>
      <point x="607" y="1458"/>
      <point x="734" y="1519"/>
      <point x="830" y="1519" type="qcurve"/>
      <point x="876" y="1519"/>
      <point x="941" y="1512"/>
      <point x="992" y="1499"/>
      <point x="1033" y="1482"/>
      <point x="1054" y="1472" type="qcurve"/>
      <point x="991" y="1349" type="line"/>
      <point x="972" y="1360"/>
      <point x="907" y="1376"/>
      <point x="882" y="1376" type="qcurve"/>
      <point x="874" y="1376"/>
      <point x="858" y="1376"/>
      <point x="850" y="1374" type="qcurve"/>
      <point x="801" y="1367"/>
      <point x="742" y="1327"/>
      <point x="710" y="1263"/>
      <point x="700" y="1174"/>
      <point x="700" y="1119" type="qcurve"/>
      <point x="700" y="880" type="line"/>
      <point x="700" y="776"/>
      <point x="652" y="604"/>
      <point x="593" y="550" type="qcurve"/>
      <point x="623" y="523"/>
      <point x="663" y="452"/>
      <point x="689" y="367"/>
      <point x="700" y="271"/>
      <point x="700" y="220" type="qcurve"/>
      <point x="700" y="-20" type="line"/>
      <point x="700" y="-75"/>
      <point x="710" y="-164"/>
      <point x="742" y="-228"/>
      <point x="801" y="-268"/>
      <point x="850" y="-275" type="qcurve"/>
      <point x="858" y="-277"/>
      <point x="874" y="-277"/>
      <point x="882" y="-277" type="qcurve"/>
      <point x="907" y="-277"/>
      <point x="972" y="-261"/>
      <point x="991" y="-250" type="qcurve"/>
      <point x="1054" y="-373" type="line"/>
      <point x="1033" y="-383"/>
      <point x="992" y="-400"/>
      <point x="941" y="-413"/>
      <point x="876" y="-420"/>
      <point x="830" y="-420" type="qcurve"/>
      <point x="734" y="-420"/>
      <point x="607" y="-359"/>
      <point x="531" y="-251"/>
      <point x="500" y="-105"/>
      <point x="500" y="-20" type="qcurve"/>
      <point x="500" y="220" type="line"/>
      <point x="500" y="275"/>
      <point x="490" y="364"/>
      <point x="458" y="428"/>
      <point x="399" y="468"/>
      <point x="350" y="475" type="qcurve"/>
      <point x="228" y="475" type="line"/>
    </contour>
  </outline>
</glyph>
<glyph name="bar" format="1">
  <advance width="400"/>
  <unicode hex="007C"/>
  <outline>
    <contour>
      <point x="300" y="1520" type="line" name="at01"/>
      <point x="300" y="-400" type="line" name="dh02"/>
      <point x="100" y="-400" type="line" name="dh01"/>
      <point x="100" y="1500" type="line"/>
    </contour>
  </outline>
</glyph>
<glyph name="asciitilde" format="1">
  <advance width="1500"/>
  <unicode hex="007E"/>
  <outline>
    <contour>
      <point x="193" y="484" type="curve"/>
      <point x="223" y="634"/>
      <point x="367" y="805"/>
      <point x="531" y="805" type="curve" smooth="yes"/>
      <point x="713" y="805"/>
      <point x="843" y="616"/>
      <point x="987" y="616" type="curve" smooth="yes"/>
      <point x="1084" y="616"/>
      <point x="1139" y="713"/>
      <point x="1160" y="792" type="curve"/>
      <point x="1306" y="776" type="line"/>
      <point x="1280" y="611"/>
      <point x="1142" y="422"/>
      <point x="962" y="422" type="curve" smooth="yes"/>
      <point x="817" y="422"/>
      <point x="653" y="611"/>
      <point x="507" y="611" type="curve" smooth="yes"/>
      <point x="425" y="611"/>
      <point x="365" y="537"/>
      <point x="342" y="468" type="curve"/>
      <point x="342" y="468"/>
      <point x="193" y="484"/>
    </contour>
  </outline>
</glyph>
<glyph name="sterling" format="1">
  <advance width="1100"/>
  <unicode hex="00A3"/>
  <outline>
    <contour>
      <point x="250" y="850" type="line" name="hr00"/>
      <point x="411" y="850" type="line"/>
      <point x="456" y="1165" type="line"/>
      <point x="467" y="1241"/>
      <point x="511" y="1372"/>
      <point x="586" y="1466"/>
      <point x="696" y="1520"/>
      <point x="772" y="1520" type="qcurve"/>
      <point x="872" y="1520"/>
      <point x="1017" y="1454"/>
      <point x="1045" y="1428" type="qcurve"/>
      <point x="955" y="1327" type="line"/>
      <point x="886" y="1372"/>
      <point x="819" y="1372" type="qcurve"/>
      <point x="770" y="1372"/>
      <point x="705" y="1341"/>
      <point x="664" y="1281"/>
      <point x="641" y="1195"/>
      <point x="634" y="1141" type="qcurve"/>
      <point x="593" y="850" type="line"/>
      <point x="800" y="850" type="line"/>
      <point x="780" y="700" type="line"/>
      <point x="572" y="700" type="line"/>
      <point x="517" y="263"/>
      <point x="488" y="224" type="qcurve"/>
      <point x="400" y="104" type="line"/>
      <point x="562" y="147" type="line"/>
      <point x="1000" y="147" type="line"/>
      <point x="1000" y="0" type="line"/>
      <point x="54" y="0" type="line"/>
      <point x="74" y="147" type="line"/>
      <point x="212" y="147" type="line"/>
      <point x="247" y="147"/>
      <point x="325" y="247"/>
      <point x="390" y="700" type="qcurve"/>
      <point x="250" y="700" type="line"/>
    </contour>
  </outline>
</glyph>
<glyph name="yen" format="1">
  <advance width="1200"/>
  <unicode hex="00A5"/>
  <outline>
    <contour>
      <point x="100" y="550" type="line" name="hr00"/>
      <point x="495" y="550" type="line"/>
      <point x="495" y="645" type="line"/>
      <point x="467" y="700" type="line"/>
      <point x="100" y="700" type="line"/>
      <point x="100" y="850" type="line"/>
      <point x="390" y="850" type="line"/>
      <point x="59" y="1500" type="line"/>
      <point x="263" y="1520" type="line"/>
      <point x="551" y="954" type="line"/>
      <point x="630" y="705" type="line"/>
      <point x="660" y="935" type="line"/>
      <point x="948" y="1500" type="line"/>
      <point x="1140" y="1500" type="line"/>
      <point x="809" y="850" type="line"/>
      <point x="1100" y="850" type="line"/>
      <point x="1100" y="700" type="line"/>
      <point x="732" y="700" type="line"/>
      <point x="705" y="646" type="line"/>
      <point x="705" y="550" type="line"/>
      <point x="1100" y="550" type="line"/>
      <point x="1100" y="400" type="line"/>
      <point x="705" y="400" type="line"/>
      <point x="705" y="0" type="line"/>
      <point x="495" y="0" type="line"/>
      <point x="495" y="400" type="line"/>
      <point x="100" y="400" type="line"/>
    </contour>
  </outline>
</glyph>
<glyph name="section" format="1">
  <advance width="1000"/>
  <unicode hex="00A7"/>
  <outline>
    <contour>
      <point x="772" y="1351" type="line" name="hr00"/>
      <point x="724" y="1377"/>
      <point x="620" y="1393"/>
      <point x="563" y="1393" type="qcurve"/>
      <point x="514" y="1393"/>
      <point x="426" y="1371"/>
      <point x="359" y="1323"/>
      <point x="320" y="1249"/>
      <point x="320" y="1197" type="qcurve"/>
      <point x="320" y="1147"/>
      <point x="367" y="1069"/>
      <point x="445" y="1002"/>
      <point x="543" y="941"/>
      <point x="647" y="876"/>
      <point x="745" y="801"/>
      <point x="823" y="708"/>
      <point x="870" y="591"/>
      <point x="870" y="515" type="qcurve"/>
      <point x="870" y="422"/>
      <point x="798" y="296"/>
      <point x="736" y="257" type="qcurve"/>
      <point x="696" y="232"/>
      <point x="646" y="216" type="qcurve"/>
      <point x="662" y="204"/>
      <point x="678" y="192" type="qcurve"/>
      <point x="727" y="155"/>
      <point x="803" y="70"/>
      <point x="850" y="-29"/>
      <point x="850" y="-88" type="qcurve"/>
      <point x="850" y="-165"/>
      <point x="796" y="-288"/>
      <point x="694" y="-374"/>
      <point x="546" y="-420"/>
      <point x="451" y="-420" type="qcurve"/>
      <point x="368" y="-420"/>
      <point x="231" y="-389"/>
      <point x="164" y="-348" type="qcurve"/>
      <point x="224" y="-251" type="line"/>
      <point x="272" y="-277"/>
      <point x="376" y="-293"/>
      <point x="433" y="-293" type="qcurve"/>
      <point x="482" y="-293"/>
      <point x="570" y="-271"/>
      <point x="637" y="-223"/>
      <point x="676" y="-149"/>
      <point x="676" y="-97" type="qcurve"/>
      <point x="676" y="-47"/>
      <point x="629" y="31"/>
      <point x="551" y="98"/>
      <point x="453" y="159"/>
      <point x="349" y="224"/>
      <point x="251" y="299"/>
      <point x="173" y="392"/>
      <point x="126" y="509"/>
      <point x="126" y="585" type="qcurve"/>
      <point x="126" y="678"/>
      <point x="198" y="804"/>
      <point x="259" y="842" type="qcurve"/>
      <point x="300" y="868"/>
      <point x="349" y="883" type="qcurve"/>
      <point x="333" y="895"/>
      <point x="318" y="907" type="qcurve"/>
      <point x="269" y="945"/>
      <point x="193" y="1030"/>
      <point x="146" y="1129"/>
      <point x="146" y="1188" type="qcurve"/>
      <point x="146" y="1265"/>
      <point x="200" y="1388"/>
      <point x="302" y="1474"/>
      <point x="450" y="1520"/>
      <point x="545" y="1520" type="qcurve"/>
      <point x="627" y="1520"/>
      <point x="765" y="1489"/>
      <point x="832" y="1448" type="qcurve"/>
    </contour>
    <contour>
      <point x="385" y="767" type="qcurve"/>
      <point x="348" y="737"/>
      <point x="306" y="646"/>
      <point x="306" y="587" type="qcurve"/>
      <point x="306" y="536"/>
      <point x="353" y="449"/>
      <point x="429" y="372"/>
      <point x="478" y="336" type="qcurve"/>
      <point x="508" y="314"/>
      <point x="540" y="291" type="qcurve"/>
      <point x="580" y="307"/>
      <point x="611" y="332" type="qcurve"/>
      <point x="648" y="363"/>
      <point x="690" y="454"/>
      <point x="690" y="513" type="qcurve"/>
      <point x="690" y="564"/>
      <point x="643" y="651"/>
      <point x="567" y="728"/>
      <point x="518" y="763" type="qcurve"/>
      <point x="487" y="786"/>
      <point x="455" y="808" type="qcurve"/>
      <point x="416" y="793"/>
    </contour>
  </outline>
</glyph>
<glyph name="dieresis" format="1">
  <advance width="1100"/>
  <unicode hex="00A8"/>
  <outline>
    <contour>
      <point x="300" y="1500" type="line"/>
      <point x="500" y="1500" type="line" name="fh01"/>
      <point x="500" y="1300" type="line"/>
      <point x="300" y="1300" type="line"/>
    </contour>
    <contour>
      <point x="700" y="1500" type="line"/>
      <point x="900" y="1500" type="line"/>
      <point x="900" y="1300" type="line"/>
      <point x="700" y="1300" type="line"/>
    </contour>
  </outline>
</glyph>
<glyph name="copyright" format="1">
  <advance width="1100"/>
  <unicode hex="00A9"/>
  <outline>
    <contour>
      <point x="550" y="1517" type="curve" smooth="yes"/>
      <point x="291" y="1517"/>
      <point x="80" y="1306"/>
      <point x="80" y="1047" type="curve" smooth="yes"/>
      <point x="80" y="787"/>
      <point x="291" y="577"/>
      <point x="550" y="577" type="curve" smooth="yes"/>
      <point x="809" y="577"/>
      <point x="1020" y="787"/>
      <point x="1020" y="1047" type="curve" smooth="yes"/>
      <point x="1020" y="1306"/>
      <point x="809" y="1517"/>
    </contour>
    <contour>
      <point x="550" y="663" type="curve" smooth="yes"/>
      <point x="339" y="663"/>
      <point x="166" y="840"/>
      <point x="166" y="1047" type="curve" smooth="yes"/>
      <point x="166" y="1259"/>
      <point x="338" y="1431"/>
      <point x="550" y="1431" type="curve" smooth="yes"/>
      <point x="762" y="1431"/>
      <point x="934" y="1259"/>
      <point x="934" y="1047" type="curve" smooth="yes"/>
      <point x="934" y="836"/>
      <point x="757" y="663"/>
    </contour>
    <component base="c" xScale="0.5" yScale="0.45" xOffset="256" yOffset="802"/>
  </outline>
</glyph>
<glyph name="logicalnot" format="1">
  <advance width="1700"/>
  <unicode hex="00AC"/>
  <outline>
    <contour>
      <point x="212" y="800" type="line"/>
      <point x="212" y="640" type="line"/>
      <point x="1216" y="640" type="line"/>
      <point x="1200" y="449" type="line"/>
      <point x="1200" y="280" type="line"/>
      <point x="1400" y="280" type="line"/>
      <point x="1400" y="589" type="line"/>
      <point x="1417" y="800" type="line"/>
    </contour>
  </outline>
</glyph>
<glyph name="twosuperior" format="1">
  <advance width="600"/>
  <unicode hex="00B2"/>
  <outline>
    <contour>
      <point x="76" y="720" type="line" name="hr00"/>
      <point x="76" y="804" type="line"/>
      <point x="100" y="842"/>
      <point x="155" y="915"/>
      <point x="212" y="984"/>
      <point x="267" y="1045"/>
      <point x="290" y="1071" type="qcurve"/>
      <point x="315" y="1099"/>
      <point x="361" y="1148"/>
      <point x="396" y="1197"/>
      <point x="417" y="1248"/>
      <point x="417" y="1277" type="qcurve"/>
      <point x="417" y="1301"/>
      <point x="399" y="1344"/>
      <point x="367" y="1375"/>
      <point x="322" y="1394"/>
      <point x="295" y="1394" type="qcurve"/>
      <point x="264" y="1394"/>
      <point x="220" y="1377"/>
      <point x="186" y="1350"/>
      <point x="162" y="1317"/>
      <point x="151" y="1300" type="qcurve"/>
      <point x="81" y="1330" type="line"/>
      <point x="94" y="1362"/>
      <point x="134" y="1417"/>
      <point x="189" y="1456"/>
      <point x="259" y="1478"/>
      <point x="302" y="1478" type="qcurve"/>
      <point x="353" y="1478"/>
      <point x="432" y="1442"/>
      <point x="486" y="1384"/>
      <point x="515" y="1310"/>
      <point x="515" y="1272" type="qcurve"/>
      <point x="515" y="1233"/>
      <point x="486" y="1164"/>
      <point x="444" y="1101"/>
      <point x="395" y="1046"/>
      <point x="374" y="1022" type="qcurve"/>
      <point x="348" y="992"/>
      <point x="296" y="933"/>
      <point x="249" y="876"/>
      <point x="208" y="824"/>
      <point x="193" y="800" type="qcurve"/>
      <point x="528" y="800" type="line"/>
      <point x="528" y="720" type="line"/>
    </contour>
  </outline>
</glyph>
<glyph name="mu" format="1">
  <advance width="1300"/>
  <unicode hex="00B5"/>
  <outline>
    <contour>
      <point x="1177" y="150" type="line"/>
      <point x="1149" y="140"/>
      <point x="1118" y="133"/>
      <point x="1086" y="133" type="curve" smooth="yes"/>
      <point x="1018" y="133"/>
      <point x="978" y="191"/>
      <point x="978" y="352" type="curve" smooth="yes"/>
      <point x="978" y="1118" type="line"/>
      <point x="800" y="1100" type="line"/>
      <point x="800" y="241" type="line"/>
      <point x="734" y="188"/>
      <point x="655" y="133"/>
      <point x="569" y="133" type="curve" smooth="yes"/>
      <point x="438" y="133"/>
      <point x="380" y="240"/>
      <point x="380" y="348" type="curve" smooth="yes"/>
      <point x="380" y="1118" type="line"/>
      <point x="200" y="1100" type="line"/>
      <point x="200" y="-500" type="line"/>
      <point x="380" y="-500" type="line"/>
      <point x="380" y="-166" type="line"/>
      <point x="335" y="25" type="line"/>
      <point x="375" y="-10"/>
      <point x="468" y="-17"/>
      <point x="518" y="-17" type="curve" smooth="yes"/>
      <point x="646" y="-17"/>
      <point x="745" y="25"/>
      <point x="800" y="86" type="curve"/>
      <point x="825" y="155" type="line"/>
      <point x="856" y="41"/>
      <point x="946" y="-17"/>
      <point x="1068" y="-17" type="curve" smooth="yes"/>
      <point x="1136" y="-17"/>
      <point x="1218" y="13"/>
      <point x="1242" y="36" type="curve"/>
    </contour>
  </outline>
</glyph>
<glyph name="paragraph" format="1">
  <advance width="1400"/>
  <unicode hex="00B6"/>
  <outline>
    <contour>
      <point x="730" y="-400" type="line" name="hr00"/>
      <point x="899" y="-400" type="line"/>
      <point x="899" y="1348" type="line"/>
      <point x="1033" y="1348" type="line"/>
      <point x="1033" y="-400" type="line"/>
      <point x="1202" y="-400" type="line"/>
      <point x="1202" y="1500" type="line"/>
      <point x="730" y="1500" type="line"/>
      <point x="538" y="1489"/>
      <point x="287" y="1392"/>
      <point x="287" y="1112" type="curve" smooth="yes"/>
      <point x="287" y="957"/>
      <point x="316" y="795"/>
      <point x="507" y="702" type="curve" smooth="yes"/>
      <point x="564" y="674"/>
      <point x="632" y="652"/>
      <point x="730" y="647" type="curve"/>
    </contour>
  </outline>
</glyph>
<glyph name="cedilla" format="1">
  <advance width="1100"/>
  <unicode hex="00B8"/>
  <outline>
    <contour>
      <point x="524" y="0" type="line"/>
      <point x="524" y="0"/>
      <point x="607" y="-91"/>
      <point x="607" y="-198" type="curve" smooth="yes"/>
      <point x="607" y="-315"/>
      <point x="501" y="-407"/>
      <point x="383" y="-407" type="curve" smooth="yes"/>
      <point x="252" y="-407"/>
      <point x="122" y="-318"/>
      <point x="122" y="-318" type="curve"/>
      <point x="122" y="-318"/>
      <point x="193" y="-218"/>
      <point x="193" y="-218" type="curve"/>
      <point x="193" y="-218"/>
      <point x="283" y="-279"/>
      <point x="359" y="-279" type="curve" smooth="yes"/>
      <point x="408" y="-279"/>
      <point x="454" y="-244"/>
      <point x="454" y="-189" type="curve" smooth="yes"/>
      <point x="454" y="-101"/>
      <point x="348" y="0"/>
      <point x="348" y="0" type="curve"/>
    </contour>
  </outline>
</glyph>
<glyph name="onequarter" format="1">
  <advance width="1500"/>
  <unicode hex="00BC"/>
  <outline>
    <contour>
      <point x="454" y="0" type="line"/>
      <point x="319" y="0" type="line"/>
      <point x="1094" y="1500" type="line"/>
      <point x="1220" y="1500" type="line"/>
    </contour>
    <contour>
      <point x="175" y="720" type="line" name="hr01"/>
      <point x="175" y="800" type="line"/>
      <point x="297" y="800" type="line"/>
      <point x="297" y="1283" type="line"/>
      <point x="326" y="1396" type="line"/>
      <point x="258" y="1303" type="line"/>
      <point x="152" y="1209" type="line"/>
      <point x="98" y="1270" type="line"/>
      <point x="327" y="1480" type="line"/>
      <point x="402" y="1470" type="line"/>
      <point x="402" y="800" type="line"/>
      <point x="525" y="800" type="line"/>
      <point x="525" y="720" type="line"/>
    </contour>
    <contour>
      <point x="1395" y="150" type="line" name="hr02"/>
      <point x="1305" y="150" type="line"/>
      <point x="1305" y="0" type="line"/>
      <point x="1200" y="0" type="line"/>
      <point x="1200" y="150" type="line"/>
      <point x="903" y="150" type="line"/>
      <point x="903" y="235" type="line"/>
      <point x="1145" y="760" type="line"/>
      <point x="1239" y="750" type="line"/>
      <point x="1032" y="300" type="line"/>
      <point x="985" y="230" type="line"/>
      <point x="1200" y="230" type="line"/>
      <point x="1200" y="433" type="line"/>
      <point x="1305" y="425" type="line"/>
      <point x="1305" y="230" type="line"/>
      <point x="1403" y="230" type="line"/>
    </contour>
  </outline>
</glyph>
<glyph name="Eth" format="1">
  <advance width="1300"/>
  <unicode hex="00D0"/>
  <outline>
    <contour>
      <point x="0" y="855" type="line" name="hr00"/>
      <point x="200" y="855" type="line"/>
      <point x="200" y="1290" type="line"/>
      <point x="170" y="1500" type="line"/>
      <point x="201" y="1503"/>
      <point x="287" y="1507"/>
      <point x="378" y="1510"/>
      <point x="467" y="1511"/>
      <point x="500" y="1511" type="qcurve"/>
      <point x="659" y="1511"/>
      <point x="930" y="1433"/>
      <point x="1128" y="1263"/>
      <point x="1240" y="997"/>
      <point x="1240" y="810" type="qcurve"/>
      <point x="1240" y="664"/>
      <point x="1184" y="431"/>
      <point x="1085" y="251"/>
      <point x="946" y="122"/>
      <point x="779" y="39"/>
      <point x="591" y="0"/>
      <point x="491" y="0" type="qcurve"/>
      <point x="200" y="0" type="line"/>
      <point x="200" y="700" type="line"/>
      <point x="0" y="700" type="line"/>
    </contour>
    <contour>
      <point x="410" y="1150" type="line"/>
      <point x="410" y="855" type="line"/>
      <point x="600" y="855" type="line"/>
      <point x="600" y="700" type="line"/>
      <point x="410" y="700" type="line"/>
      <point x="410" y="160" type="line"/>
      <point x="430" y="160" type="line"/>
      <point x="575" y="160"/>
      <point x="777" y="220"/>
      <point x="910" y="319"/>
      <point x="985" y="448"/>
      <point x="1022" y="586"/>
      <point x="1030" y="722"/>
      <point x="1030" y="780" type="qcurve"/>
      <point x="1030" y="907"/>
      <point x="986" y="1120"/>
      <point x="868" y="1273"/>
      <point x="657" y="1358"/>
      <point x="491" y="1358" type="qcurve"/>
      <point x="475" y="1358"/>
      <point x="439" y="1356"/>
      <point x="423" y="1354" type="qcurve"/>
      <point x="405" y="1352"/>
      <point x="385" y="1350" type="qcurve"/>
    </contour>
  </outline>
</glyph>
<glyph name="Oslash" format="1">
  <advance width="1600"/>
  <unicode hex="00D8"/>
  <outline>
    <contour>
      <point x="331" y="-100" type="line"/>
      <point x="121" y="-100" type="line"/>
      <point x="1278" y="1600" type="line"/>
      <point x="1478" y="1600" type="line"/>
    </contour>
    <component base="O"/>
  </outline>
</glyph>
<glyph name="germandbls" format="1">
  <advance width="1300"/>
  <unicode hex="00DF"/>
  <outline>
    <contour>
      <point x="850" y="1148" type="curve"/>
      <point x="850" y="1077"/>
      <point x="792" y="977"/>
      <point x="697" y="914"/>
      <point x="575" y="885"/>
      <point x="510" y="885" type="qcurve"/>
      <point x="510" y="885"/>
      <point x="580" y="730"/>
      <point x="580" y="730" type="curve"/>
      <point x="661" y="730"/>
      <point x="795" y="699"/>
      <point x="890" y="631"/>
      <point x="942" y="525"/>
      <point x="942" y="450" type="qcurve"/>
      <point x="942" y="367"/>
      <point x="891" y="256"/>
      <point x="789" y="189"/>
      <point x="639" y="160"/>
      <point x="540" y="160" type="qcurve"/>
      <point x="540" y="160"/>
      <point x="600" y="0"/>
      <point x="600" y="0" type="curve"/>
      <point x="662" y="0"/>
      <point x="791" y="21"/>
      <point x="912" y="66"/>
      <point x="1018" y="139"/>
      <point x="1096" y="241"/>
      <point x="1142" y="375"/>
      <point x="1142" y="460" type="qcurve"/>
      <point x="1142" y="533"/>
      <point x="1095" y="645"/>
      <point x="1013" y="727"/>
      <point x="904" y="784"/>
      <point x="843" y="802" type="qcurve"/>
      <point x="696" y="816" type="line"/>
      <point x="850" y="860" type="line"/>
      <point x="936" y="902"/>
      <point x="1041" y="1060"/>
      <point x="1041" y="1169" type="qcurve" smooth="yes"/>
      <point x="1041" y="1280"/>
      <point x="1000" y="1343"/>
      <point x="941" y="1405" type="curve" smooth="yes"/>
      <point x="870" y="1480"/>
      <point x="768" y="1517"/>
      <point x="633" y="1517" type="curve"/>
      <point x="493" y="1517"/>
      <point x="384" y="1482"/>
      <point x="308" y="1412" type="curve"/>
      <point x="231" y="1341"/>
      <point x="192" y="1242"/>
      <point x="192" y="1111" type="curve" smooth="yes"/>
      <point x="192" y="0" type="line"/>
      <point x="400" y="-17" type="line"/>
      <point x="400" y="1160" type="line"/>
      <point x="400" y="1220"/>
      <point x="404" y="1268"/>
      <point x="440" y="1304" type="curve"/>
      <point x="483" y="1347"/>
      <point x="546" y="1369"/>
      <point x="630" y="1369" type="curve" smooth="yes"/>
      <point x="745" y="1369"/>
      <point x="850" y="1270"/>
    </contour>
  </outline>
</glyph>
<glyph name="ae" format="1">
  <advance width="1700"/>
  <unicode hex="00E6"/>
  <outline>
    <contour>
      <point x="1600" y="638" type="curve" smooth="yes"/>
      <point x="1600" y="923"/>
      <point x="1468" y="1117"/>
      <point x="1180" y="1117" type="curve" smooth="yes"/>
      <point x="1035" y="1117"/>
      <point x="924" y="1056"/>
      <point x="846" y="964" type="curve"/>
      <point x="792" y="1060"/>
      <point x="692" y="1117"/>
      <point x="515" y="1117" type="curve" smooth="yes"/>
      <point x="303" y="1117"/>
      <point x="155" y="1044"/>
      <point x="155" y="1044" type="curve"/>
      <point x="227" y="910" type="line"/>
      <point x="227" y="910"/>
      <point x="362" y="957"/>
      <point x="505" y="957" type="curve" smooth="yes"/>
      <point x="684" y="957"/>
      <point x="710" y="863"/>
      <point x="710" y="705" type="curve" smooth="yes"/>
      <point x="710" y="670" type="line"/>
      <point x="710" y="670"/>
      <point x="625" y="710"/>
      <point x="475" y="710" type="curve" smooth="yes"/>
      <point x="291" y="710"/>
      <point x="70" y="591"/>
      <point x="70" y="344" type="curve" smooth="yes"/>
      <point x="70" y="109"/>
      <point x="245" y="-17"/>
      <point x="446" y="-17" type="curve" smooth="yes"/>
      <point x="603" y="-17"/>
      <point x="747" y="103"/>
      <point x="770" y="124" type="curve"/>
      <point x="802" y="189" type="line"/>
      <point x="831" y="142"/>
      <point x="868" y="102"/>
      <point x="912" y="69" type="curve" smooth="yes"/>
      <point x="986" y="15"/>
      <point x="1083" y="-17"/>
      <point x="1205" y="-17" type="curve" smooth="yes"/>
      <point x="1384" y="-17"/>
      <point x="1493" y="43"/>
      <point x="1576" y="129" type="curve"/>
      <point x="1467" y="225" type="line"/>
      <point x="1436" y="203"/>
      <point x="1355" y="143"/>
      <point x="1185" y="143" type="curve" smooth="yes"/>
      <point x="1013" y="143"/>
      <point x="900" y="300"/>
      <point x="900" y="500" type="curve"/>
      <point x="1592" y="500" type="line"/>
      <point x="1597" y="544"/>
      <point x="1600" y="597"/>
    </contour>
    <contour>
      <point x="710" y="274" type="line"/>
      <point x="710" y="274"/>
      <point x="557" y="143"/>
      <point x="454" y="143" type="curve" smooth="yes"/>
      <point x="344" y="143"/>
      <point x="260" y="225"/>
      <point x="260" y="345" type="curve" smooth="yes"/>
      <point x="260" y="494"/>
      <point x="367" y="550"/>
      <point x="515" y="550" type="curve" smooth="yes"/>
      <point x="615" y="550"/>
      <point x="710" y="533"/>
      <point x="710" y="533" type="curve"/>
    </contour>
    <contour>
      <point x="1410" y="650" type="curve"/>
      <point x="1045" y="650" type="line"/>
      <point x="867" y="623" type="line"/>
      <point x="919" y="732" type="line"/>
      <point x="947" y="829"/>
      <point x="1017" y="958"/>
      <point x="1195" y="958" type="curve" smooth="yes"/>
      <point x="1345" y="958"/>
      <point x="1412" y="845"/>
      <point x="1412" y="694" type="curve" smooth="yes"/>
      <point x="1412" y="680"/>
      <point x="1411" y="665"/>
    </contour>
  </outline>
</glyph>
<glyph name="oslash" format="1">
  <advance width="1200"/>
  <unicode hex="00F8"/>
  <outline>
    <contour>
      <point x="311" y="-100" type="line"/>
      <point x="101" y="-100" type="line"/>
      <point x="901" y="1209" type="line"/>
      <point x="1101" y="1209" type="line"/>
    </contour>
    <component base="o"/>
  </outline>
</glyph>
<glyph name="OE" format="1">
  <advance width="2000"/>
  <unicode hex="0152"/>
  <outline>
    <contour>
      <point x="800" y="-17" type="line" name="hr00"/>
      <point x="642" y="-17"/>
      <point x="392" y="99"/>
      <point x="217" y="304"/>
      <point x="124" y="585"/>
      <point x="124" y="750" type="qcurve"/>
      <point x="124" y="915"/>
      <point x="214" y="1196"/>
      <point x="387" y="1401"/>
      <point x="639" y="1517"/>
      <point x="800" y="1517" type="qcurve"/>
      <point x="980" y="1430" type="line"/>
      <point x="970" y="1500" type="line"/>
      <point x="1810" y="1500" type="line"/>
      <point x="1810" y="1340" type="line"/>
      <point x="1180" y="1340" type="line"/>
      <point x="1200" y="1150" type="line"/>
      <point x="1200" y="885" type="line"/>
      <point x="1740" y="885" type="line"/>
      <point x="1740" y="740" type="line"/>
      <point x="1200" y="740" type="line"/>
      <point x="1200" y="340" type="line"/>
      <point x="1190" y="160" type="line"/>
      <point x="1845" y="160" type="line"/>
      <point x="1825" y="0" type="line"/>
      <point x="970" y="0" type="line"/>
      <point x="980" y="70" type="line"/>
    </contour>
    <contour>
      <point x="990" y="1305" type="line"/>
      <point x="968" y="1315"/>
      <point x="948" y="1322" type="qcurve"/>
      <point x="880" y="1347"/>
      <point x="794" y="1347" type="qcurve"/>
      <point x="671" y="1347"/>
      <point x="496" y="1252"/>
      <point x="384" y="1094"/>
      <point x="332" y="892"/>
      <point x="332" y="785" type="qcurve"/>
      <point x="332" y="704"/>
      <point x="355" y="548"/>
      <point x="403" y="407"/>
      <point x="478" y="288"/>
      <point x="583" y="202"/>
      <point x="720" y="153"/>
      <point x="806" y="153" type="qcurve"/>
      <point x="887" y="153"/>
      <point x="953" y="175" type="qcurve"/>
      <point x="971" y="182"/>
      <point x="990" y="190" type="qcurve"/>
    </contour>
  </outline>
</glyph>
<glyph name="breve" format="1">
  <advance width="1100"/>
  <unicode hex="02D8"/>
  <outline>
    <contour>
      <point x="326" y="1520" type="line"/>
      <point x="326" y="1520"/>
      <point x="330" y="1384"/>
      <point x="497" y="1384" type="curve" smooth="yes"/>
      <point x="670" y="1384"/>
      <point x="674" y="1520"/>
      <point x="674" y="1520" type="curve"/>
      <point x="674" y="1520"/>
      <point x="780" y="1520"/>
      <point x="780" y="1520" type="curve"/>
      <point x="780" y="1520"/>
      <point x="780" y="1515"/>
      <point x="780" y="1507" type="curve" smooth="yes"/>
      <point x="780" y="1453"/>
      <point x="762" y="1254"/>
      <point x="497" y="1254" type="curve" smooth="yes"/>
      <point x="234" y="1254"/>
      <point x="219" y="1451"/>
      <point x="219" y="1506" type="curve"/>
      <point x="219" y="1519"/>
      <point x="219" y="1520"/>
      <point x="219" y="1520" type="curve"/>
    </contour>
  </outline>
</glyph>
<glyph name="tilde" format="1">
  <advance width="1100"/>
  <unicode hex="02DC"/>
  <outline>
    <contour>
      <point x="187" y="1335" type="curve"/>
      <point x="198" y="1443"/>
      <point x="274" y="1544"/>
      <point x="369" y="1544" type="curve" smooth="yes"/>
      <point x="473" y="1544"/>
      <point x="546" y="1454"/>
      <point x="629" y="1454" type="curve" smooth="yes"/>
      <point x="685" y="1454"/>
      <point x="713" y="1515"/>
      <point x="721" y="1562" type="curve"/>
      <point x="817" y="1558" type="line"/>
      <point x="808" y="1441"/>
      <point x="727" y="1332"/>
      <point x="622" y="1331" type="curve" smooth="yes"/>
      <point x="538" y="1331"/>
      <point x="457" y="1420"/>
      <point x="363" y="1420" type="curve" smooth="yes"/>
      <point x="316" y="1420"/>
      <point x="283" y="1372"/>
      <point x="273" y="1332" type="curve"/>
      <point x="273" y="1332"/>
      <point x="187" y="1335"/>
    </contour>
  </outline>
</glyph>
<glyph name="Deltagreek" format="1">
  <advance width="1500"/>
  <unicode hex="0394"/>
  <outline>
    <contour>
      <point x="1485" y="0" type="line" name="ab01"/>
      <point x="13" y="0" type="line"/>
      <point x="636" y="1500" type="line"/>
      <point x="854" y="1523" type="line" name="at01"/>
    </contour>
    <contour>
      <point x="1158" y="160" type="line"/>
      <point x="1281" y="108" type="line" name="iv01"/>
      <point x="1199" y="200" type="line"/>
      <point x="783" y="1258" type="line"/>
      <point x="748" y="1425" type="line" name="iv02"/>
      <point x="713" y="1258" type="line"/>
      <point x="297" y="200" type="line"/>
      <point x="212" y="108" type="line" name="iv03"/>
      <point x="338" y="160" type="line"/>
    </contour>
  </outline>
</glyph>
<glyph name="Theta" format="1">
  <advance width="1600"/>
  <unicode hex="0398"/>
  <outline>
    <contour>
      <point x="520" y="835" type="line" name="hr00"/>
      <point x="1100" y="835" type="line"/>
      <point x="1080" y="665" type="line"/>
      <point x="500" y="665" type="line"/>
    </contour>
    <component base="O"/>
  </outline>
</glyph>
<glyph name="Xi" format="1">
  <advance width="1200"/>
  <unicode hex="039E"/>
  <outline>
    <contour>
      <point x="200" y="711" type="line"/>
      <point x="201" y="711"/>
      <point x="1000" y="711"/>
      <point x="1000" y="711" type="curve"/>
      <point x="1000" y="885" type="line"/>
      <point x="1000" y="885"/>
      <point x="200" y="885"/>
      <point x="200" y="885" type="curve"/>
    </contour>
    <contour>
      <point x="100" y="0" type="line"/>
      <point x="101" y="0"/>
      <point x="1100" y="0"/>
      <point x="1100" y="0" type="curve"/>
      <point x="1100" y="174" type="line"/>
      <point x="1100" y="174"/>
      <point x="100" y="174"/>
      <point x="100" y="174" type="curve"/>
    </contour>
    <contour>
      <point x="100" y="1326" type="line"/>
      <point x="101" y="1326"/>
      <point x="1100" y="1326"/>
      <point x="1100" y="1326" type="curve"/>
      <point x="1100" y="1500" type="line"/>
      <point x="1100" y="1500"/>
      <point x="100" y="1500"/>
      <point x="100" y="1500" type="curve"/>
    </contour>
  </outline>
</glyph>
<glyph name="Phi" format="1">
  <advance width="1400"/>
  <unicode hex="03A6"/>
  <outline>
    <contour>
      <point x="600" y="204" type="line" name="av03"/>
      <point x="529" y="213"/>
      <point x="462" y="233" type="qcurve"/>
      <point x="348" y="268"/>
      <point x="174" y="405"/>
      <point x="71" y="612"/>
      <point x="71" y="750" type="qcurve" name="sh02"/>
      <point x="71" y="888"/>
      <point x="174" y="1094"/>
      <point x="348" y="1232"/>
      <point x="462" y="1266" type="qcurve"/>
      <point x="529" y="1287"/>
      <point x="600" y="1295" type="qcurve" name="av02"/>
      <point x="600" y="1500" type="line" name="sh03"/>
      <point x="799" y="1520" type="line" name="at01"/>
      <point x="799" y="1295" type="line" name="av01"/>
      <point x="870" y="1287"/>
      <point x="938" y="1266" type="qcurve"/>
      <point x="1052" y="1232"/>
      <point x="1227" y="1094"/>
      <point x="1331" y="888"/>
      <point x="1331" y="750" type="qcurve" name="sh06"/>
      <point x="1331" y="612"/>
      <point x="1227" y="405"/>
      <point x="1053" y="268"/>
      <point x="939" y="233" type="qcurve"/>
      <point x="871" y="213"/>
      <point x="799" y="204" type="qcurve" name="av04"/>
      <point x="799" y="0" type="line"/>
      <point x="600" y="0" type="line" name="sh07"/>
    </contour>
    <contour>
      <point x="867" y="1123" type="qcurve"/>
      <point x="833" y="1133"/>
      <point x="799" y="1139" type="qcurve" name="sv01"/>
      <point x="799" y="361" type="line" name="sh04"/>
      <point x="832" y="366"/>
      <point x="865" y="376" type="qcurve"/>
      <point x="946" y="399"/>
      <point x="1074" y="497"/>
      <point x="1152" y="646"/>
      <point x="1152" y="750" type="qcurve" name="sh05"/>
      <point x="1152" y="853"/>
      <point x="1075" y="1003"/>
      <point x="949" y="1100"/>
    </contour>
    <contour>
      <point x="535" y="376" type="qcurve"/>
      <point x="567" y="367"/>
      <point x="600" y="361" type="qcurve" name="ah01"/>
      <point x="600" y="1139" type="line" name="ah02"/>
      <point x="566" y="1133"/>
      <point x="533" y="1123" type="qcurve"/>
      <point x="452" y="1100"/>
      <point x="326" y="1003"/>
      <point x="249" y="853"/>
      <point x="249" y="750" type="qcurve" name="sh01"/>
      <point x="249" y="646"/>
      <point x="327" y="497"/>
      <point x="454" y="399"/>
    </contour>
  </outline>
</glyph>
<glyph name="zeta" format="1">
  <advance width="1000"/>
  <unicode hex="03B6"/>
  <outline>
    <contour>
      <point x="920" y="1500" type="line"/>
      <point x="900" y="1342" type="line"/>
      <point x="660" y="1142"/>
      <point x="312" y="817"/>
      <point x="312" y="517" type="curve" smooth="yes"/>
      <point x="312" y="379"/>
      <point x="343" y="275"/>
      <point x="517" y="164" type="curve" smooth="yes"/>
      <point x="702" y="46"/>
      <point x="896" y="4"/>
      <point x="896" y="-203" type="curve" smooth="yes"/>
      <point x="896" y="-336"/>
      <point x="780" y="-451"/>
      <point x="634" y="-517" type="curve"/>
      <point x="544" y="-386" type="line"/>
      <point x="629" y="-342"/>
      <point x="700" y="-286"/>
      <point x="700" y="-222" type="curve" smooth="yes"/>
      <point x="700" y="-102"/>
      <point x="549" y="-56"/>
      <point x="400" y="30" type="curve" smooth="yes"/>
      <point x="213" y="138"/>
      <point x="115" y="279"/>
      <point x="115" y="492" type="curve" smooth="yes"/>
      <point x="115" y="795"/>
      <point x="310" y="1083"/>
      <point x="445" y="1224" type="curve"/>
      <point x="708" y="1369" type="line"/>
      <point x="540" y="1342" type="line"/>
      <point x="180" y="1342" type="line"/>
      <point x="200" y="1500" type="line"/>
    </contour>
  </outline>
</glyph>
<glyph name="iota" format="1">
  <advance width="700"/>
  <unicode hex="03B9"/>
  <outline>
    <contour>
      <point x="200" y="902" type="line" name="hr00"/>
      <point x="180" y="1100" type="line"/>
      <point x="390" y="1120" type="line"/>
      <point x="390" y="389" type="line"/>
      <point x="390" y="337"/>
      <point x="400" y="198"/>
      <point x="456" y="129"/>
      <point x="500" y="129" type="qcurve"/>
      <point x="522" y="129"/>
      <point x="544" y="132"/>
      <point x="550" y="134" type="qcurve"/>
      <point x="619" y="8" type="line"/>
      <point x="602" y="-1"/>
      <point x="538" y="-17"/>
      <point x="500" y="-17" type="qcurve"/>
      <point x="398" y="-17"/>
      <point x="279" y="47"/>
      <point x="218" y="160"/>
      <point x="200" y="314"/>
      <point x="200" y="403" type="qcurve"/>
    </contour>
  </outline>
</glyph>
<glyph name="lambda" format="1">
  <advance width="1100"/>
  <unicode hex="03BB"/>
  <outline>
    <contour>
      <point x="550" y="968" type="line" name="hr00"/>
      <point x="498" y="736" type="line"/>
      <point x="230" y="0" type="line"/>
      <point x="34" y="0" type="line"/>
      <point x="451" y="1147" type="line"/>
      <point x="431" y="1197"/>
      <point x="382" y="1297"/>
      <point x="325" y="1377"/>
      <point x="263" y="1428"/>
      <point x="230" y="1428" type="qcurve"/>
      <point x="206" y="1428"/>
      <point x="162" y="1408"/>
      <point x="145" y="1396" type="qcurve"/>
      <point x="72" y="1503" type="line"/>
      <point x="113" y="1539"/>
      <point x="211" y="1580"/>
      <point x="262" y="1580" type="qcurve"/>
      <point x="330" y="1580"/>
      <point x="441" y="1498"/>
      <point x="533" y="1367"/>
      <point x="606" y="1201"/>
      <point x="637" y="1117" type="qcurve"/>
      <point x="1045" y="0" type="line"/>
      <point x="871" y="0" type="line"/>
      <point x="602" y="736" type="line"/>
    </contour>
  </outline>
</glyph>
<glyph name="nu" format="1">
  <advance width="1200"/>
  <unicode hex="03BD"/>
  <outline>
    <contour>
      <point x="724" y="0" type="line"/>
      <point x="1106" y="1100" type="line"/>
      <point x="915" y="1100" type="line"/>
      <point x="638" y="295" type="line"/>
      <point x="590" y="75" type="line"/>
      <point x="544" y="295" type="line"/>
      <point x="267" y="1100" type="line"/>
      <point x="74" y="1100" type="line"/>
      <point x="457" y="0" type="line"/>
    </contour>
  </outline>
</glyph>
<glyph name="xi" format="1">
  <advance width="1000"/>
  <unicode hex="03BE"/>
  <outline>
    <contour>
      <point x="400" y="30" type="curve"/>
      <point x="550" y="-55"/>
      <point x="700" y="-102"/>
      <point x="700" y="-222" type="curve" smooth="yes"/>
      <point x="700" y="-286"/>
      <point x="629" y="-342"/>
      <point x="544" y="-386" type="curve"/>
      <point x="634" y="-517" type="line"/>
      <point x="780" y="-451"/>
      <point x="896" y="-336"/>
      <point x="896" y="-203" type="curve" smooth="yes"/>
      <point x="896" y="4"/>
      <point x="707" y="55"/>
      <point x="517" y="164" type="curve"/>
      <point x="379" y="243"/>
      <point x="321" y="354"/>
      <point x="321" y="447" type="curve" smooth="yes"/>
      <point x="321" y="720"/>
      <point x="601" y="739"/>
      <point x="805" y="739" type="curve"/>
      <point x="830" y="885" type="line"/>
      <point x="601" y="885" type="line" smooth="yes"/>
      <point x="530" y="885"/>
      <point x="367" y="950"/>
      <point x="367" y="1097" type="curve" smooth="yes"/>
      <point x="367" y="1264"/>
      <point x="545" y="1342"/>
      <point x="637" y="1342" type="curve" smooth="yes"/>
      <point x="900" y="1342" type="line"/>
      <point x="921" y="1500" type="line"/>
      <point x="586" y="1500"/>
      <point x="438" y="1500"/>
      <point x="438" y="1500" type="curve"/>
      <point x="343" y="1500"/>
      <point x="310" y="1568"/>
      <point x="310" y="1587" type="curve"/>
      <point x="115" y="1587" type="line"/>
      <point x="115" y="1457"/>
      <point x="229" y="1400"/>
      <point x="400" y="1400" type="curve"/>
      <point x="300" y="1359" type="line"/>
      <point x="213" y="1300"/>
      <point x="181" y="1200"/>
      <point x="181" y="1097" type="curve" smooth="yes"/>
      <point x="181" y="994"/>
      <point x="237" y="907"/>
      <point x="300" y="847" type="curve"/>
      <point x="434" y="790" type="line"/>
      <point x="300" y="778" type="line"/>
      <point x="200" y="728"/>
      <point x="116" y="631"/>
      <point x="116" y="437" type="curve" smooth="yes"/>
      <point x="116" y="238"/>
      <point x="276" y="100"/>
    </contour>
  </outline>
</glyph>
<glyph name="pi" format="1">
  <advance width="1300"/>
  <unicode hex="03C0"/>
  <outline>
    <contour>
      <point x="1099" y="950" type="line" name="hr00"/>
      <point x="1119" y="1100" type="line"/>
      <point x="178" y="1100" type="line" smooth="yes"/>
      <point x="97" y="1100"/>
      <point x="54" y="1080"/>
      <point x="31" y="1068" type="curve"/>
      <point x="111" y="942" type="line"/>
      <point x="111" y="942"/>
      <point x="150" y="954"/>
      <point x="180" y="954" type="curve" smooth="yes"/>
      <point x="298" y="954"/>
      <point x="300" y="833"/>
      <point x="300" y="694" type="curve" smooth="yes"/>
      <point x="300" y="0" type="line"/>
      <point x="480" y="0" type="line"/>
      <point x="480" y="787" type="line"/>
      <point x="420" y="950" type="line"/>
      <point x="800" y="950" type="line"/>
      <point x="800" y="403" type="line" smooth="yes"/>
      <point x="800" y="165"/>
      <point x="829" y="-17"/>
      <point x="1100" y="-17" type="curve" smooth="yes"/>
      <point x="1183" y="-17"/>
      <point x="1226" y="3"/>
      <point x="1249" y="15" type="curve"/>
      <point x="1169" y="141" type="line"/>
      <point x="1169" y="141"/>
      <point x="1130" y="129"/>
      <point x="1100" y="129" type="curve" smooth="yes"/>
      <point x="982" y="129"/>
      <point x="980" y="250"/>
      <point x="980" y="389" type="curve" smooth="yes"/>
      <point x="980" y="950" type="line"/>
    </contour>
  </outline>
</glyph>
<glyph name="sigma1" format="1">
  <advance width="1000"/>
  <unicode hex="03C2"/>
  <outline>
    <contour>
      <point x="700" y="885" type="line"/>
      <point x="250" y="885"/>
      <point x="116" y="666"/>
      <point x="116" y="437" type="curve" smooth="yes"/>
      <point x="116" y="238"/>
      <point x="276" y="100"/>
      <point x="400" y="30" type="curve" smooth="yes"/>
      <point x="550" y="-55"/>
      <point x="700" y="-102"/>
      <point x="700" y="-222" type="curve" smooth="yes"/>
      <point x="700" y="-286"/>
      <point x="629" y="-342"/>
      <point x="544" y="-386" type="curve"/>
      <point x="634" y="-517" type="line"/>
      <point x="780" y="-451"/>
      <point x="896" y="-336"/>
      <point x="896" y="-203" type="curve" smooth="yes"/>
      <point x="896" y="4"/>
      <point x="707" y="55"/>
      <point x="517" y="164" type="curve" smooth="yes"/>
      <point x="379" y="243"/>
      <point x="321" y="354"/>
      <point x="321" y="447" type="curve" smooth="yes"/>
      <point x="321" y="720"/>
      <point x="601" y="739"/>
      <point x="805" y="739" type="curve"/>
      <point x="830" y="885" type="line"/>
    </contour>
  </outline>
</glyph>
<glyph name="sigma" format="1">
  <advance width="1300"/>
  <unicode hex="03C3"/>
  <outline>
    <contour>
      <point x="100" y="551" type="qcurve" name="hr00"/>
      <point x="100" y="663"/>
      <point x="158" y="870"/>
      <point x="280" y="1027"/>
      <point x="469" y="1121"/>
      <point x="600" y="1121" type="qcurve"/>
      <point x="1200" y="1121" type="line"/>
      <point x="1200" y="981" type="line"/>
      <point x="1100" y="981" type="line"/>
      <point x="933" y="995" type="line"/>
      <point x="1038" y="853" type="line"/>
      <point x="1070" y="785"/>
      <point x="1100" y="633"/>
      <point x="1100" y="551" type="qcurve"/>
      <point x="1100" y="435"/>
      <point x="1042" y="227"/>
      <point x="920" y="73"/>
      <point x="731" y="-17"/>
      <point x="600" y="-17" type="qcurve"/>
      <point x="469" y="-17"/>
      <point x="280" y="77"/>
      <point x="158" y="234"/>
      <point x="100" y="440"/>
    </contour>
    <contour>
      <point x="270" y="551" type="qcurve"/>
      <point x="270" y="475"/>
      <point x="310" y="321"/>
      <point x="391" y="199"/>
      <point x="516" y="123"/>
      <point x="600" y="123" type="qcurve"/>
      <point x="684" y="123"/>
      <point x="809" y="199"/>
      <point x="890" y="321"/>
      <point x="930" y="475"/>
      <point x="930" y="551" type="qcurve"/>
      <point x="930" y="629"/>
      <point x="890" y="783"/>
      <point x="809" y="905"/>
      <point x="684" y="981"/>
      <point x="600" y="981" type="qcurve"/>
      <point x="516" y="981"/>
      <point x="391" y="904"/>
      <point x="310" y="781"/>
      <point x="270" y="627"/>
    </contour>
  </outline>
</glyph>
<glyph name="tau" format="1">
  <advance width="1100"/>
  <unicode hex="03C4"/>
  <outline>
    <contour>
      <point x="980" y="942" type="line"/>
      <point x="1000" y="1100" type="line"/>
      <point x="120" y="1100" type="line"/>
      <point x="100" y="942" type="line"/>
      <point x="467" y="942" type="line"/>
      <point x="467" y="303" type="line" smooth="yes"/>
      <point x="467" y="150"/>
      <point x="482" y="47"/>
      <point x="547" y="0" type="curve"/>
      <point x="758" y="0" type="line"/>
      <point x="679" y="108"/>
      <point x="659" y="164"/>
      <point x="659" y="265" type="curve" smooth="yes"/>
      <point x="659" y="942" type="line"/>
    </contour>
  </outline>
</glyph>
<glyph name="phi" format="1">
  <advance width="1500"/>
  <unicode hex="03C6"/>
  <outline>
    <contour>
      <point x="651" y="1100" type="line"/>
      <point x="651" y="997" type="line"/>
      <point x="584" y="989"/>
      <point x="521" y="971" type="qcurve"/>
      <point x="413" y="940"/>
      <point x="248" y="813"/>
      <point x="150" y="626"/>
      <point x="150" y="500" type="qcurve"/>
      <point x="150" y="374"/>
      <point x="248" y="185"/>
      <point x="413" y="61"/>
      <point x="521" y="29" type="qcurve"/>
      <point x="584" y="11"/>
      <point x="651" y="2" type="qcurve"/>
      <point x="651" y="-500" type="line"/>
      <point x="843" y="-500" type="line"/>
      <point x="843" y="2" type="line"/>
      <point x="910" y="11"/>
      <point x="975" y="29" type="qcurve"/>
      <point x="1083" y="61"/>
      <point x="1248" y="185"/>
      <point x="1347" y="374"/>
      <point x="1347" y="500" type="qcurve"/>
      <point x="1347" y="626"/>
      <point x="1248" y="813"/>
      <point x="1082" y="940"/>
      <point x="974" y="971" type="qcurve"/>
      <point x="909" y="990"/>
      <point x="843" y="997" type="qcurve"/>
      <point x="843" y="1120" type="line"/>
    </contour>
    <contour>
      <point x="906" y="840" type="qcurve"/>
      <point x="984" y="819"/>
      <point x="1104" y="731"/>
      <point x="1177" y="594"/>
      <point x="1177" y="500" type="qcurve"/>
      <point x="1177" y="405"/>
      <point x="1103" y="269"/>
      <point x="981" y="180"/>
      <point x="904" y="158" type="qcurve"/>
      <point x="873" y="150"/>
      <point x="843" y="145" type="qcurve"/>
      <point x="843" y="854" type="line"/>
      <point x="874" y="850"/>
    </contour>
    <contour>
      <point x="591" y="158" type="qcurve"/>
      <point x="514" y="180"/>
      <point x="393" y="269"/>
      <point x="319" y="405"/>
      <point x="319" y="500" type="qcurve"/>
      <point x="319" y="594"/>
      <point x="392" y="731"/>
      <point x="512" y="819"/>
      <point x="589" y="840" type="qcurve"/>
      <point x="619" y="849"/>
      <point x="651" y="854" type="qcurve"/>
      <point x="651" y="145" type="line"/>
      <point x="620" y="151"/>
    </contour>
  </outline>
</glyph>
<glyph name="chi" format="1">
  <advance width="1300"/>
  <unicode hex="03C7"/>
  <outline>
    <contour>
      <point x="691" y="53" type="line" name="hr00"/>
      <point x="614" y="230" type="line"/>
      <point x="566" y="70" type="line"/>
      <point x="251" y="-500" type="line"/>
      <point x="53" y="-500" type="line"/>
      <point x="523" y="329" type="line"/>
      <point x="218" y="869" type="line" smooth="yes"/>
      <point x="156" y="978"/>
      <point x="100" y="987"/>
      <point x="100" y="987" type="curve"/>
      <point x="100" y="1117" type="line"/>
      <point x="200" y="1117"/>
      <point x="294" y="1103"/>
      <point x="387" y="940" type="curve" smooth="yes"/>
      <point x="590" y="586" type="line"/>
      <point x="670" y="390" type="line"/>
      <point x="705" y="550" type="line"/>
      <point x="1003" y="1100" type="line"/>
      <point x="1203" y="1100" type="line"/>
      <point x="758" y="306" type="line"/>
      <point x="1081" y="-265" type="line" smooth="yes"/>
      <point x="1142" y="-374"/>
      <point x="1200" y="-383"/>
      <point x="1200" y="-383" type="curve" smooth="yes"/>
      <point x="1200" y="-517" type="line"/>
      <point x="1100" y="-517"/>
      <point x="1005" y="-499"/>
      <point x="912" y="-336" type="curve" smooth="yes"/>
    </contour>
  </outline>
</glyph>
<glyph name="psi" format="1">
  <advance width="1500"/>
  <unicode hex="03C8"/>
  <outline>
    <contour>
      <point x="153" y="495" type="line"/>
      <point x="153" y="337"/>
      <point x="164" y="-17"/>
      <point x="553" y="-17" type="curve" smooth="yes"/>
      <point x="651" y="-17" type="line"/>
      <point x="651" y="-500" type="line"/>
      <point x="843" y="-500" type="line"/>
      <point x="843" y="-17" type="line"/>
      <point x="953" y="-17" type="line" smooth="yes"/>
      <point x="1342" y="-17"/>
      <point x="1353" y="337"/>
      <point x="1353" y="495" type="curve" smooth="yes"/>
      <point x="1353" y="699" type="line" smooth="yes"/>
      <point x="1353" y="923"/>
      <point x="1185" y="1117"/>
      <point x="964" y="1117" type="curve"/>
      <point x="964" y="1007" type="line"/>
      <point x="1026" y="1007"/>
      <point x="1163" y="886"/>
      <point x="1163" y="672" type="curve" smooth="yes"/>
      <point x="1163" y="497" type="line" smooth="yes"/>
      <point x="1163" y="306"/>
      <point x="1134" y="129"/>
      <point x="953" y="129" type="curve"/>
      <point x="952" y="128"/>
      <point x="904" y="128"/>
      <point x="843" y="128" type="curve"/>
      <point x="843" y="1120" type="line"/>
      <point x="651" y="1100" type="line"/>
      <point x="651" y="128" type="line"/>
      <point x="612" y="128"/>
      <point x="553" y="129"/>
      <point x="553" y="129" type="curve"/>
      <point x="372" y="129"/>
      <point x="343" y="306"/>
      <point x="343" y="497" type="curve" smooth="yes"/>
      <point x="343" y="820" type="line"/>
      <point x="153" y="800" type="line"/>
    </contour>
  </outline>
</glyph>
<glyph name="theta1" format="1">
  <advance width="1300"/>
  <unicode hex="03D1"/>
  <outline>
    <contour>
      <point x="309" y="484" type="line"/>
      <point x="349" y="304"/>
      <point x="438" y="146"/>
      <point x="600" y="146" type="curve" smooth="yes"/>
      <point x="792" y="146"/>
      <point x="905" y="371"/>
      <point x="924" y="650" type="curve"/>
      <point x="500" y="650" type="line" smooth="yes"/>
      <point x="291" y="650"/>
      <point x="100" y="700"/>
      <point x="100" y="980" type="curve" smooth="yes"/>
      <point x="100" y="1230"/>
      <point x="300" y="1517"/>
      <point x="600" y="1517" type="curve" smooth="yes"/>
      <point x="952" y="1517"/>
      <point x="1087" y="1139"/>
      <point x="1099" y="800" type="curve"/>
      <point x="1322" y="800" type="line"/>
      <point x="1302" y="650" type="line"/>
      <point x="1096" y="650" type="line"/>
      <point x="1073" y="324"/>
      <point x="935" y="-17"/>
      <point x="600" y="-17" type="curve" smooth="yes"/>
      <point x="352" y="-17"/>
      <point x="214" y="170"/>
      <point x="147" y="397" type="curve"/>
    </contour>
    <contour>
      <point x="600" y="1354" type="curve" smooth="yes"/>
      <point x="400" y="1354"/>
      <point x="271" y="1161"/>
      <point x="271" y="972" type="curve" smooth="yes"/>
      <point x="271" y="800"/>
      <point x="400" y="800"/>
      <point x="600" y="800" type="curve" smooth="yes"/>
      <point x="925" y="800" type="line"/>
      <point x="912" y="1092"/>
      <point x="809" y="1354"/>
    </contour>
  </outline>
</glyph>
<glyph name="Upsilon1" format="1">
  <advance width="1300"/>
  <unicode hex="03D2"/>
  <outline>
    <contour>
      <point x="1181" y="1517" type="curve" name="hr00"/>
      <point x="1181" y="1387" type="line"/>
      <point x="1181" y="1387"/>
      <point x="1100" y="1384"/>
      <point x="1053" y="1289" type="curve" smooth="yes"/>
      <point x="743" y="658" type="line"/>
      <point x="743" y="0" type="line"/>
      <point x="551" y="0" type="line"/>
      <point x="551" y="658" type="line"/>
      <point x="241" y="1289" type="line" smooth="yes"/>
      <point x="194" y="1384"/>
      <point x="113" y="1387"/>
      <point x="113" y="1387" type="curve"/>
      <point x="113" y="1517" type="line"/>
      <point x="213" y="1517"/>
      <point x="288" y="1504"/>
      <point x="380" y="1340" type="curve" smooth="yes"/>
      <point x="570" y="1000" type="line"/>
      <point x="651" y="751" type="line"/>
      <point x="651" y="751"/>
      <point x="724" y="1000"/>
      <point x="724" y="1000" type="curve"/>
      <point x="914" y="1340" type="line" smooth="yes"/>
      <point x="1006" y="1504"/>
      <point x="1081" y="1517"/>
    </contour>
  </outline>
</glyph>
<glyph name="phi1" format="1">
  <advance width="1500"/>
  <unicode hex="03D5"/>
  <outline>
    <contour>
      <point x="651" y="-500" type="line"/>
      <point x="843" y="-500" type="line"/>
      <point x="843" y="-3" type="line"/>
      <point x="1109" y="26"/>
      <point x="1347" y="189"/>
      <point x="1347" y="495" type="curve" smooth="yes"/>
      <point x="1347" y="764"/>
      <point x="1115" y="981"/>
      <point x="867" y="981" type="curve" smooth="yes"/>
      <point x="764" y="981"/>
      <point x="651" y="939"/>
      <point x="651" y="794" type="curve" smooth="yes"/>
      <point x="651" y="140" type="line"/>
      <point x="474" y="168"/>
      <point x="319" y="283"/>
      <point x="319" y="495" type="curve" smooth="yes"/>
      <point x="319" y="681"/>
      <point x="422" y="749"/>
      <point x="496" y="799" type="curve"/>
      <point x="400" y="917" type="line"/>
      <point x="308" y="870"/>
      <point x="150" y="744"/>
      <point x="150" y="495" type="curve" smooth="yes"/>
      <point x="150" y="190"/>
      <point x="385" y="28"/>
      <point x="651" y="-3" type="curve"/>
    </contour>
    <contour>
      <point x="906" y="835" type="curve" smooth="yes"/>
      <point x="1042" y="835"/>
      <point x="1177" y="682"/>
      <point x="1177" y="495" type="curve" smooth="yes"/>
      <point x="1177" y="281"/>
      <point x="1020" y="169"/>
      <point x="842" y="138" type="curve"/>
      <point x="842" y="775" type="line" smooth="yes"/>
      <point x="842" y="823"/>
      <point x="870" y="835"/>
    </contour>
  </outline>
</glyph>
<glyph name="hyphentwo" format="1">
  <advance width="900"/>
  <unicode hex="2010"/>
  <outline>
    <contour>
      <point x="200" y="600" type="line"/>
      <point x="700" y="600" type="line"/>
      <point x="700" y="445" type="line"/>
      <point x="200" y="445" type="line"/>
    </contour>
  </outline>
</glyph>
<glyph name="endash" format="1">
  <advance width="1100"/>
  <unicode hex="2013"/>
  <outline>
    <contour>
      <point x="0" y="446" type="line"/>
      <point x="1" y="446"/>
      <point x="1000" y="446"/>
      <point x="1000" y="446" type="curve"/>
      <point x="1000" y="600" type="line"/>
      <point x="1000" y="600"/>
      <point x="0" y="600"/>
      <point x="0" y="600" type="curve"/>
    </contour>
  </outline>
</glyph>
<glyph name="dblverticalbar" format="1">
  <advance width="800"/>
  <unicode hex="2016"/>
  <outline>
    <contour>
      <point x="355" y="1500" type="line"/>
      <point x="355" y="0" type="line"/>
      <point x="200" y="0" type="line"/>
      <point x="200" y="1500" type="line"/>
    </contour>
    <contour>
      <point x="655" y="1500" type="line"/>
      <point x="655" y="0" type="line"/>
      <point x="500" y="0" type="line"/>
      <point x="500" y="1500" type="line"/>
    </contour>
  </outline>
</glyph>
<glyph name="quotesinglbase" format="1">
  <advance width="700"/>
  <unicode hex="201A"/>
  <outline>
    <contour>
      <point x="176" y="105" type="curve" smooth="yes"/>
      <point x="176" y="29"/>
      <point x="232" y="-13"/>
      <point x="288" y="-16" type="curve"/>
      <point x="288" y="-113"/>
      <point x="220" y="-240"/>
      <point x="220" y="-240" type="curve"/>
      <point x="264" y="-260" type="line"/>
      <point x="404" y="-132"/>
      <point x="425" y="-25"/>
      <point x="425" y="91" type="curve" smooth="yes"/>
      <point x="425" y="180"/>
      <point x="366" y="226"/>
      <point x="300" y="226" type="curve" smooth="yes"/>
      <point x="233" y="226"/>
      <point x="176" y="171"/>
    </contour>
  </outline>
</glyph>
<glyph name="perthousand" format="1">
  <advance width="2600"/>
  <unicode hex="2030"/>
  <outline>
    <contour>
      <point x="2100" y="-20" type="curve" smooth="yes"/>
      <point x="1904" y="-20"/>
      <point x="1767" y="144"/>
      <point x="1767" y="360" type="curve" smooth="yes"/>
      <point x="1767" y="574"/>
      <point x="1896" y="733"/>
      <point x="2100" y="733" type="curve" smooth="yes"/>
      <point x="2295" y="733"/>
      <point x="2432" y="574"/>
      <point x="2432" y="360" type="curve" smooth="yes"/>
      <point x="2432" y="144"/>
      <point x="2302" y="-20"/>
    </contour>
    <contour>
      <point x="2276" y="349" type="curve" smooth="yes"/>
      <point x="2276" y="470"/>
      <point x="2226" y="594"/>
      <point x="2099" y="594" type="curve" smooth="yes"/>
      <point x="1979" y="594"/>
      <point x="1928" y="486"/>
      <point x="1928" y="375" type="curve" smooth="yes"/>
      <point x="1928" y="253"/>
      <point x="1978" y="132"/>
      <point x="2104" y="132" type="curve" smooth="yes"/>
      <point x="2223" y="132"/>
      <point x="2276" y="240"/>
    </contour>
    <component base="percent"/>
  </outline>
</glyph>
<glyph name="guilsinglleft" format="1">
  <advance width="900"/>
  <unicode hex="2039"/>
  <outline>
    <contour>
      <point x="670" y="1026" type="line"/>
      <point x="720" y="901" type="line"/>
      <point x="395" y="610" type="line"/>
      <point x="257" y="550" type="line"/>
      <point x="394" y="490" type="line"/>
      <point x="722" y="201" type="line"/>
      <point x="668" y="66" type="line"/>
      <point x="200" y="478" type="line"/>
      <point x="200" y="617" type="line"/>
    </contour>
  </outline>
</glyph>
<glyph name="zerosuperior" format="1">
  <advance width="800"/>
  <unicode hex="2070"/>
  <outline>
    <contour>
      <point x="300" y="711" type="qcurve" name="hr00"/>
      <point x="257" y="711"/>
      <point x="186" y="744"/>
      <point x="130" y="800"/>
      <point x="87" y="875"/>
      <point x="59" y="960"/>
      <point x="45" y="1051"/>
      <point x="45" y="1095" type="qcurve"/>
      <point x="45" y="1140"/>
      <point x="57" y="1232"/>
      <point x="83" y="1317"/>
      <point x="123" y="1391"/>
      <point x="180" y="1446"/>
      <point x="253" y="1478"/>
      <point x="300" y="1478" type="qcurve"/>
      <point x="342" y="1478"/>
      <point x="413" y="1446"/>
      <point x="470" y="1390"/>
      <point x="512" y="1315"/>
      <point x="541" y="1229"/>
      <point x="555" y="1138"/>
      <point x="555" y="1095" type="qcurve"/>
      <point x="555" y="1050"/>
      <point x="543" y="958"/>
      <point x="517" y="873"/>
      <point x="476" y="798"/>
      <point x="420" y="743"/>
      <point x="346" y="711"/>
    </contour>
    <contour>
      <point x="148" y="1116" type="qcurve"/>
      <point x="148" y="1087"/>
      <point x="152" y="1018"/>
      <point x="164" y="947"/>
      <point x="186" y="881"/>
      <point x="220" y="830"/>
      <point x="270" y="799"/>
      <point x="304" y="799" type="qcurve"/>
      <point x="334" y="799"/>
      <point x="380" y="822"/>
      <point x="413" y="863"/>
      <point x="434" y="916"/>
      <point x="446" y="977"/>
      <point x="451" y="1042"/>
      <point x="451" y="1073" type="qcurve"/>
      <point x="451" y="1102"/>
      <point x="447" y="1172"/>
      <point x="435" y="1242"/>
      <point x="414" y="1308"/>
      <point x="379" y="1359"/>
      <point x="330" y="1390"/>
      <point x="296" y="1390" type="qcurve"/>
      <point x="265" y="1390"/>
      <point x="220" y="1367"/>
      <point x="187" y="1327"/>
      <point x="166" y="1273"/>
      <point x="153" y="1212"/>
      <point x="148" y="1147"/>
    </contour>
  </outline>
</glyph>
<glyph name="ismallsuperior" format="1">
  <advance width="300"/>
  <unicode hex="2071"/>
  <outline>
    <contour>
      <point x="195" y="720" type="line" name="hr00"/>
      <point x="100" y="720" type="line"/>
      <point x="100" y="1247" type="line"/>
      <point x="195" y="1257" type="line"/>
    </contour>
    <contour>
      <point x="97" y="1470" type="line"/>
      <point x="198" y="1470" type="line"/>
      <point x="198" y="1370" type="line"/>
      <point x="97" y="1370" type="line"/>
    </contour>
  </outline>
</glyph>
<glyph name="foursuperior" format="1">
  <advance width="600"/>
  <unicode hex="2074"/>
  <outline>
    <contour>
      <point x="542" y="870" type="line" name="hr00"/>
      <point x="452" y="870" type="line"/>
      <point x="452" y="720" type="line"/>
      <point x="347" y="720" type="line"/>
      <point x="347" y="870" type="line"/>
      <point x="50" y="870" type="line"/>
      <point x="50" y="955" type="line"/>
      <point x="292" y="1480" type="line"/>
      <point x="386" y="1470" type="line"/>
      <point x="179" y="1020" type="line"/>
      <point x="132" y="950" type="line"/>
      <point x="347" y="950" type="line"/>
      <point x="347" y="1153" type="line"/>
      <point x="452" y="1145" type="line"/>
      <point x="452" y="950" type="line"/>
      <point x="550" y="950" type="line"/>
    </contour>
  </outline>
</glyph>
<glyph name="eightsuperior" format="1">
  <advance width="600"/>
  <unicode hex="2078"/>
  <outline>
    <contour>
      <point x="305" y="1478" type="qcurve" name="hr00"/>
      <point x="351" y="1478"/>
      <point x="429" y="1453"/>
      <point x="485" y="1406"/>
      <point x="517" y="1339"/>
      <point x="517" y="1297" type="qcurve"/>
      <point x="517" y="1268"/>
      <point x="500" y="1222"/>
      <point x="470" y="1185"/>
      <point x="430" y="1156"/>
      <point x="408" y="1143" type="qcurve"/>
      <point x="445" y="1126"/>
      <point x="504" y="1084"/>
      <point x="544" y="1030"/>
      <point x="566" y="964"/>
      <point x="566" y="925" type="qcurve"/>
      <point x="566" y="869"/>
      <point x="522" y="789"/>
      <point x="449" y="736"/>
      <point x="357" y="711"/>
      <point x="308" y="711" type="qcurve"/>
      <point x="261" y="711"/>
      <point x="173" y="740"/>
      <point x="105" y="795"/>
      <point x="64" y="878"/>
      <point x="64" y="932" type="qcurve"/>
      <point x="64" y="972"/>
      <point x="87" y="1037"/>
      <point x="127" y="1089"/>
      <point x="182" y="1129"/>
      <point x="214" y="1145" type="qcurve"/>
      <point x="191" y="1159"/>
      <point x="150" y="1190"/>
      <point x="120" y="1226"/>
      <point x="102" y="1267"/>
      <point x="102" y="1292" type="qcurve"/>
      <point x="102" y="1340"/>
      <point x="141" y="1411"/>
      <point x="201" y="1456"/>
      <point x="272" y="1478"/>
    </contour>
    <contour>
      <point x="300" y="1100" type="qcurve"/>
      <point x="268" y="1086"/>
      <point x="218" y="1054"/>
      <point x="182" y="1012"/>
      <point x="163" y="960"/>
      <point x="163" y="927" type="qcurve"/>
      <point x="163" y="897"/>
      <point x="187" y="848"/>
      <point x="228" y="812"/>
      <point x="281" y="793"/>
      <point x="309" y="793" type="qcurve"/>
      <point x="341" y="793"/>
      <point x="398" y="811"/>
      <point x="442" y="845"/>
      <point x="467" y="895"/>
      <point x="467" y="927" type="qcurve"/>
      <point x="467" y="961"/>
      <point x="437" y="1013"/>
      <point x="390" y="1055"/>
      <point x="330" y="1087"/>
    </contour>
    <contour>
      <point x="320" y="1181" type="qcurve"/>
      <point x="366" y="1202"/>
      <point x="421" y="1260"/>
      <point x="421" y="1301" type="qcurve"/>
      <point x="421" y="1326"/>
      <point x="400" y="1362"/>
      <point x="369" y="1385"/>
      <point x="332" y="1396"/>
      <point x="315" y="1396" type="qcurve"/>
      <point x="292" y="1396"/>
      <point x="250" y="1382"/>
      <point x="218" y="1357"/>
      <point x="199" y="1323"/>
      <point x="199" y="1303" type="qcurve"/>
      <point x="199" y="1280"/>
      <point x="218" y="1245"/>
      <point x="252" y="1216"/>
      <point x="296" y="1192"/>
    </contour>
  </outline>
</glyph>
<glyph name="ninesuperior" format="1">
  <advance width="600"/>
  <unicode hex="2079"/>
  <outline>
    <contour>
      <point x="424" y="1051" type="line" name="hr00"/>
      <point x="394" y="1028"/>
      <point x="335" y="1006"/>
      <point x="297" y="1006" type="qcurve"/>
      <point x="248" y="1006"/>
      <point x="163" y="1039"/>
      <point x="100" y="1099"/>
      <point x="64" y="1183"/>
      <point x="64" y="1235" type="qcurve"/>
      <point x="64" y="1289"/>
      <point x="99" y="1378"/>
      <point x="162" y="1443"/>
      <point x="253" y="1478"/>
      <point x="309" y="1478" type="qcurve"/>
      <point x="359" y="1478"/>
      <point x="435" y="1447"/>
      <point x="491" y="1396"/>
      <point x="529" y="1330"/>
      <point x="551" y="1259"/>
      <point x="561" y="1189"/>
      <point x="561" y="1160" type="qcurve"/>
      <point x="561" y="1101"/>
      <point x="537" y="991"/>
      <point x="492" y="893"/>
      <point x="426" y="811"/>
      <point x="341" y="750"/>
      <point x="239" y="714"/>
      <point x="180" y="711" type="qcurve"/>
      <point x="165" y="795" type="line"/>
      <point x="225" y="798"/>
      <point x="330" y="849"/>
      <point x="411" y="933"/>
      <point x="460" y="1046"/>
      <point x="464" y="1110" type="qcurve"/>
    </contour>
    <contour>
      <point x="458" y="1196" type="qcurve"/>
      <point x="456" y="1234"/>
      <point x="437" y="1304"/>
      <point x="402" y="1360"/>
      <point x="349" y="1393"/>
      <point x="313" y="1393" type="qcurve"/>
      <point x="279" y="1393"/>
      <point x="225" y="1371"/>
      <point x="187" y="1332"/>
      <point x="166" y="1277"/>
      <point x="166" y="1244" type="qcurve"/>
      <point x="166" y="1212"/>
      <point x="183" y="1156"/>
      <point x="216" y="1115"/>
      <point x="268" y="1091"/>
      <point x="302" y="1091" type="qcurve"/>
      <point x="329" y="1091"/>
      <point x="377" y="1108"/>
      <point x="418" y="1137"/>
      <point x="449" y="1175"/>
    </contour>
  </outline>
</glyph>
<glyph name="twoinferior" format="1">
  <advance width="600"/>
  <unicode hex="2082"/>
  <outline>
    <contour>
      <point x="76" y="-500" type="line" name="hr00"/>
      <point x="76" y="-416" type="line"/>
      <point x="100" y="-378"/>
      <point x="155" y="-305"/>
      <point x="212" y="-236"/>
      <point x="267" y="-175"/>
      <point x="290" y="-149" type="qcurve"/>
      <point x="315" y="-121"/>
      <point x="361" y="-72"/>
      <point x="396" y="-23"/>
      <point x="417" y="28"/>
      <point x="417" y="57" type="qcurve"/>
      <point x="417" y="81"/>
      <point x="399" y="124"/>
      <point x="367" y="155"/>
      <point x="322" y="174"/>
      <point x="295" y="174" type="qcurve"/>
      <point x="264" y="174"/>
      <point x="220" y="157"/>
      <point x="186" y="130"/>
      <point x="162" y="97"/>
      <point x="151" y="80" type="qcurve"/>
      <point x="81" y="110" type="line"/>
      <point x="94" y="142"/>
      <point x="134" y="197"/>
      <point x="189" y="236"/>
      <point x="259" y="258"/>
      <point x="302" y="258" type="qcurve"/>
      <point x="353" y="258"/>
      <point x="432" y="222"/>
      <point x="486" y="164"/>
      <point x="515" y="90"/>
      <point x="515" y="52" type="qcurve"/>
      <point x="515" y="13"/>
      <point x="486" y="-56"/>
      <point x="444" y="-119"/>
      <point x="395" y="-174"/>
      <point x="374" y="-198" type="qcurve"/>
      <point x="348" y="-228"/>
      <point x="296" y="-287"/>
      <point x="249" y="-344"/>
      <point x="208" y="-396"/>
      <point x="193" y="-420" type="qcurve"/>
      <point x="528" y="-420" type="line"/>
      <point x="528" y="-500" type="line"/>
    </contour>
  </outline>
</glyph>
<glyph name="sixinferior" format="1">
  <advance width="600"/>
  <unicode hex="2086"/>
  <outline>
    <contour>
      <point x="464" y="172" type="line" name="hr00"/>
      <point x="461" y="173"/>
      <point x="447" y="173"/>
      <point x="442" y="173" type="qcurve"/>
      <point x="406" y="173"/>
      <point x="338" y="151"/>
      <point x="278" y="110"/>
      <point x="227" y="53"/>
      <point x="189" y="-16"/>
      <point x="164" y="-94"/>
      <point x="160" y="-135" type="qcurve"/>
      <point x="201" y="-77" type="line"/>
      <point x="214" y="-69"/>
      <point x="247" y="-54"/>
      <point x="284" y="-43"/>
      <point x="322" y="-37"/>
      <point x="339" y="-37" type="qcurve"/>
      <point x="383" y="-37"/>
      <point x="463" y="-61"/>
      <point x="526" y="-111"/>
      <point x="563" y="-189"/>
      <point x="563" y="-244" type="qcurve"/>
      <point x="563" y="-298"/>
      <point x="527" y="-394"/>
      <point x="461" y="-467"/>
      <point x="369" y="-509"/>
      <point x="313" y="-509" type="qcurve"/>
      <point x="264" y="-509"/>
      <point x="188" y="-477"/>
      <point x="132" y="-425"/>
      <point x="95" y="-358"/>
      <point x="71" y="-288"/>
      <point x="61" y="-219"/>
      <point x="61" y="-190" type="qcurve"/>
      <point x="61" y="-131"/>
      <point x="86" y="-18"/>
      <point x="132" y="82"/>
      <point x="199" y="165"/>
      <point x="285" y="225"/>
      <point x="387" y="258"/>
      <point x="446" y="258" type="qcurve"/>
      <point x="454" y="258"/>
      <point x="472" y="258"/>
      <point x="477" y="257" type="qcurve"/>
    </contour>
    <contour>
      <point x="164" y="-202" type="qcurve"/>
      <point x="164" y="-216"/>
      <point x="165" y="-239"/>
      <point x="167" y="-261"/>
      <point x="171" y="-283"/>
      <point x="175" y="-297" type="qcurve"/>
      <point x="182" y="-325"/>
      <point x="206" y="-372"/>
      <point x="240" y="-405"/>
      <point x="286" y="-424"/>
      <point x="314" y="-424" type="qcurve"/>
      <point x="354" y="-424"/>
      <point x="409" y="-394"/>
      <point x="444" y="-344"/>
      <point x="461" y="-281"/>
      <point x="461" y="-249" type="qcurve"/>
      <point x="461" y="-217"/>
      <point x="442" y="-169"/>
      <point x="408" y="-138"/>
      <point x="361" y="-122"/>
      <point x="332" y="-122" type="qcurve"/>
      <point x="305" y="-122"/>
      <point x="254" y="-135"/>
      <point x="209" y="-157"/>
      <point x="175" y="-186"/>
    </contour>
  </outline>
</glyph>
<glyph name="nineinferior" format="1">
  <advance width="600"/>
  <unicode hex="2089"/>
  <outline>
    <contour>
      <point x="424" y="-169" type="line" name="hr00"/>
      <point x="394" y="-192"/>
      <point x="335" y="-214"/>
      <point x="297" y="-214" type="qcurve"/>
      <point x="248" y="-214"/>
      <point x="163" y="-181"/>
      <point x="100" y="-121"/>
      <point x="64" y="-37"/>
      <point x="64" y="15" type="qcurve"/>
      <point x="64" y="69"/>
      <point x="99" y="158"/>
      <point x="162" y="223"/>
      <point x="253" y="258"/>
      <point x="309" y="258" type="qcurve"/>
      <point x="359" y="258"/>
      <point x="435" y="227"/>
      <point x="491" y="176"/>
      <point x="529" y="110"/>
      <point x="551" y="39"/>
      <point x="561" y="-31"/>
      <point x="561" y="-60" type="qcurve"/>
      <point x="561" y="-119"/>
      <point x="537" y="-229"/>
      <point x="492" y="-327"/>
      <point x="426" y="-409"/>
      <point x="341" y="-470"/>
      <point x="239" y="-506"/>
      <point x="180" y="-509" type="qcurve"/>
      <point x="165" y="-425" type="line"/>
      <point x="225" y="-422"/>
      <point x="330" y="-371"/>
      <point x="411" y="-287"/>
      <point x="460" y="-174"/>
      <point x="464" y="-110" type="qcurve"/>
    </contour>
    <contour>
      <point x="458" y="-24" type="qcurve"/>
      <point x="456" y="14"/>
      <point x="437" y="84"/>
      <point x="402" y="140"/>
      <point x="349" y="173"/>
      <point x="313" y="173" type="qcurve"/>
      <point x="279" y="173"/>
      <point x="225" y="151"/>
      <point x="187" y="112"/>
      <point x="166" y="57"/>
      <point x="166" y="24" type="qcurve"/>
      <point x="166" y="-8"/>
      <point x="183" y="-64"/>
      <point x="216" y="-105"/>
      <point x="268" y="-129"/>
      <point x="302" y="-129" type="qcurve"/>
      <point x="329" y="-129"/>
      <point x="377" y="-112"/>
      <point x="418" y="-83"/>
      <point x="449" y="-45"/>
    </contour>
  </outline>
</glyph>
<glyph name="indianrupee" format="1">
  <advance width="1200"/>
  <unicode hex="20B9"/>
  <outline>
    <contour>
      <point x="362" y="1350" type="line" smooth="yes"/>
      <point x="463" y="1350"/>
      <point x="497" y="1329"/>
      <point x="520" y="1314" type="curve" smooth="yes"/>
      <point x="573" y="1279"/>
      <point x="613" y="1226"/>
      <point x="628" y="1151" type="curve"/>
      <point x="210" y="1151" type="line"/>
      <point x="170" y="1000" type="line"/>
      <point x="625" y="1000" type="line"/>
      <point x="593" y="866"/>
      <point x="480" y="765"/>
      <point x="278" y="765" type="curve" smooth="yes"/>
      <point x="200" y="765" type="line"/>
      <point x="200" y="614" type="line"/>
      <point x="250" y="614" type="line" smooth="yes"/>
      <point x="261" y="614"/>
      <point x="282" y="614"/>
      <point x="297" y="595" type="curve" smooth="yes"/>
      <point x="740" y="0" type="line"/>
      <point x="963" y="0" type="line"/>
      <point x="520" y="593" type="line"/>
      <point x="378" y="633" type="line"/>
      <point x="580" y="668"/>
      <point x="739" y="750"/>
      <point x="807" y="955" type="curve"/>
      <point x="746" y="1016" type="line"/>
      <point x="846" y="1000" type="line"/>
      <point x="1000" y="1000" type="line"/>
      <point x="1079" y="1151" type="line"/>
      <point x="818" y="1151" type="line"/>
      <point x="815" y="1211"/>
      <point x="800" y="1265"/>
      <point x="761" y="1309" type="curve"/>
      <point x="686" y="1375" type="line"/>
      <point x="790" y="1350" type="line"/>
      <point x="1000" y="1350" type="line"/>
      <point x="1078" y="1500" type="line"/>
      <point x="210" y="1500" type="line"/>
      <point x="170" y="1350" type="line"/>
    </contour>
  </outline>
</glyph>
<glyph name="lsquare" format="1">
  <advance width="900"/>
  <unicode hex="2113"/>
  <outline>
    <contour>
      <point x="100" y="540" type="line"/>
      <point x="200" y="540" type="line"/>
      <point x="200" y="1000" type="line" smooth="yes"/>
      <point x="200" y="1300"/>
      <point x="274" y="1517"/>
      <point x="540" y="1517" type="curve" smooth="yes"/>
      <point x="690" y="1517"/>
      <point x="800" y="1400"/>
      <point x="800" y="1100" type="curve" smooth="yes"/>
      <point x="800" y="800"/>
      <point x="800" y="400"/>
      <point x="500" y="400" type="curve" smooth="yes"/>
      <point x="400" y="400" type="line"/>
      <point x="400" y="383" type="line" smooth="yes"/>
      <point x="400" y="310"/>
      <point x="405" y="250"/>
      <point x="426" y="207" type="curve" smooth="yes"/>
      <point x="437" y="186"/>
      <point x="452" y="168"/>
      <point x="471" y="155" type="curve" smooth="yes"/>
      <point x="491" y="142"/>
      <point x="513" y="133"/>
      <point x="537" y="130" type="curve" smooth="yes"/>
      <point x="562" y="127"/>
      <point x="577" y="126"/>
      <point x="582" y="126" type="curve" smooth="yes"/>
      <point x="615" y="126"/>
      <point x="666" y="138"/>
      <point x="691" y="153" type="curve"/>
      <point x="774" y="30" type="line"/>
      <point x="717" y="3"/>
      <point x="651" y="-17"/>
      <point x="530" y="-17" type="curve" smooth="yes"/>
      <point x="274" y="-17"/>
      <point x="200" y="156"/>
      <point x="200" y="383" type="curve" smooth="yes"/>
      <point x="200" y="400" type="line"/>
      <point x="100" y="400" type="line"/>
    </contour>
    <contour>
      <point x="450" y="540" type="line"/>
      <point x="500" y="540" type="line" smooth="yes"/>
      <point x="618" y="540"/>
      <point x="620" y="782"/>
      <point x="620" y="987" type="curve" smooth="yes"/>
      <point x="620" y="1183"/>
      <point x="618" y="1371"/>
      <point x="528" y="1371" type="curve" smooth="yes"/>
      <point x="472" y="1371"/>
      <point x="400" y="1290"/>
      <point x="400" y="1039" type="curve" smooth="yes"/>
      <point x="400" y="440" type="line"/>
    </contour>
  </outline>
</glyph>
<glyph name="aleph" format="1">
  <advance width="1200"/>
  <unicode hex="2135"/>
  <outline>
    <contour>
      <point x="688" y="1100" type="line"/>
      <point x="703" y="877"/>
      <point x="974" y="944"/>
      <point x="974" y="707" type="curve" smooth="yes"/>
      <point x="974" y="664"/>
      <point x="964" y="617"/>
      <point x="946" y="568" type="curve"/>
      <point x="860" y="568" type="line"/>
      <point x="860" y="671"/>
      <point x="819" y="718"/>
      <point x="764" y="759" type="curve"/>
      <point x="748" y="704"/>
      <point x="720" y="664"/>
      <point x="678" y="622" type="curve"/>
      <point x="937" y="469"/>
      <point x="993" y="295"/>
      <point x="993" y="168" type="curve" smooth="yes"/>
      <point x="993" y="95"/>
      <point x="974" y="28"/>
      <point x="962" y="0" type="curve"/>
      <point x="857" y="0" type="line"/>
      <point x="857" y="258"/>
      <point x="597" y="327"/>
      <point x="343" y="558" type="curve"/>
      <point x="343" y="666" type="line"/>
      <point x="265" y="584"/>
      <point x="254" y="557"/>
      <point x="254" y="529" type="curve" smooth="yes"/>
      <point x="254" y="374"/>
      <point x="512" y="270"/>
      <point x="512" y="103" type="curve" smooth="yes"/>
      <point x="512" y="70"/>
      <point x="502" y="36"/>
      <point x="481" y="0" type="curve"/>
      <point x="99" y="0" type="line"/>
      <point x="139" y="140" type="line"/>
      <point x="314" y="140" type="line"/>
      <point x="161" y="228" type="line"/>
      <point x="127" y="280"/>
      <point x="99" y="343"/>
      <point x="99" y="421" type="curve" smooth="yes"/>
      <point x="99" y="517"/>
      <point x="148" y="618"/>
      <point x="219" y="688" type="curve"/>
      <point x="138" y="771"/>
      <point x="101" y="844"/>
      <point x="101" y="936" type="curve" smooth="yes"/>
      <point x="101" y="984"/>
      <point x="111" y="1037"/>
      <point x="131" y="1100" type="curve"/>
      <point x="220" y="1100" type="line"/>
      <point x="220" y="945"/>
      <point x="381" y="820"/>
      <point x="529" y="721" type="curve"/>
      <point x="529" y="624" type="line"/>
      <point x="634" y="718"/>
      <point x="652" y="755"/>
      <point x="652" y="811" type="curve"/>
      <point x="652" y="823" type="line"/>
      <point x="593" y="869"/>
      <point x="566" y="909"/>
      <point x="566" y="969" type="curve" smooth="yes"/>
      <point x="566" y="1004"/>
      <point x="575" y="1046"/>
      <point x="594" y="1100" type="curve"/>
    </contour>
  </outline>
</glyph>
<glyph name="twothirds" format="1">
  <advance width="1500"/>
  <unicode hex="2154"/>
  <outline>
    <contour>
      <point x="454" y="0" type="line"/>
      <point x="319" y="0" type="line"/>
      <point x="1094" y="1500" type="line"/>
      <point x="1220" y="1500" type="line"/>
    </contour>
    <component base="two" xScale="0.5" yScale="0.5" yOffset="720"/>
    <component base="three" xScale="0.5" yScale="0.5" xOffset="853"/>
  </outline>
</glyph>
<glyph name="fourfifths" format="1">
  <advance width="1500"/>
  <unicode hex="2158"/>
  <outline>
    <contour>
      <point x="454" y="0" type="line"/>
      <point x="319" y="0" type="line"/>
      <point x="1094" y="1500" type="line"/>
      <point x="1220" y="1500" type="line"/>
    </contour>
    <component base="five" xScale="0.5" yScale="0.5" xOffset="853"/>
    <component base="four" xScale="0.5" yScale="0.5" yOffset="720"/>
  </outline>
</glyph>
<glyph name="oneroman" format="1">
  <advance width="600"/>
  <unicode hex="2170"/>
  <outline>
    <contour>
      <point x="390" y="0" type="line" name="hr00"/>
      <point x="200" y="0" type="line"/>
      <point x="200" y="1100" type="line"/>
      <point x="390" y="1120" type="line"/>
    </contour>
  </outline>
</glyph>
<glyph name="arrowup" format="1">
  <advance width="1000"/>
  <unicode hex="2191"/>
  <outline>
    <contour>
      <point x="400" y="1053" type="line"/>
      <point x="412" y="1157" type="line"/>
      <point x="337" y="1100" type="line"/>
      <point x="100" y="1100" type="line"/>
      <point x="400" y="1401" type="line"/>
      <point x="500" y="1520" type="line"/>
      <point x="600" y="1400" type="line"/>
      <point x="900" y="1100" type="line"/>
      <point x="665" y="1100" type="line"/>
      <point x="590" y="1157" type="line"/>
      <point x="600" y="1053" type="line"/>
      <point x="600" y="0" type="line"/>
      <point x="400" y="0" type="line"/>
    </contour>
  </outline>
</glyph>
<glyph name="leftwardsarrowwithhook" format="1">
  <advance width="1400"/>
  <unicode hex="21A9"/>
  <outline>
    <contour>
      <point x="547" y="400" type="line"/>
      <point x="443" y="412" type="line"/>
      <point x="500" y="337" type="line"/>
      <point x="500" y="100" type="line"/>
      <point x="199" y="400" type="line"/>
      <point x="80" y="500" type="line"/>
      <point x="200" y="600" type="line"/>
      <point x="500" y="900" type="line"/>
      <point x="500" y="665" type="line"/>
      <point x="443" y="590" type="line"/>
      <point x="547" y="600" type="line"/>
      <point x="1000" y="600" type="line" smooth="yes"/>
      <point x="1072" y="600"/>
      <point x="1130" y="644"/>
      <point x="1130" y="700" type="curve" smooth="yes"/>
      <point x="1130" y="756"/>
      <point x="1072" y="800"/>
      <point x="1000" y="800" type="curve"/>
      <point x="1000" y="1000" type="line"/>
      <point x="1150" y="1000"/>
      <point x="1300" y="900"/>
      <point x="1300" y="700" type="curve" smooth="yes"/>
      <point x="1300" y="500"/>
      <point x="1150" y="400"/>
      <point x="1000" y="400" type="curve" smooth="yes"/>
    </contour>
  </outline>
</glyph>
<glyph name="pageup" format="1">
  <advance width="1000"/>
  <unicode hex="21DE"/>
  <outline>
    <contour>
      <point x="200" y="500" type="line"/>
      <point x="400" y="500" type="line"/>
      <point x="400" y="660" type="line"/>
      <point x="200" y="660" type="line"/>
      <point x="200" y="800" type="line"/>
      <point x="400" y="800" type="line"/>
      <point x="400" y="1053" type="line"/>
      <point x="412" y="1157" type="line"/>
      <point x="337" y="1100" type="line"/>
      <point x="100" y="1100" type="line"/>
      <point x="400" y="1401" type="line"/>
      <point x="500" y="1520" type="line"/>
      <point x="600" y="1400" type="line"/>
      <point x="900" y="1100" type="line"/>
      <point x="665" y="1100" type="line"/>
      <point x="590" y="1157" type="line"/>
      <point x="600" y="1053" type="line"/>
      <point x="600" y="800" type="line"/>
      <point x="800" y="800" type="line"/>
      <point x="800" y="660" type="line"/>
      <point x="600" y="660" type="line"/>
      <point x="600" y="500" type="line"/>
      <point x="800" y="500" type="line"/>
      <point x="800" y="360" type="line"/>
      <point x="600" y="360" type="line"/>
      <point x="600" y="0" type="line"/>
      <point x="400" y="0" type="line"/>
      <point x="400" y="360" type="line"/>
      <point x="200" y="360" type="line"/>
    </contour>
  </outline>
</glyph>
<glyph name="partialdiff" format="1">
  <advance width="1200"/>
  <unicode hex="2202"/>
  <outline>
    <contour>
      <point x="882" y="644" type="curve"/>
      <point x="840" y="709"/>
      <point x="717" y="765"/>
      <point x="620" y="765" type="curve" smooth="yes"/>
      <point x="384" y="765"/>
      <point x="276" y="566"/>
      <point x="276" y="373" type="curve" smooth="yes"/>
      <point x="276" y="269"/>
      <point x="338" y="128"/>
      <point x="521" y="128" type="curve" smooth="yes"/>
      <point x="739" y="128"/>
      <point x="872" y="444"/>
    </contour>
    <contour>
      <point x="1075" y="780" type="curve" smooth="yes"/>
      <point x="1075" y="456"/>
      <point x="901" y="-17"/>
      <point x="521" y="-17" type="curve" smooth="yes"/>
      <point x="273" y="-17"/>
      <point x="90" y="140"/>
      <point x="90" y="361" type="curve" smooth="yes"/>
      <point x="90" y="716"/>
      <point x="311" y="885"/>
      <point x="547" y="885" type="curve" smooth="yes"/>
      <point x="723" y="885"/>
      <point x="820" y="823"/>
      <point x="889" y="753" type="curve"/>
      <point x="889" y="1117"/>
      <point x="781" y="1361"/>
      <point x="521" y="1361" type="curve" smooth="yes"/>
      <point x="438" y="1361"/>
      <point x="386" y="1346"/>
      <point x="300" y="1300" type="curve"/>
      <point x="216" y="1431" type="line"/>
      <point x="291" y="1478"/>
      <point x="400" y="1517"/>
      <point x="505" y="1517" type="curve" smooth="yes"/>
      <point x="867" y="1517"/>
      <point x="1075" y="1270"/>
    </contour>
  </outline>
</glyph>
<glyph name="existential" format="1">
  <advance width="1300"/>
  <unicode hex="2203"/>
  <outline>
    <contour>
      <point x="1015" y="160" type="line" name="hr00"/>
      <point x="1000" y="350" type="line"/>
      <point x="1000" y="650" type="line"/>
      <point x="248" y="650" type="line"/>
      <point x="230" y="800" type="line"/>
      <point x="1000" y="800" type="line"/>
      <point x="1000" y="950" type="line"/>
      <point x="1020" y="1150" type="line"/>
      <point x="175" y="1150" type="line"/>
      <point x="175" y="1300" type="line"/>
      <point x="1192" y="1300" type="line"/>
      <point x="1170" y="1100" type="line"/>
      <point x="1170" y="200" type="line"/>
      <point x="1187" y="0" type="line"/>
      <point x="175" y="0" type="line"/>
      <point x="175" y="160" type="line"/>
    </contour>
  </outline>
</glyph>
<glyph name="emptyset" format="1">
  <advance width="1400"/>
  <unicode hex="2205"/>
  <outline>
    <contour>
      <point x="699" y="-17" type="curve" smooth="yes"/>
      <point x="332" y="-17"/>
      <point x="109" y="266"/>
      <point x="109" y="650" type="curve" smooth="yes"/>
      <point x="109" y="1034"/>
      <point x="323" y="1317"/>
      <point x="699" y="1317" type="curve" smooth="yes"/>
      <point x="1066" y="1317"/>
      <point x="1289" y="1034"/>
      <point x="1289" y="650" type="curve" smooth="yes"/>
      <point x="1289" y="266"/>
      <point x="1075" y="-17"/>
    </contour>
    <contour>
      <point x="1107" y="623" type="curve" smooth="yes"/>
      <point x="1107" y="902"/>
      <point x="994" y="1169"/>
      <point x="694" y="1169" type="curve" smooth="yes"/>
      <point x="407" y="1169"/>
      <point x="291" y="931"/>
      <point x="291" y="680" type="curve" smooth="yes"/>
      <point x="291" y="398"/>
      <point x="405" y="131"/>
      <point x="704" y="131" type="curve" smooth="yes"/>
      <point x="988" y="131"/>
      <point x="1107" y="375"/>
    </contour>
    <contour>
      <point x="474" y="-200" type="line"/>
      <point x="319" y="-200" type="line"/>
      <point x="928" y="1500" type="line"/>
      <point x="1074" y="1500" type="line"/>
    </contour>
  </outline>
</glyph>
<glyph name="element" format="1">
  <advance width="1500"/>
  <unicode hex="2208"/>
  <outline>
    <contour>
      <point x="1420" y="0" type="line" name="hr00"/>
      <point x="843" y="0" type="line"/>
      <point x="672" y="0"/>
      <point x="397" y="81"/>
      <point x="204" y="244"/>
      <point x="100" y="488"/>
      <point x="100" y="650" type="qcurve"/>
      <point x="100" y="812"/>
      <point x="204" y="1056"/>
      <point x="397" y="1219"/>
      <point x="672" y="1300"/>
      <point x="843" y="1300" type="qcurve"/>
      <point x="1420" y="1300" type="line"/>
      <point x="1400" y="1146" type="line"/>
      <point x="847" y="1146" type="line"/>
      <point x="716" y="1146"/>
      <point x="506" y="1087"/>
      <point x="359" y="965"/>
      <point x="320" y="871" type="qcurve"/>
      <point x="292" y="806"/>
      <point x="284" y="725" type="qcurve"/>
      <point x="1400" y="725" type="line"/>
      <point x="1400" y="575" type="line"/>
      <point x="284" y="575" type="line"/>
      <point x="292" y="493"/>
      <point x="320" y="428" type="qcurve"/>
      <point x="359" y="334"/>
      <point x="506" y="212"/>
      <point x="716" y="153"/>
      <point x="847" y="153" type="qcurve"/>
      <point x="1400" y="153" type="line"/>
    </contour>
  </outline>
</glyph>
<glyph name="notelement" format="1">
  <advance width="1500"/>
  <unicode hex="2209"/>
  <outline>
    <contour>
      <point x="620" y="-200" type="line"/>
      <point x="465" y="-200" type="line"/>
      <point x="1074" y="1500" type="line"/>
      <point x="1220" y="1500" type="line"/>
    </contour>
    <component base="element"/>
  </outline>
</glyph>
<glyph name="minus" format="1">
  <advance width="1100"/>
  <unicode hex="2212"/>
  <outline>
    <contour>
      <point x="100" y="700" type="line" name="hr00"/>
      <point x="1000" y="700" type="line"/>
      <point x="1000" y="545" type="line"/>
      <point x="100" y="545" type="line"/>
    </contour>
  </outline>
</glyph>
<glyph name="minusplus" format="1">
  <advance width="1100"/>
  <unicode hex="2213"/>
  <outline>
    <contour>
      <point x="100" y="1200" type="line"/>
      <point x="1000" y="1200" type="line"/>
      <point x="1000" y="1060" type="line"/>
      <point x="100" y="1060" type="line"/>
    </contour>
    <contour>
      <point x="100" y="612" type="line" name="hr01"/>
      <point x="473" y="612" type="line"/>
      <point x="473" y="949" type="line"/>
      <point x="628" y="949" type="line"/>
      <point x="628" y="612" type="line"/>
      <point x="1000" y="612" type="line"/>
      <point x="1000" y="488" type="line"/>
      <point x="628" y="488" type="line"/>
      <point x="628" y="150" type="line"/>
      <point x="473" y="150" type="line"/>
      <point x="473" y="488" type="line"/>
      <point x="100" y="488" type="line"/>
    </contour>
  </outline>
</glyph>
<glyph name="infinity" format="1">
  <advance width="1700"/>
  <unicode hex="221E"/>
  <outline>
    <contour>
      <point x="477" y="330" type="curve" smooth="yes"/>
      <point x="630" y="330"/>
      <point x="720" y="530"/>
      <point x="760" y="650" type="curve"/>
      <point x="700" y="780"/>
      <point x="609" y="960"/>
      <point x="457" y="960" type="curve" smooth="yes"/>
      <point x="331" y="960"/>
      <point x="269" y="800"/>
      <point x="269" y="650" type="curve" smooth="yes"/>
      <point x="269" y="500"/>
      <point x="354" y="330"/>
    </contour>
    <contour>
      <point x="820" y="551" type="curve"/>
      <point x="824" y="456" type="line"/>
      <point x="755" y="320"/>
      <point x="654" y="183"/>
      <point x="466" y="183" type="curve" smooth="yes"/>
      <point x="207" y="183"/>
      <point x="100" y="430"/>
      <point x="100" y="650" type="curve" smooth="yes"/>
      <point x="100" y="870"/>
      <point x="188" y="1117"/>
      <point x="466" y="1117" type="curve" smooth="yes"/>
      <point x="646" y="1117"/>
      <point x="743" y="992"/>
      <point x="880" y="752" type="curve"/>
      <point x="876" y="847" type="line"/>
      <point x="945" y="983"/>
      <point x="1046" y="1120"/>
      <point x="1234" y="1120" type="curve" smooth="yes"/>
      <point x="1493" y="1120"/>
      <point x="1600" y="873"/>
      <point x="1600" y="653" type="curve" smooth="yes"/>
      <point x="1600" y="433"/>
      <point x="1512" y="186"/>
      <point x="1234" y="186" type="curve" smooth="yes"/>
      <point x="1054" y="186"/>
      <point x="957" y="311"/>
    </contour>
    <contour>
      <point x="1223" y="973" type="curve"/>
      <point x="1070" y="973"/>
      <point x="980" y="773"/>
      <point x="940" y="653" type="curve"/>
      <point x="1000" y="523"/>
      <point x="1091" y="343"/>
      <point x="1243" y="343" type="curve" smooth="yes"/>
      <point x="1369" y="343"/>
      <point x="1431" y="503"/>
      <point x="1431" y="653" type="curve" smooth="yes"/>
      <point x="1431" y="803"/>
      <point x="1346" y="973"/>
    </contour>
  </outline>
</glyph>
<glyph name="logicalor" format="1">
  <advance width="1300"/>
  <unicode hex="2228"/>
  <outline>
    <contour>
      <point x="522" y="0" type="line" name="ab01"/>
      <point x="93" y="1300" type="line"/>
      <point x="248" y="1320" type="line" name="av01"/>
      <point x="592" y="320" type="line"/>
      <point x="657" y="80" type="line" name="iv01"/>
      <point x="722" y="320" type="line"/>
      <point x="1058" y="1300" type="line"/>
      <point x="1229" y="1320" type="line" name="av02"/>
      <point x="787" y="0" type="line"/>
    </contour>
  </outline>
</glyph>
<glyph name="similar" format="1">
  <advance width="1000"/>
  <unicode hex="223C"/>
  <outline>
    <contour>
      <point x="660" y="400" type="curve"/>
      <point x="520" y="400"/>
      <point x="431" y="570"/>
      <point x="325" y="570" type="curve" smooth="yes"/>
      <point x="243" y="570"/>
      <point x="180" y="530"/>
      <point x="100" y="460" type="curve"/>
      <point x="100" y="460"/>
      <point x="100" y="560"/>
      <point x="100" y="560" type="curve"/>
      <point x="153" y="634"/>
      <point x="220" y="700"/>
      <point x="340" y="700" type="curve" smooth="yes"/>
      <point x="480" y="700"/>
      <point x="571" y="530"/>
      <point x="675" y="530" type="curve"/>
      <point x="757" y="530"/>
      <point x="820" y="570"/>
      <point x="900" y="640" type="curve"/>
      <point x="900" y="640"/>
      <point x="900" y="540"/>
      <point x="900" y="540" type="curve"/>
      <point x="847" y="466"/>
      <point x="780" y="400"/>
    </contour>
  </outline>
</glyph>
<glyph name="congruent" format="1">
  <advance width="1000"/>
  <unicode hex="2245"/>
  <outline>
    <contour>
      <point x="100" y="600" type="line"/>
      <point x="900" y="600" type="line"/>
      <point x="900" y="460" type="line"/>
      <point x="100" y="460" type="line"/>
    </contour>
    <contour>
      <point x="100" y="300" type="line"/>
      <point x="900" y="300" type="line"/>
      <point x="900" y="160" type="line"/>
      <point x="100" y="160" type="line"/>
    </contour>
    <component base="similar" yOffset="300"/>
  </outline>
</glyph>
<glyph name="estimate" format="1">
  <advance width="1000"/>
  <unicode hex="2259"/>
  <outline>
    <contour>
      <point x="100" y="600" type="line"/>
      <point x="900" y="600" type="line"/>
      <point x="900" y="460" type="line"/>
      <point x="100" y="460" type="line"/>
    </contour>
    <contour>
      <point x="100" y="300" type="line"/>
      <point x="900" y="300" type="line"/>
      <point x="900" y="160" type="line"/>
      <point x="100" y="160" type="line"/>
    </contour>
    <component base="asciicircum" xScale="0.6" yScale="0.6" xOffset="50" yOffset="207"/>
  </outline>
</glyph>
<glyph name="greaterequal" format="1">
  <advance width="1300"/>
  <unicode hex="2265"/>
  <outline>
    <contour>
      <point x="200" y="135" type="line" name="hr00"/>
      <point x="1100" y="135" type="line"/>
      <point x="1080" y="0" type="line"/>
      <point x="200" y="0" type="line"/>
    </contour>
    <component base="greater" yScale="0.8" xOffset="2" yOffset="150"/>
  </outline>
</glyph>
<glyph name="propersubset" format="1">
  <advance width="1500"/>
  <unicode hex="2282"/>
  <outline>
    <contour>
      <point x="1420" y="0" type="line" name="hr00"/>
      <point x="843" y="0" type="line"/>
      <point x="672" y="0"/>
      <point x="397" y="81"/>
      <point x="204" y="244"/>
      <point x="100" y="488"/>
      <point x="100" y="650" type="qcurve"/>
      <point x="100" y="812"/>
      <point x="204" y="1056"/>
      <point x="397" y="1219"/>
      <point x="672" y="1300"/>
      <point x="843" y="1300" type="qcurve"/>
      <point x="1420" y="1300" type="line"/>
      <point x="1400" y="1146" type="line"/>
      <point x="847" y="1146" type="line"/>
      <point x="716" y="1146"/>
      <point x="506" y="1087"/>
      <point x="359" y="965"/>
      <point x="320" y="871" type="qcurve"/>
      <point x="292" y="806"/>
      <point x="292" y="493"/>
      <point x="320" y="428" type="qcurve"/>
      <point x="359" y="334"/>
      <point x="506" y="212"/>
      <point x="716" y="153"/>
      <point x="847" y="153" type="qcurve"/>
      <point x="1400" y="153" type="line"/>
    </contour>
  </outline>
</glyph>
<glyph name="circleminus" format="1">
  <advance width="1700"/>
  <unicode hex="2296"/>
  <outline>
    <contour>
      <point x="83" y="750" type="curve" smooth="yes"/>
      <point x="83" y="327"/>
      <point x="427" y="-17"/>
      <point x="850" y="-17" type="curve" smooth="yes"/>
      <point x="1273" y="-17"/>
      <point x="1617" y="327"/>
      <point x="1617" y="750" type="curve" smooth="yes"/>
      <point x="1617" y="1173"/>
      <point x="1273" y="1517"/>
      <point x="850" y="1517" type="curve" smooth="yes"/>
      <point x="427" y="1517"/>
      <point x="83" y="1173"/>
    </contour>
    <contour>
      <point x="850" y="132" type="curve" smooth="yes"/>
      <point x="534" y="132"/>
      <point x="273" y="369"/>
      <point x="236" y="675" type="curve"/>
      <point x="1462" y="675" type="line"/>
      <point x="1425" y="369"/>
      <point x="1165" y="132"/>
    </contour>
    <contour>
      <point x="850" y="1367" type="curve" smooth="yes"/>
      <point x="1165" y="1367"/>
      <point x="1425" y="1130"/>
      <point x="1462" y="825" type="curve"/>
      <point x="236" y="825" type="line"/>
      <point x="273" y="1130"/>
      <point x="534" y="1367"/>
    </contour>
  </outline>
</glyph>
<glyph name="circledivide" format="1">
  <advance width="1700"/>
  <unicode hex="2298"/>
  <outline>
    <contour>
      <point x="83" y="750" type="curve" smooth="yes"/>
      <point x="83" y="327"/>
      <point x="427" y="-17"/>
      <point x="850" y="-17" type="curve" smooth="yes"/>
      <point x="1273" y="-17"/>
      <point x="1617" y="327"/>
      <point x="1617" y="750" type="curve" smooth="yes"/>
      <point x="1617" y="1173"/>
      <point x="1273" y="1517"/>
      <point x="850" y="1517" type="curve" smooth="yes"/>
      <point x="427" y="1517"/>
      <point x="83" y="1173"/>
    </contour>
    <contour>
      <point x="232" y="750" type="curve" smooth="yes"/>
      <point x="232" y="1091"/>
      <point x="509" y="1367"/>
      <point x="850" y="1367" type="curve" smooth="yes"/>
      <point x="993" y="1367"/>
      <point x="1125" y="1318"/>
      <point x="1230" y="1236" type="curve"/>
      <point x="363" y="369" type="line"/>
      <point x="281" y="474"/>
      <point x="232" y="606"/>
    </contour>
    <contour>
      <point x="1467" y="750" type="curve" smooth="yes"/>
      <point x="1467" y="409"/>
      <point x="1191" y="132"/>
      <point x="850" y="132" type="curve" smooth="yes"/>
      <point x="706" y="132"/>
      <point x="574" y="181"/>
      <point x="469" y="263" type="curve"/>
      <point x="1336" y="1130" type="line"/>
      <point x="1418" y="1025"/>
      <point x="1467" y="893"/>
    </contour>
  </outline>
</glyph>
<glyph name="leftceiling" format="1">
  <advance width="800"/>
  <unicode hex="2308"/>
  <outline>
    <contour>
      <point x="300" y="0" type="line" name="hr00"/>
      <point x="100" y="0" type="line"/>
      <point x="100" y="1500" type="line"/>
      <point x="700" y="1500" type="line"/>
      <point x="700" y="1350" type="line"/>
      <point x="300" y="1350" type="line"/>
    </contour>
  </outline>
</glyph>
<glyph name="fisheye" format="1">
  <advance width="1000"/>
  <unicode hex="25C9"/>
  <outline>
    <contour>
      <point x="500" y="851" type="curve" smooth="yes"/>
      <point x="417" y="851"/>
      <point x="350" y="783"/>
      <point x="350" y="701" type="curve" smooth="yes"/>
      <point x="350" y="618"/>
      <point x="417" y="551"/>
      <point x="500" y="551" type="curve" smooth="yes"/>
      <point x="582" y="551"/>
      <point x="650" y="618"/>
      <point x="650" y="701" type="curve" smooth="yes"/>
      <point x="650" y="783"/>
      <point x="582" y="851"/>
    </contour>
    <contour>
      <point x="84" y="701" type="curve" smooth="yes"/>
      <point x="84" y="471"/>
      <point x="270" y="285"/>
      <point x="500" y="285" type="curve" smooth="yes"/>
      <point x="730" y="285"/>
      <point x="916" y="471"/>
      <point x="916" y="701" type="curve" smooth="yes"/>
      <point x="916" y="931"/>
      <point x="730" y="1117"/>
      <point x="500" y="1117" type="curve" smooth="yes"/>
      <point x="270" y="1117"/>
      <point x="84" y="931"/>
    </contour>
    <contour>
      <point x="200" y="701" type="curve" smooth="yes"/>
      <point x="200" y="867"/>
      <point x="334" y="1001"/>
      <point x="500" y="1001" type="curve" smooth="yes"/>
      <point x="666" y="1001"/>
      <point x="800" y="867"/>
      <point x="800" y="701" type="curve" smooth="yes"/>
      <point x="800" y="535"/>
      <point x="666" y="401"/>
      <point x="500" y="401" type="curve" smooth="yes"/>
      <point x="334" y="401"/>
      <point x="200" y="535"/>
    </contour>
  </outline>
</glyph>
<glyph name="bullseye" format="1">
  <advance width="1000"/>
  <unicode hex="25CE"/>
  <outline>
    <contour>
      <point x="500" y="821" type="curve" smooth="yes"/>
      <point x="566" y="821"/>
      <point x="620" y="767"/>
      <point x="620" y="701" type="curve" smooth="yes"/>
      <point x="620" y="635"/>
      <point x="566" y="581"/>
      <point x="500" y="581" type="curve" smooth="yes"/>
      <point x="434" y="581"/>
      <point x="380" y="635"/>
      <point x="380" y="701" type="curve" smooth="yes"/>
      <point x="380" y="767"/>
      <point x="434" y="821"/>
    </contour>
    <contour>
      <point x="84" y="701" type="curve" smooth="yes"/>
      <point x="84" y="471"/>
      <point x="270" y="285"/>
      <point x="500" y="285" type="curve" smooth="yes"/>
      <point x="730" y="285"/>
      <point x="916" y="471"/>
      <point x="916" y="701" type="curve" smooth="yes"/>
      <point x="916" y="931"/>
      <point x="730" y="1117"/>
      <point x="500" y="1117" type="curve" smooth="yes"/>
      <point x="270" y="1117"/>
      <point x="84" y="931"/>
    </contour>
    <contour>
      <point x="200" y="701" type="curve" smooth="yes"/>
      <point x="200" y="867"/>
      <point x="334" y="1001"/>
      <point x="500" y="1001" type="curve" smooth="yes"/>
      <point x="666" y="1001"/>
      <point x="800" y="867"/>
      <point x="800" y="701" type="curve" smooth="yes"/>
      <point x="800" y="535"/>
      <point x="666" y="401"/>
      <point x="500" y="401" type="curve" smooth="yes"/>
      <point x="334" y="401"/>
      <point x="200" y="535"/>
    </contour>
    <contour>
      <point x="300" y="701" type="curve" smooth="yes"/>
      <point x="300" y="591"/>
      <point x="390" y="501"/>
      <point x="500" y="501" type="curve" smooth="yes"/>
      <point x="610" y="501"/>
      <point x="700" y="591"/>
      <point x="700" y="701" type="curve" smooth="yes"/>
      <point x="700" y="811"/>
      <point x="610" y="901"/>
      <point x="500" y="901" type="curve" smooth="yes"/>
      <point x="390" y="901"/>
      <point x="300" y="811"/>
    </contour>
  </outline>
</glyph>
<glyph name="blackcircle" format="1">
  <advance width="1000"/>
  <unicode hex="25CF"/>
  <outline>
    <contour>
      <point x="84" y="701" type="curve" smooth="yes"/>
      <point x="84" y="471"/>
      <point x="270" y="285"/>
      <point x="500" y="285" type="curve" smooth="yes"/>
      <point x="730" y="285"/>
      <point x="916" y="471"/>
      <point x="916" y="701" type="curve" smooth="yes"/>
      <point x="916" y="931"/>
      <point x="730" y="1117"/>
      <point x="500" y="1117" type="curve" smooth="yes"/>
      <point x="270" y="1117"/>
      <point x="84" y="931"/>
    </contour>
  </outline>
</glyph>
<glyph name="circlewithlowerhalfblack" format="1">
  <advance width="1000"/>
  <unicode hex="25D2"/>
  <outline>
    <contour>
      <point x="500" y="1117" type="curve" smooth="yes"/>
      <point x="270" y="1117"/>
      <point x="84" y="931"/>
      <point x="84" y="701" type="curve" smooth="yes"/>
      <point x="84" y="471"/>
      <point x="270" y="285"/>
      <point x="500" y="285" type="curve" smooth="yes"/>
      <point x="730" y="285"/>
      <point x="916" y="471"/>
      <point x="916" y="701" type="curve" smooth="yes"/>
      <point x="916" y="931"/>
      <point x="730" y="1117"/>
    </contour>
    <contour>
      <point x="500" y="1001" type="curve" smooth="yes"/>
      <point x="666" y="1001"/>
      <point x="800" y="867"/>
      <point x="800" y="701" type="curve"/>
      <point x="200" y="701" type="line"/>
      <point x="200" y="867"/>
      <point x="334" y="1001"/>
    </contour>
  </outline>
</glyph>
<glyph name="cloud" format="1">
  <advance width="1800"/>
  <unicode hex="2601"/>
  <outline>
    <contour>
      <point x="802" y="1101" type="curve" smooth="yes"/>
      <point x="573" y="1101"/>
      <point x="358" y="941"/>
      <point x="357" y="697" type="curve"/>
      <point x="200" y="634"/>
      <point x="100" y="516"/>
      <point x="100" y="365" type="curve" smooth="yes"/>
      <point x="100" y="125"/>
      <point x="330" y="0"/>
      <point x="541" y="0" type="curve" smooth="yes"/>
      <point x="1290" y="0" type="line" smooth="yes"/>
      <point x="1384" y="0"/>
      <point x="1465" y="0"/>
      <point x="1533" y="20" type="curve"/>
      <point x="1647" y="46"/>
      <point x="1740" y="150"/>
      <point x="1740" y="298" type="curve"/>
      <point x="1740" y="500"/>
      <point x="1544" y="576"/>
      <point x="1544" y="576" type="curve"/>
      <point x="1546" y="591"/>
      <point x="1547" y="605"/>
      <point x="1547" y="619" type="curve" smooth="yes"/>
      <point x="1547" y="758"/>
      <point x="1414" y="855"/>
      <point x="1280" y="855" type="curve" smooth="yes"/>
      <point x="1244" y="855"/>
      <point x="1207" y="849"/>
      <point x="1175" y="837" type="curve"/>
      <point x="1117" y="1008"/>
      <point x="982" y="1101"/>
    </contour>
    <contour>
      <point x="549" y="557" type="line"/>
      <point x="518" y="680" type="line"/>
      <point x="518" y="841"/>
      <point x="636" y="939"/>
      <point x="802" y="939" type="curve" smooth="yes"/>
      <point x="916" y="939"/>
      <point x="993" y="881"/>
      <point x="1028" y="767" type="curve"/>
      <point x="1162" y="660" type="line"/>
      <point x="1181" y="683"/>
      <point x="1225" y="710"/>
      <point x="1274" y="710" type="curve" smooth="yes"/>
      <point x="1348" y="710"/>
      <point x="1404" y="650"/>
      <point x="1404" y="580" type="curve" smooth="yes"/>
      <point x="1404" y="546"/>
      <point x="1394" y="514"/>
      <point x="1381" y="496" type="curve"/>
      <point x="1493" y="434"/>
      <point x="1577" y="387"/>
      <point x="1577" y="297" type="curve" smooth="yes"/>
      <point x="1577" y="178"/>
      <point x="1497" y="152"/>
      <point x="1290" y="152" type="curve" smooth="yes"/>
      <point x="541" y="152" type="line" smooth="yes"/>
      <point x="398" y="152"/>
      <point x="261" y="230"/>
      <point x="261" y="365" type="curve" smooth="yes"/>
      <point x="261" y="444"/>
      <point x="328" y="519"/>
      <point x="427" y="557" type="curve"/>
    </contour>
  </outline>
</glyph>
<glyph name="snowman" format="1">
  <advance width="1667"/>
  <unicode hex="2603"/>
  <outline>
    <contour>
      <point x="800" y="749" type="curve" smooth="yes"/>
      <point x="800" y="777"/>
      <point x="823" y="800"/>
      <point x="851" y="800" type="curve" smooth="yes"/>
      <point x="879" y="800"/>
      <point x="902" y="777"/>
      <point x="902" y="749" type="curve" smooth="yes"/>
      <point x="902" y="721"/>
      <point x="879" y="698"/>
      <point x="851" y="698" type="curve" smooth="yes"/>
      <point x="823" y="698"/>
      <point x="800" y="721"/>
    </contour>
    <contour>
      <point x="800" y="349" type="curve" smooth="yes"/>
      <point x="800" y="377"/>
      <point x="823" y="400"/>
      <point x="851" y="400" type="curve" smooth="yes"/>
      <point x="879" y="400"/>
      <point x="902" y="377"/>
      <point x="902" y="349" type="curve" smooth="yes"/>
      <point x="902" y="321"/>
      <point x="879" y="298"/>
      <point x="851" y="298" type="curve" smooth="yes"/>
      <point x="823" y="298"/>
      <point x="800" y="321"/>
    </contour>
    <contour>
      <point x="600" y="1250" type="curve" smooth="yes"/>
      <point x="600" y="1278"/>
      <point x="622" y="1300"/>
      <point x="650" y="1300" type="curve" smooth="yes"/>
      <point x="678" y="1300"/>
      <point x="700" y="1278"/>
      <point x="700" y="1250" type="curve" smooth="yes"/>
      <point x="700" y="1222"/>
      <point x="678" y="1200"/>
      <point x="650" y="1200" type="curve" smooth="yes"/>
      <point x="622" y="1200"/>
      <point x="600" y="1222"/>
    </contour>
    <contour>
      <point x="900" y="1260" type="curve" smooth="yes"/>
      <point x="900" y="1288"/>
      <point x="922" y="1300"/>
      <point x="950" y="1300" type="curve" smooth="yes"/>
      <point x="978" y="1300"/>
      <point x="1000" y="1278"/>
      <point x="1000" y="1250" type="curve" smooth="yes"/>
      <point x="1000" y="1228"/>
      <point x="989" y="1221"/>
      <point x="974" y="1221" type="curve" smooth="yes"/>
      <point x="944" y="1221"/>
      <point x="900" y="1251"/>
    </contour>
    <contour>
      <point x="1437" y="1137" type="line"/>
      <point x="1315" y="1207" type="line"/>
      <point x="1173" y="962" type="line"/>
      <point x="1190" y="839" type="line"/>
      <point x="1125" y="915"/>
      <point x="1041" y="961"/>
      <point x="987" y="982" type="curve"/>
      <point x="1056" y="1037"/>
      <point x="1100" y="1081"/>
      <point x="1100" y="1177" type="curve" smooth="yes"/>
      <point x="1100" y="1343"/>
      <point x="966" y="1517"/>
      <point x="800" y="1517" type="curve" smooth="yes"/>
      <point x="634" y="1517"/>
      <point x="500" y="1343"/>
      <point x="500" y="1177" type="curve" smooth="yes"/>
      <point x="500" y="1081"/>
      <point x="544" y="1037"/>
      <point x="613" y="982" type="curve"/>
      <point x="573" y="966"/>
      <point x="535" y="940"/>
      <point x="500" y="906" type="curve" smooth="yes"/>
      <point x="369" y="778"/>
      <point x="283" y="541"/>
      <point x="283" y="368" type="curve" smooth="yes"/>
      <point x="283" y="83"/>
      <point x="515" y="-17"/>
      <point x="800" y="-17" type="curve" smooth="yes"/>
      <point x="1085" y="-17"/>
      <point x="1317" y="83"/>
      <point x="1317" y="368" type="curve" smooth="yes"/>
      <point x="1317" y="472"/>
      <point x="1286" y="701"/>
      <point x="1232" y="783" type="curve"/>
    </contour>
    <contour>
      <point x="800" y="549" type="curve" smooth="yes"/>
      <point x="800" y="577"/>
      <point x="823" y="600"/>
      <point x="851" y="600" type="curve" smooth="yes"/>
      <point x="879" y="600"/>
      <point x="902" y="577"/>
      <point x="902" y="549" type="curve" smooth="yes"/>
      <point x="902" y="521"/>
      <point x="879" y="498"/>
      <point x="851" y="498" type="curve" smooth="yes"/>
      <point x="823" y="498"/>
      <point x="800" y="521"/>
    </contour>
    <contour>
      <point x="777" y="1208" type="curve" smooth="yes"/>
      <point x="786" y="1225"/>
      <point x="803" y="1234"/>
      <point x="820" y="1234" type="curve"/>
      <point x="828" y="1234"/>
      <point x="837" y="1232"/>
      <point x="845" y="1227" type="curve" smooth="yes"/>
      <point x="868" y="1214"/>
      <point x="994" y="1118"/>
      <point x="994" y="1087" type="curve" smooth="yes"/>
      <point x="994" y="1085"/>
      <point x="994" y="1084"/>
      <point x="993" y="1083" type="curve" smooth="yes"/>
      <point x="991" y="1079"/>
      <point x="986" y="1078"/>
      <point x="978" y="1078" type="curve" smooth="yes"/>
      <point x="934" y="1078"/>
      <point x="815" y="1128"/>
      <point x="795" y="1140" type="curve" smooth="yes"/>
      <point x="779" y="1149"/>
      <point x="770" y="1166"/>
      <point x="770" y="1183" type="curve" smooth="yes"/>
      <point x="770" y="1192"/>
      <point x="772" y="1200"/>
    </contour>
  </outline>
</glyph>
<glyph name="blackstar" format="1">
  <advance width="1700"/>
  <unicode hex="2605"/>
  <outline>
    <contour>
      <point x="1600" y="900" type="line"/>
      <point x="1050" y="900" type="line"/>
      <point x="852" y="1410" type="line"/>
      <point x="650" y="900" type="line"/>
      <point x="100" y="900" type="line"/>
      <point x="530" y="561" type="line"/>
      <point x="350" y="0" type="line"/>
      <point x="739" y="265" type="line"/>
      <point x="852" y="375" type="line"/>
      <point x="965" y="265" type="line"/>
      <point x="1350" y="0" type="line"/>
      <point x="1169" y="561" type="line"/>
    </contour>
  </outline>
</glyph>
<glyph name="phone" format="1">
  <advance width="1100"/>
  <unicode hex="260E"/>
  <outline>
    <contour>
      <point x="630" y="629" type="curve" smooth="yes"/>
      <point x="561" y="525"/>
      <point x="478" y="357"/>
      <point x="457" y="348" type="curve" smooth="yes"/>
      <point x="455" y="347"/>
      <point x="453" y="347"/>
      <point x="450" y="347" type="curve" smooth="yes"/>
      <point x="416" y="347"/>
      <point x="328" y="430"/>
      <point x="290" y="430" type="curve" smooth="yes"/>
      <point x="287" y="430"/>
      <point x="284" y="429"/>
      <point x="282" y="428" type="curve" smooth="yes"/>
      <point x="211" y="395"/>
      <point x="69" y="180"/>
      <point x="69" y="111" type="curve" smooth="yes"/>
      <point x="69" y="106"/>
      <point x="70" y="102"/>
      <point x="71" y="99" type="curve" smooth="yes"/>
      <point x="85" y="71"/>
      <point x="193" y="21"/>
      <point x="280" y="21" type="curve" smooth="yes"/>
      <point x="302" y="21"/>
      <point x="324" y="24"/>
      <point x="341" y="32" type="curve" smooth="yes"/>
      <point x="475" y="94"/>
      <point x="673" y="282"/>
      <point x="816" y="506" type="curve" smooth="yes"/>
      <point x="959" y="730"/>
      <point x="1044" y="989"/>
      <point x="1044" y="1136" type="curve" smooth="yes"/>
      <point x="1044" y="1231"/>
      <point x="910" y="1353"/>
      <point x="870" y="1353" type="curve" smooth="yes"/>
      <point x="815" y="1353"/>
      <point x="661" y="1107"/>
      <point x="661" y="1023" type="curve" smooth="yes"/>
      <point x="661" y="986"/>
      <point x="808" y="932"/>
      <point x="808" y="899" type="curve" smooth="yes"/>
      <point x="808" y="875"/>
      <point x="691" y="721"/>
    </contour>
  </outline>
</glyph>
<glyph name="emptybox" format="1">
  <advance width="1100"/>
  <unicode hex="2610"/>
  <outline>
    <contour>
      <point x="1100" y="0" type="line"/>
      <point x="0" y="0" type="line"/>
      <point x="0" y="1100" type="line"/>
      <point x="1100" y="1100" type="line"/>
    </contour>
    <contour>
      <point x="165" y="165" type="line"/>
      <point x="935" y="165" type="line"/>
      <point x="935" y="935" type="line"/>
      <point x="165" y="935" type="line"/>
    </contour>
  </outline>
</glyph>
<glyph name="night" format="1">
  <advance width="1300"/>
  <unicode hex="263E"/>
  <outline>
    <contour>
      <point x="1198" y="317" type="curve"/>
      <point x="1107" y="120"/>
      <point x="907" y="-17"/>
      <point x="676" y="-17" type="curve" smooth="yes"/>
      <point x="358" y="-17"/>
      <point x="100" y="241"/>
      <point x="100" y="559" type="curve" smooth="yes"/>
      <point x="100" y="877"/>
      <point x="358" y="1135"/>
      <point x="676" y="1135" type="curve" smooth="yes"/>
      <point x="769" y="1135"/>
      <point x="857" y="1113"/>
      <point x="935" y="1073" type="curve"/>
      <point x="931" y="1051" type="line"/>
      <point x="901" y="1057"/>
      <point x="871" y="1060"/>
      <point x="840" y="1060" type="curve" smooth="yes"/>
      <point x="595" y="1060"/>
      <point x="396" y="861"/>
      <point x="396" y="616" type="curve" smooth="yes"/>
      <point x="396" y="371"/>
      <point x="595" y="172"/>
      <point x="840" y="172" type="curve" smooth="yes"/>
      <point x="976" y="172"/>
      <point x="1099" y="233"/>
      <point x="1180" y="330" type="curve" smooth="yes"/>
      <point x="1180" y="329"/>
      <point x="1198" y="317"/>
    </contour>
  </outline>
</glyph>
<glyph name="spade" format="1">
  <advance width="1400"/>
  <unicode hex="2660"/>
  <outline>
    <contour>
      <point x="116" y="591" type="curve"/>
      <point x="116" y="397"/>
      <point x="247" y="271"/>
      <point x="436" y="271" type="curve"/>
      <point x="636" y="441" type="line"/>
      <point x="636" y="280"/>
      <point x="600" y="106"/>
      <point x="280" y="106" type="curve"/>
      <point x="280" y="0" type="line"/>
      <point x="1120" y="0" type="line"/>
      <point x="1120" y="106" type="line"/>
      <point x="800" y="106"/>
      <point x="763" y="280"/>
      <point x="763" y="441" type="curve"/>
      <point x="964" y="271" type="line"/>
      <point x="1153" y="271"/>
      <point x="1284" y="397"/>
      <point x="1284" y="591" type="curve" smooth="yes"/>
      <point x="1284" y="897"/>
      <point x="779" y="1100"/>
      <point x="779" y="1300" type="curve"/>
      <point x="622" y="1300" type="line"/>
      <point x="622" y="1100"/>
      <point x="116" y="897"/>
    </contour>
  </outline>
</glyph>
<glyph name="diamondsuitwhite" format="1">
  <advance width="1200"/>
  <unicode hex="2662"/>
  <outline>
    <contour>
      <point x="600" y="1400" type="line"/>
      <point x="58" y="649" type="line"/>
      <point x="600" y="-100" type="line"/>
      <point x="1140" y="651" type="line"/>
    </contour>
    <contour>
      <point x="924" y="620" type="line"/>
      <point x="629" y="173" type="line"/>
      <point x="599" y="63" type="line"/>
      <point x="569" y="173" type="line"/>
      <point x="275" y="620" type="line"/>
      <point x="155" y="650" type="line"/>
      <point x="275" y="680" type="line"/>
      <point x="570" y="1128" type="line"/>
      <point x="600" y="1238" type="line"/>
      <point x="630" y="1128" type="line"/>
      <point x="924" y="680" type="line"/>
      <point x="1044" y="650" type="line"/>
    </contour>
  </outline>
</glyph>
<glyph name="highvoltage" format="1">
  <advance width="1000"/>
  <unicode hex="26A1"/>
  <outline>
    <contour>
      <point x="100" y="600" type="line"/>
      <point x="548" y="624" type="line"/>
      <point x="600" y="634" type="line"/>
      <point x="560" y="600" type="line"/>
      <point x="300" y="0" type="line"/>
      <point x="400" y="0" type="line"/>
      <point x="900" y="900" type="line"/>
      <point x="453" y="872" type="line"/>
      <point x="400" y="864" type="line"/>
      <point x="440" y="900" type="line"/>
      <point x="700" y="1500" type="line"/>
      <point x="600" y="1500" type="line"/>
    </contour>
  </outline>
</glyph>
<glyph name="checkmark" format="1">
  <advance width="1100"/>
  <unicode hex="2713"/>
  <outline>
    <contour>
      <point x="580" y="400" type="line"/>
      <point x="590" y="600" type="line"/>
      <point x="710" y="941"/>
      <point x="952" y="1231"/>
      <point x="1057" y="1317" type="curve"/>
      <point x="1188" y="1300" type="line"/>
      <point x="1008" y="1100"/>
      <point x="719" y="631"/>
      <point x="687" y="263" type="curve"/>
      <point x="465" y="280" type="line"/>
      <point x="260" y="800" type="line"/>
      <point x="428" y="820" type="line"/>
    </contour>
  </outline>
</glyph>
<glyph name="widerightwardsarrow" format="1">
  <advance width="1900"/>
  <unicode hex="2794"/>
  <outline>
    <contour>
      <point x="1510" y="820" type="line"/>
      <point x="1190" y="1099" type="line"/>
      <point x="920" y="1099" type="line"/>
      <point x="1202" y="832" type="line"/>
      <point x="1400" y="686" type="line"/>
      <point x="1182" y="700" type="line"/>
      <point x="130" y="700" type="line"/>
      <point x="100" y="500" type="line"/>
      <point x="1182" y="500" type="line"/>
      <point x="1400" y="514" type="line"/>
      <point x="1202" y="364" type="line"/>
      <point x="920" y="99" type="line"/>
      <point x="1190" y="99" type="line"/>
      <point x="1510" y="380" type="line"/>
      <point x="1800" y="600" type="line"/>
    </contour>
  </outline>
</glyph>
<glyph name="leveldown" format="1">
  <advance width="2000"/>
  <unicode hex="E006"/>
  <outline>
    <contour>
      <point x="68" y="700" type="line"/>
      <point x="268" y="700" type="line" smooth="yes"/>
      <point x="518" y="700"/>
      <point x="600" y="593"/>
      <point x="694" y="470" type="curve" smooth="yes"/>
      <point x="743" y="405"/>
      <point x="794" y="338"/>
      <point x="871" y="287" type="curve" smooth="yes"/>
      <point x="958" y="228"/>
      <point x="1066" y="200"/>
      <point x="1200" y="200" type="curve" smooth="yes"/>
      <point x="1744" y="200" type="line"/>
      <point x="1500" y="0" type="line"/>
      <point x="1646" y="0" type="line"/>
      <point x="1830" y="161" type="line"/>
      <point x="1946" y="249" type="line"/>
      <point x="1828" y="341" type="line"/>
      <point x="1646" y="500" type="line"/>
      <point x="1500" y="500" type="line"/>
      <point x="1744" y="300" type="line"/>
      <point x="1200" y="300" type="line" smooth="yes"/>
      <point x="948" y="300"/>
      <point x="867" y="407"/>
      <point x="773" y="530" type="curve" smooth="yes"/>
      <point x="724" y="595"/>
      <point x="673" y="662"/>
      <point x="596" y="713" type="curve" smooth="yes"/>
      <point x="509" y="772"/>
      <point x="402" y="800"/>
      <point x="268" y="800" type="curve" smooth="yes"/>
      <point x="68" y="800" type="line"/>
    </contour>
    <contour>
      <point x="1300" y="700" type="line"/>
      <point x="1500" y="700" type="line"/>
      <point x="1500" y="800" type="line"/>
      <point x="1300" y="800" type="line"/>
    </contour>
    <contour>
      <point x="1600" y="700" type="line"/>
      <point x="1800" y="700" type="line"/>
      <point x="1800" y="800" type="line"/>
      <point x="1600" y="800" type="line"/>
    </contour>
    <contour>
      <point x="1000" y="700" type="line"/>
      <point x="1200" y="700" type="line"/>
      <point x="1200" y="800" type="line"/>
      <point x="1000" y="800" type="line"/>
    </contour>
    <contour>
      <point x="800" y="700" type="line"/>
      <point x="900" y="700" type="line"/>
      <point x="900" y="800" type="line"/>
      <point x="700" y="800" type="line"/>
    </contour>
  </outline>
</glyph>
<glyph name="slashedzero" format="1">
  <advance width="1300"/>
  <unicode hex="E007"/>
  <outline>
    <contour>
      <point x="600" y="-17" type="curve" smooth="yes"/>
      <point x="260" y="-17"/>
      <point x="90" y="400"/>
      <point x="90" y="750" type="curve" smooth="yes"/>
      <point x="90" y="1110"/>
      <point x="230" y="1517"/>
      <point x="600" y="1517" type="curve" smooth="yes"/>
      <point x="940" y="1517"/>
      <point x="1110" y="1100"/>
      <point x="1110" y="750" type="curve" smooth="yes"/>
      <point x="1110" y="390"/>
      <point x="970" y="-17"/>
    </contour>
    <contour>
      <point x="608" y="157" type="curve" smooth="yes"/>
      <point x="855" y="157"/>
      <point x="906" y="456"/>
      <point x="906" y="707" type="curve" smooth="yes"/>
      <point x="906" y="797"/>
      <point x="902" y="867"/>
      <point x="888" y="965" type="curve"/>
      <point x="918" y="1182" type="line"/>
      <point x="397" y="277" type="line"/>
      <point x="444" y="202"/>
      <point x="510" y="157"/>
    </contour>
    <contour>
      <point x="592" y="1341" type="curve" smooth="yes"/>
      <point x="345" y="1341"/>
      <point x="294" y="1044"/>
      <point x="294" y="793" type="curve" smooth="yes"/>
      <point x="294" y="702"/>
      <point x="298" y="631"/>
      <point x="313" y="532" type="curve"/>
      <point x="283" y="320" type="line"/>
      <point x="802" y="1221" type="line"/>
      <point x="755" y="1297"/>
      <point x="688" y="1341"/>
    </contour>
  </outline>
</glyph>
<glyph name="cold" format="1">
  <advance width="1900"/>
  <unicode hex="E021"/>
  <outline>
    <contour>
      <point x="500" y="291" type="line"/>
      <point x="506" y="289"/>
      <point x="511" y="287"/>
      <point x="516" y="284" type="curve" smooth="yes"/>
      <point x="566" y="259"/>
      <point x="600" y="209"/>
      <point x="600" y="150" type="curve" smooth="yes"/>
      <point x="600" y="67"/>
      <point x="533" y="0"/>
      <point x="450" y="0" type="curve" smooth="yes"/>
      <point x="368" y="0"/>
      <point x="300" y="68"/>
      <point x="300" y="151" type="curve" smooth="yes"/>
      <point x="300" y="216"/>
      <point x="342" y="271"/>
      <point x="400" y="291" type="curve"/>
      <point x="400" y="500" type="line" smooth="yes"/>
      <point x="400" y="528"/>
      <point x="422" y="550"/>
      <point x="450" y="550" type="curve" smooth="yes"/>
      <point x="478" y="550"/>
      <point x="500" y="528"/>
      <point x="500" y="500" type="curve" smooth="yes"/>
    </contour>
    <contour>
      <point x="450" y="-100" type="curve" smooth="yes"/>
      <point x="588" y="-100"/>
      <point x="700" y="12"/>
      <point x="700" y="150" type="curve" smooth="yes"/>
      <point x="700" y="232"/>
      <point x="660" y="305"/>
      <point x="600" y="350" type="curve"/>
      <point x="600" y="1252" type="line" smooth="yes"/>
      <point x="600" y="1334"/>
      <point x="529" y="1400"/>
      <point x="450" y="1400" type="curve" smooth="yes"/>
      <point x="370" y="1400"/>
      <point x="300" y="1333"/>
      <point x="300" y="1250" type="curve" smooth="yes"/>
      <point x="300" y="350" type="line"/>
      <point x="240" y="305"/>
      <point x="200" y="232"/>
      <point x="200" y="150" type="curve" smooth="yes"/>
      <point x="200" y="12"/>
      <point x="312" y="-100"/>
    </contour>
    <contour>
      <point x="450" y="-200" type="curve" smooth="yes"/>
      <point x="258" y="-200"/>
      <point x="100" y="-41"/>
      <point x="100" y="150" type="curve" smooth="yes"/>
      <point x="100" y="241"/>
      <point x="137" y="335"/>
      <point x="200" y="400" type="curve"/>
      <point x="200" y="1252" type="line" smooth="yes"/>
      <point x="200" y="1390"/>
      <point x="316" y="1500"/>
      <point x="450" y="1500" type="curve" smooth="yes"/>
      <point x="585" y="1500"/>
      <point x="700" y="1389"/>
      <point x="700" y="1250" type="curve" smooth="yes"/>
      <point x="700" y="400" type="line"/>
      <point x="764" y="335"/>
      <point x="800" y="241"/>
      <point x="800" y="150" type="curve" smooth="yes"/>
      <point x="800" y="-42"/>
      <point x="642" y="-200"/>
    </contour>
    <contour>
      <point x="900" y="170" type="line"/>
      <point x="1000" y="228" type="line"/>
      <point x="1000" y="613" type="line"/>
      <point x="800" y="495" type="line"/>
      <point x="800" y="611" type="line"/>
      <point x="950" y="700" type="line"/>
      <point x="800" y="785" type="line"/>
      <point x="800" y="900" type="line"/>
      <point x="1000" y="786" type="line"/>
      <point x="1000" y="1171" type="line"/>
      <point x="816" y="1279" type="line"/>
      <point x="866" y="1365" type="line"/>
      <point x="1000" y="1287" type="line"/>
      <point x="1000" y="1500" type="line"/>
      <point x="1100" y="1520" type="line"/>
      <point x="1100" y="1288" type="line"/>
      <point x="1233" y="1365" type="line"/>
      <point x="1283" y="1279" type="line"/>
      <point x="1100" y="1172" type="line"/>
      <point x="1100" y="786" type="line"/>
      <point x="1434" y="979" type="line"/>
      <point x="1434" y="1191" type="line"/>
      <point x="1534" y="1211" type="line"/>
      <point x="1534" y="1037" type="line"/>
      <point x="1717" y="1143" type="line"/>
      <point x="1767" y="1057" type="line"/>
      <point x="1583" y="951" type="line"/>
      <point x="1717" y="873" type="line"/>
      <point x="1667" y="787" type="line"/>
      <point x="1484" y="893" type="line"/>
      <point x="1149" y="700" type="line"/>
      <point x="1484" y="506" type="line"/>
      <point x="1667" y="613" type="line"/>
      <point x="1717" y="527" type="line"/>
      <point x="1583" y="449" type="line"/>
      <point x="1767" y="343" type="line"/>
      <point x="1717" y="257" type="line"/>
      <point x="1534" y="362" type="line"/>
      <point x="1534" y="209" type="line"/>
      <point x="1434" y="189" type="line"/>
      <point x="1434" y="420" type="line"/>
      <point x="1100" y="613" type="line"/>
      <point x="1100" y="227" type="line"/>
      <point x="1283" y="121" type="line"/>
      <point x="1233" y="35" type="line"/>
      <point x="1100" y="111" type="line"/>
      <point x="1100" y="-100" type="line"/>
      <point x="1000" y="-120" type="line"/>
      <point x="1000" y="112" type="line"/>
      <point x="900" y="55" type="line"/>
    </contour>
  </outline>
</glyph>
<glyph name="lightning" format="1">
  <advance width="1800"/>
  <unicode hex="E026"/>
  <outline>
    <contour>
      <point x="845" y="300" type="line"/>
      <point x="684" y="-102" type="line"/>
      <point x="958" y="-147" type="line"/>
      <point x="993" y="-140" type="line"/>
      <point x="966" y="-163" type="line"/>
      <point x="814" y="-500" type="line"/>
      <point x="845" y="-500" type="line"/>
      <point x="1200" y="-46" type="line"/>
      <point x="928" y="-1" type="line"/>
      <point x="892" y="-7" type="line"/>
      <point x="919" y="18" type="line"/>
      <point x="1085" y="300" type="line"/>
    </contour>
    <contour>
      <point x="580" y="152" type="line"/>
      <point x="541" y="152" type="line" smooth="yes"/>
      <point x="398" y="152"/>
      <point x="261" y="230"/>
      <point x="261" y="365" type="curve" smooth="yes"/>
      <point x="261" y="444"/>
      <point x="328" y="519"/>
      <point x="427" y="557" type="curve"/>
      <point x="549" y="557" type="line"/>
      <point x="518" y="680" type="line"/>
      <point x="518" y="841"/>
      <point x="636" y="939"/>
      <point x="802" y="939" type="curve" smooth="yes"/>
      <point x="916" y="939"/>
      <point x="993" y="881"/>
      <point x="1028" y="767" type="curve"/>
      <point x="1162" y="660" type="line"/>
      <point x="1181" y="683"/>
      <point x="1225" y="710"/>
      <point x="1274" y="710" type="curve" smooth="yes"/>
      <point x="1348" y="710"/>
      <point x="1404" y="650"/>
      <point x="1404" y="580" type="curve" smooth="yes"/>
      <point x="1404" y="546"/>
      <point x="1394" y="514"/>
      <point x="1381" y="496" type="curve"/>
      <point x="1493" y="434"/>
      <point x="1577" y="387"/>
      <point x="1577" y="297" type="curve" smooth="yes"/>
      <point x="1577" y="192"/>
      <point x="1479" y="159"/>
      <point x="1322" y="153" type="curve"/>
      <point x="1471" y="12" type="line"/>
      <point x="1482" y="14"/>
      <point x="1523" y="17"/>
      <point x="1533" y="20" type="curve"/>
      <point x="1647" y="46"/>
      <point x="1740" y="150"/>
      <point x="1740" y="298" type="curve" smooth="yes"/>
      <point x="1740" y="500"/>
      <point x="1544" y="576"/>
      <point x="1544" y="576" type="curve"/>
      <point x="1546" y="591"/>
      <point x="1547" y="605"/>
      <point x="1547" y="619" type="curve" smooth="yes"/>
      <point x="1547" y="758"/>
      <point x="1414" y="855"/>
      <point x="1280" y="855" type="curve" smooth="yes"/>
      <point x="1244" y="855"/>
      <point x="1207" y="849"/>
      <point x="1175" y="837" type="curve"/>
      <point x="1117" y="1008"/>
      <point x="982" y="1101"/>
      <point x="802" y="1101" type="curve" smooth="yes"/>
      <point x="573" y="1101"/>
      <point x="358" y="941"/>
      <point x="357" y="697" type="curve"/>
      <point x="200" y="634"/>
      <point x="100" y="516"/>
      <point x="100" y="365" type="curve" smooth="yes"/>
      <point x="100" y="134"/>
      <point x="296" y="9"/>
      <point x="500" y="0" type="curve"/>
    </contour>
  </outline>
</glyph>
<glyph name="phoneout" format="1">
  <advance width="1900"/>
  <unicode hex="E061"/>
  <outline>
    <contour>
      <point x="1344" y="849" type="line"/>
      <point x="1421" y="819" type="line"/>
      <point x="1400" y="885" type="line"/>
      <point x="1400" y="1100" type="line"/>
      <point x="1800" y="749" type="line"/>
      <point x="1400" y="399" type="line"/>
      <point x="1400" y="612" type="line"/>
      <point x="1421" y="677" type="line"/>
      <point x="1344" y="649" type="line"/>
      <point x="1100" y="649" type="line"/>
      <point x="1100" y="849" type="line"/>
    </contour>
    <component base="phone"/>
  </outline>
</glyph>
<glyph name="wifiout" format="1">
  <advance width="2100"/>
  <unicode hex="E067"/>
  <outline>
    <contour>
      <point x="900" y="1350" type="curve" smooth="yes"/>
      <point x="597" y="1350"/>
      <point x="322" y="1231"/>
      <point x="119" y="1035" type="curve"/>
      <point x="240" y="914" type="line"/>
      <point x="410" y="1079"/>
      <point x="644" y="1180"/>
      <point x="900" y="1180" type="curve" smooth="yes"/>
      <point x="1156" y="1180"/>
      <point x="1388" y="1079"/>
      <point x="1559" y="914" type="curve"/>
      <point x="1680" y="1035" type="line"/>
      <point x="1478" y="1231"/>
      <point x="1203" y="1350"/>
    </contour>
    <contour>
      <point x="352" y="802" type="curve"/>
      <point x="457" y="697" type="line"/>
      <point x="574" y="804"/>
      <point x="729" y="870"/>
      <point x="900" y="870" type="curve" smooth="yes"/>
      <point x="1070" y="870"/>
      <point x="1226" y="804"/>
      <point x="1342" y="697" type="curve"/>
      <point x="1447" y="802" type="line"/>
      <point x="1304" y="937"/>
      <point x="1111" y="1019"/>
      <point x="900" y="1019" type="curve" smooth="yes"/>
      <point x="688" y="1019"/>
      <point x="495" y="937"/>
    </contour>
    <contour>
      <point x="576" y="579" type="curve"/>
      <point x="689" y="465" type="line"/>
      <point x="743" y="519"/>
      <point x="817" y="552"/>
      <point x="900" y="552" type="curve" smooth="yes"/>
      <point x="982" y="552"/>
      <point x="1056" y="519"/>
      <point x="1110" y="465" type="curve"/>
      <point x="1224" y="579" type="line"/>
      <point x="1139" y="658"/>
      <point x="1025" y="706"/>
      <point x="900" y="706" type="curve" smooth="yes"/>
      <point x="774" y="706"/>
      <point x="660" y="658"/>
    </contour>
    <contour>
      <point x="900" y="412" type="curve" smooth="yes"/>
      <point x="820" y="412"/>
      <point x="759" y="348"/>
      <point x="759" y="270" type="curve" smooth="yes"/>
      <point x="759" y="193"/>
      <point x="822" y="130"/>
      <point x="900" y="130" type="curve" smooth="yes"/>
      <point x="978" y="130"/>
      <point x="1041" y="193"/>
      <point x="1041" y="270" type="curve" smooth="yes"/>
      <point x="1041" y="348"/>
      <point x="978" y="412"/>
    </contour>
    <contour>
      <point x="1544" y="549" type="line"/>
      <point x="1621" y="519" type="line"/>
      <point x="1600" y="585" type="line"/>
      <point x="1600" y="800" type="line"/>
      <point x="2000" y="449" type="line"/>
      <point x="1600" y="99" type="line"/>
      <point x="1600" y="312" type="line"/>
      <point x="1621" y="377" type="line"/>
      <point x="1544" y="349" type="line"/>
      <point x="1300" y="349" type="line"/>
      <point x="1300" y="549" type="line"/>
    </contour>
  </outline>
</glyph>
<glyph name="slashedwifi" format="1">
  <advance width="1700"/>
  <unicode hex="E068"/>
  <outline>
    <contour>
      <point x="800" y="412" type="curve" smooth="yes"/>
      <point x="878" y="412"/>
      <point x="941" y="348"/>
      <point x="941" y="270" type="curve" smooth="yes"/>
      <point x="941" y="193"/>
      <point x="878" y="130"/>
      <point x="800" y="130" type="curve" smooth="yes"/>
      <point x="722" y="130"/>
      <point x="659" y="193"/>
      <point x="659" y="270" type="curve" smooth="yes"/>
      <point x="659" y="348"/>
      <point x="720" y="412"/>
    </contour>
    <contour>
      <point x="361" y="1073" type="line"/>
      <point x="279" y="1030"/>
      <point x="205" y="977"/>
      <point x="140" y="914" type="curve"/>
      <point x="19" y="1035" type="line"/>
      <point x="92" y="1105"/>
      <point x="174" y="1166"/>
      <point x="264" y="1214" type="curve"/>
    </contour>
    <contour>
      <point x="594" y="1331" type="line"/>
      <point x="661" y="1343"/>
      <point x="730" y="1350"/>
      <point x="800" y="1350" type="curve" smooth="yes"/>
      <point x="1103" y="1350"/>
      <point x="1378" y="1231"/>
      <point x="1580" y="1035" type="curve"/>
      <point x="1459" y="914" type="line"/>
      <point x="1288" y="1079"/>
      <point x="1056" y="1180"/>
      <point x="800" y="1180" type="curve" smooth="yes"/>
      <point x="767" y="1180"/>
      <point x="735" y="1178"/>
      <point x="703" y="1175" type="curve"/>
    </contour>
    <contour>
      <point x="1242" y="697" type="line"/>
      <point x="1154" y="777"/>
      <point x="1044" y="835"/>
      <point x="923" y="858" type="curve"/>
      <point x="811" y="1019" type="line"/>
      <point x="1018" y="1016"/>
      <point x="1206" y="934"/>
      <point x="1347" y="802" type="curve"/>
    </contour>
    <contour>
      <point x="252" y="802" type="line"/>
      <point x="311" y="858"/>
      <point x="378" y="904"/>
      <point x="452" y="940" type="curve"/>
      <point x="538" y="815" type="line"/>
      <point x="471" y="786"/>
      <point x="410" y="745"/>
      <point x="357" y="697" type="curve"/>
    </contour>
    <contour>
      <point x="476" y="579" type="line"/>
      <point x="521" y="621"/>
      <point x="574" y="654"/>
      <point x="633" y="676" type="curve"/>
      <point x="725" y="543" type="line"/>
      <point x="673" y="529"/>
      <point x="626" y="502"/>
      <point x="589" y="465" type="curve"/>
    </contour>
    <contour>
      <point x="189" y="1500" type="line"/>
      <point x="356" y="1500" type="line"/>
      <point x="1397" y="0" type="line"/>
      <point x="1219" y="0" type="line"/>
    </contour>
  </outline>
</glyph>
<glyph name="speakerlow" format="1">
  <advance width="1200"/>
  <unicode hex="E081"/>
  <outline>
    <contour>
      <point x="446" y="900" type="line"/>
      <point x="100" y="900" type="line"/>
      <point x="100" y="200" type="line"/>
      <point x="449" y="200" type="line"/>
      <point x="700" y="-20" type="line"/>
      <point x="800" y="0" type="line"/>
      <point x="800" y="1100" type="line"/>
      <point x="700" y="1121" type="line"/>
    </contour>
    <contour>
      <point x="700" y="127" type="line"/>
      <point x="630" y="301" type="line"/>
      <point x="515" y="380" type="line"/>
      <point x="200" y="380" type="line"/>
      <point x="200" y="720" type="line"/>
      <point x="515" y="720" type="line"/>
      <point x="630" y="800" type="line"/>
      <point x="700" y="961" type="line"/>
    </contour>
    <contour>
      <point x="1024" y="820" type="curve"/>
      <point x="900" y="800" type="line"/>
      <point x="950" y="749"/>
      <point x="975" y="670"/>
      <point x="975" y="600" type="curve" smooth="yes"/>
      <point x="975" y="530"/>
      <point x="950" y="450"/>
      <point x="900" y="400" type="curve"/>
      <point x="900" y="300" type="line"/>
      <point x="1043" y="359"/>
      <point x="1100" y="484"/>
      <point x="1100" y="600" type="curve" smooth="yes"/>
      <point x="1100" y="681"/>
      <point x="1072" y="779"/>
    </contour>
  </outline>
</glyph>
